%TF.GenerationSoftware,KiCad,Pcbnew,(5.99.0-9773-gf428ce03f2)*%
%TF.CreationDate,2021-05-10T10:20:16-04:00*%
%TF.ProjectId,D5XAMP_v4,44355841-4d50-45f7-9634-2e6b69636164,rev?*%
%TF.SameCoordinates,Original*%
%TF.FileFunction,Soldermask,Top*%
%TF.FilePolarity,Negative*%
%FSLAX46Y46*%
G04 Gerber Fmt 4.6, Leading zero omitted, Abs format (unit mm)*
G04 Created by KiCad (PCBNEW (5.99.0-9773-gf428ce03f2)) date 2021-05-10 10:20:16*
%MOMM*%
%LPD*%
G01*
G04 APERTURE LIST*
G04 Aperture macros list*
%AMRoundRect*
0 Rectangle with rounded corners*
0 $1 Rounding radius*
0 $2 $3 $4 $5 $6 $7 $8 $9 X,Y pos of 4 corners*
0 Add a 4 corners polygon primitive as box body*
4,1,4,$2,$3,$4,$5,$6,$7,$8,$9,$2,$3,0*
0 Add four circle primitives for the rounded corners*
1,1,$1+$1,$2,$3*
1,1,$1+$1,$4,$5*
1,1,$1+$1,$6,$7*
1,1,$1+$1,$8,$9*
0 Add four rect primitives between the rounded corners*
20,1,$1+$1,$2,$3,$4,$5,0*
20,1,$1+$1,$4,$5,$6,$7,0*
20,1,$1+$1,$6,$7,$8,$9,0*
20,1,$1+$1,$8,$9,$2,$3,0*%
G04 Aperture macros list end*
%ADD10RoundRect,0.237500X-0.250000X-0.237500X0.250000X-0.237500X0.250000X0.237500X-0.250000X0.237500X0*%
%ADD11R,1.350000X1.350000*%
%ADD12O,1.350000X1.350000*%
%ADD13C,2.082800*%
%ADD14RoundRect,0.101600X-0.549910X-0.499110X0.549910X-0.499110X0.549910X0.499110X-0.549910X0.499110X0*%
%ADD15C,1.650000*%
%ADD16R,1.650000X1.650000*%
%ADD17C,1.446000*%
%ADD18C,3.015000*%
%ADD19R,1.970000X0.600000*%
%ADD20RoundRect,0.237500X-0.300000X-0.237500X0.300000X-0.237500X0.300000X0.237500X-0.300000X0.237500X0*%
%ADD21RoundRect,0.237500X0.250000X0.237500X-0.250000X0.237500X-0.250000X-0.237500X0.250000X-0.237500X0*%
%ADD22C,0.800000*%
G04 APERTURE END LIST*
D10*
%TO.C,R9*%
X51287500Y-47480000D03*
X53112500Y-47480000D03*
%TD*%
%TO.C,R8*%
X55477500Y-43080000D03*
X57302500Y-43080000D03*
%TD*%
D11*
%TO.C,J2*%
X40070000Y-51340000D03*
D12*
X42070000Y-51340000D03*
%TD*%
D13*
%TO.C,GREEN1*%
X39630000Y-27800000D03*
X42170000Y-27800000D03*
%TD*%
D14*
%TO.C,R12*%
X40530000Y-35800000D03*
X42226720Y-35800000D03*
%TD*%
D13*
%TO.C,RED1*%
X39790000Y-22900000D03*
X42330000Y-22900000D03*
%TD*%
D15*
%TO.C,U2*%
X33360000Y-35840000D03*
D16*
X30180000Y-35810000D03*
D15*
X36450000Y-35790000D03*
X33360000Y-37840000D03*
X30180000Y-37810000D03*
X36450000Y-37790000D03*
X33350000Y-39860000D03*
X30170000Y-39830000D03*
X36440000Y-39810000D03*
%TD*%
D11*
%TO.C,J3*%
X46610000Y-51340000D03*
D12*
X48610000Y-51340000D03*
%TD*%
D10*
%TO.C,R4*%
X29050000Y-43310000D03*
X30875000Y-43310000D03*
%TD*%
%TO.C,R2*%
X24710000Y-47570000D03*
X26535000Y-47570000D03*
%TD*%
%TO.C,R3*%
X29040000Y-47580000D03*
X30865000Y-47580000D03*
%TD*%
D17*
%TO.C,J5*%
X49930000Y-31623732D03*
X52470000Y-31623732D03*
D18*
X57550000Y-26543732D03*
X47390000Y-26543732D03*
%TD*%
D19*
%TO.C,U1*%
X39510000Y-42205000D03*
X39510000Y-43475000D03*
X39510000Y-44745000D03*
X39510000Y-46015000D03*
X44450000Y-46015000D03*
X44450000Y-44745000D03*
X44450000Y-43475000D03*
X44450000Y-42205000D03*
%TD*%
D10*
%TO.C,R7*%
X54837500Y-51630000D03*
X56662500Y-51630000D03*
%TD*%
D14*
%TO.C,R1*%
X40581640Y-32520000D03*
X42278360Y-32520000D03*
%TD*%
D10*
%TO.C,R11*%
X51287500Y-43080000D03*
X53112500Y-43080000D03*
%TD*%
%TO.C,R10*%
X55467500Y-47480000D03*
X57292500Y-47480000D03*
%TD*%
%TO.C,R6*%
X26570000Y-51660000D03*
X28395000Y-51660000D03*
%TD*%
D17*
%TO.C,J4*%
X26560000Y-31663732D03*
X29100000Y-31663732D03*
D18*
X34180000Y-26583732D03*
X24020000Y-26583732D03*
%TD*%
D20*
%TO.C,C1*%
X40937500Y-48260000D03*
X42662500Y-48260000D03*
%TD*%
D11*
%TO.C,J1*%
X33530000Y-51340000D03*
D12*
X35530000Y-51340000D03*
%TD*%
D21*
%TO.C,R5*%
X26535000Y-43290000D03*
X24710000Y-43290000D03*
%TD*%
D22*
X47910000Y-47560000D03*
X46690000Y-41280000D03*
X26670000Y-45520000D03*
X35000000Y-48310000D03*
X55550000Y-49150000D03*
X25140000Y-41610000D03*
X30120000Y-49800000D03*
X21680000Y-37730000D03*
X30080000Y-51690000D03*
X53210000Y-51280000D03*
X27450000Y-41820000D03*
X34100000Y-46380000D03*
X49460000Y-46050000D03*
X32030000Y-44810000D03*
X35330000Y-44810000D03*
X30910000Y-41640000D03*
X50320000Y-40990000D03*
X58300000Y-38070000D03*
X52620000Y-41080000D03*
X48235000Y-40905000D03*
X53112500Y-44737500D03*
X57040000Y-44950000D03*
X45540000Y-34950000D03*
X41450000Y-30910000D03*
X22840000Y-35000000D03*
X27250000Y-39660000D03*
X41390000Y-37260000D03*
X41520000Y-38840000D03*
M02*
