%TF.GenerationSoftware,KiCad,Pcbnew,(5.99.0-9773-gf428ce03f2)*%
%TF.CreationDate,2021-05-10T10:20:15-04:00*%
%TF.ProjectId,D5XAMP_v4,44355841-4d50-45f7-9634-2e6b69636164,rev?*%
%TF.SameCoordinates,Original*%
%TF.FileFunction,Copper,L2,Bot*%
%TF.FilePolarity,Positive*%
%FSLAX46Y46*%
G04 Gerber Fmt 4.6, Leading zero omitted, Abs format (unit mm)*
G04 Created by KiCad (PCBNEW (5.99.0-9773-gf428ce03f2)) date 2021-05-10 10:20:15*
%MOMM*%
%LPD*%
G01*
G04 APERTURE LIST*
%TA.AperFunction,ComponentPad*%
%ADD10R,1.350000X1.350000*%
%TD*%
%TA.AperFunction,ComponentPad*%
%ADD11O,1.350000X1.350000*%
%TD*%
%TA.AperFunction,ComponentPad*%
%ADD12C,1.879600*%
%TD*%
%TA.AperFunction,ComponentPad*%
%ADD13C,1.650000*%
%TD*%
%TA.AperFunction,ComponentPad*%
%ADD14R,1.650000X1.650000*%
%TD*%
%TA.AperFunction,ComponentPad*%
%ADD15C,1.446000*%
%TD*%
%TA.AperFunction,ComponentPad*%
%ADD16C,3.015000*%
%TD*%
%TA.AperFunction,ViaPad*%
%ADD17C,0.800000*%
%TD*%
%TA.AperFunction,Conductor*%
%ADD18C,0.250000*%
%TD*%
G04 APERTURE END LIST*
D10*
%TO.P,J2,1,Pin_1*%
%TO.N,GND*%
X40070000Y-51340000D03*
D11*
%TO.P,J2,2,Pin_2*%
%TO.N,PWR*%
X42070000Y-51340000D03*
%TD*%
D12*
%TO.P,GREEN1,1,K*%
%TO.N,GND*%
X39630000Y-27800000D03*
%TO.P,GREEN1,2,A*%
%TO.N,Net-(GREEN1-Pad2)*%
X42170000Y-27800000D03*
%TD*%
%TO.P,RED1,1,K*%
%TO.N,GND*%
X39790000Y-22900000D03*
%TO.P,RED1,2,A*%
%TO.N,Net-(RED1-Pad2)*%
X42330000Y-22900000D03*
%TD*%
D13*
%TO.P,U2,1,1*%
%TO.N,Net-(R7-Pad2)*%
X33360000Y-35840000D03*
D14*
%TO.P,U2,2,2*%
%TO.N,Net-(R9-Pad1)*%
X30180000Y-35810000D03*
D13*
%TO.P,U2,3,3*%
%TO.N,Net-(R11-Pad1)*%
X36450000Y-35790000D03*
%TO.P,U2,4,4*%
%TO.N,Net-(R6-Pad1)*%
X33360000Y-37840000D03*
%TO.P,U2,5,5*%
%TO.N,Net-(R2-Pad1)*%
X30180000Y-37810000D03*
%TO.P,U2,6,6*%
%TO.N,Net-(R4-Pad1)*%
X36450000Y-37790000D03*
%TO.P,U2,7,4*%
%TO.N,PWR*%
X33350000Y-39860000D03*
%TO.P,U2,8,5*%
%TO.N,RED*%
X30170000Y-39830000D03*
%TO.P,U2,9,6*%
%TO.N,GREEN*%
X36440000Y-39810000D03*
%TD*%
D10*
%TO.P,J3,1,Pin_1*%
%TO.N,GND*%
X46610000Y-51340000D03*
D11*
%TO.P,J3,2,Pin_2*%
%TO.N,Output 2*%
X48610000Y-51340000D03*
%TD*%
D15*
%TO.P,J5,1,In*%
%TO.N,GND*%
X49930000Y-31623732D03*
%TO.P,J5,2,Ext*%
%TO.N,Input 2*%
X52470000Y-31623732D03*
D16*
%TO.P,J5,3*%
%TO.N,N/C*%
X57550000Y-26543732D03*
%TO.P,J5,4*%
X47390000Y-26543732D03*
%TD*%
D15*
%TO.P,J4,1,In*%
%TO.N,GND*%
X26560000Y-31663732D03*
%TO.P,J4,2,Ext*%
%TO.N,Input 1*%
X29100000Y-31663732D03*
D16*
%TO.P,J4,3*%
%TO.N,N/C*%
X34180000Y-26583732D03*
%TO.P,J4,4*%
X24020000Y-26583732D03*
%TD*%
D10*
%TO.P,J1,1,Pin_1*%
%TO.N,GND*%
X33530000Y-51340000D03*
D11*
%TO.P,J1,2,Pin_2*%
%TO.N,Output 1*%
X35530000Y-51340000D03*
%TD*%
D17*
%TO.N,PWR*%
X47910000Y-47560000D03*
X46690000Y-41280000D03*
%TO.N,GND*%
X26670000Y-45520000D03*
X35000000Y-48310000D03*
X55550000Y-49150000D03*
X25140000Y-41610000D03*
X30120000Y-49800000D03*
X21680000Y-37730000D03*
%TO.N,Output 1*%
X30080000Y-51690000D03*
%TO.N,Output 2*%
X53210000Y-51280000D03*
%TO.N,Input 1*%
X27450000Y-41820000D03*
X34100000Y-46380000D03*
%TO.N,Input 2*%
X49460000Y-46050000D03*
%TO.N,Net-(R2-Pad2)*%
X32030000Y-44810000D03*
X35330000Y-44810000D03*
%TO.N,Net-(R4-Pad1)*%
X30910000Y-41640000D03*
%TO.N,Net-(R7-Pad2)*%
X50320000Y-40990000D03*
X58300000Y-38070000D03*
X52620000Y-41080000D03*
X48235000Y-40905000D03*
%TO.N,Net-(R10-Pad2)*%
X53112500Y-44737500D03*
X57040000Y-44950000D03*
%TO.N,Net-(GREEN1-Pad2)*%
X45540000Y-34950000D03*
%TO.N,Net-(RED1-Pad2)*%
X41450000Y-30910000D03*
%TO.N,RED*%
X22840000Y-35000000D03*
X27250000Y-39660000D03*
%TO.N,GREEN*%
X41390000Y-37260000D03*
X41520000Y-38840000D03*
%TD*%
D18*
%TO.N,PWR*%
X47910000Y-47560000D02*
X47910000Y-42500000D01*
X47910000Y-42500000D02*
X46690000Y-41280000D01*
X31930000Y-38880000D02*
X31930000Y-34860000D01*
X43820000Y-34300000D02*
X46690000Y-37170000D01*
X32910000Y-39860000D02*
X31930000Y-38880000D01*
X32490000Y-34300000D02*
X43820000Y-34300000D01*
X46690000Y-37170000D02*
X46690000Y-41280000D01*
X31930000Y-34860000D02*
X32490000Y-34300000D01*
X33350000Y-39860000D02*
X32910000Y-39860000D01*
%TO.N,GND*%
X26670000Y-45520000D02*
X27920000Y-46770000D01*
X47590000Y-49150000D02*
X55550000Y-49150000D01*
X46610000Y-50130000D02*
X47590000Y-49150000D01*
X21680000Y-38150000D02*
X21680000Y-37730000D01*
X31610000Y-48310000D02*
X35000000Y-48310000D01*
X28740000Y-49800000D02*
X30120000Y-49800000D01*
X30120000Y-49800000D02*
X31610000Y-48310000D01*
X25140000Y-41610000D02*
X21680000Y-38150000D01*
X27920000Y-48980000D02*
X28740000Y-49800000D01*
X46610000Y-51340000D02*
X46610000Y-50130000D01*
X27920000Y-46770000D02*
X27920000Y-48980000D01*
%TO.N,Output 1*%
X30080000Y-51690000D02*
X30080000Y-51940000D01*
X30080000Y-51940000D02*
X31570000Y-53430000D01*
X35530000Y-53390000D02*
X35530000Y-51340000D01*
X31570000Y-53430000D02*
X35490000Y-53430000D01*
X35490000Y-53430000D02*
X35530000Y-53390000D01*
%TO.N,Output 2*%
X53150000Y-51340000D02*
X53210000Y-51280000D01*
X48610000Y-51340000D02*
X53150000Y-51340000D01*
%TO.N,Input 1*%
X27450000Y-44050000D02*
X27450000Y-41820000D01*
X34100000Y-46380000D02*
X29780000Y-46380000D01*
X28310000Y-32453732D02*
X28310000Y-40960000D01*
X29780000Y-46380000D02*
X27450000Y-44050000D01*
X28310000Y-40960000D02*
X27450000Y-41820000D01*
X29100000Y-31663732D02*
X28310000Y-32453732D01*
%TO.N,Input 2*%
X53370000Y-34290000D02*
X53810000Y-33850000D01*
X49460000Y-46050000D02*
X49470000Y-46040000D01*
X53810000Y-33850000D02*
X53810000Y-32963732D01*
X51300000Y-34290000D02*
X53370000Y-34290000D01*
X53810000Y-32963732D02*
X52470000Y-31623732D01*
X49470000Y-36120000D02*
X51300000Y-34290000D01*
X49470000Y-46040000D02*
X49470000Y-36120000D01*
%TO.N,Net-(R2-Pad2)*%
X35330000Y-44810000D02*
X35360000Y-44810000D01*
X32030000Y-44810000D02*
X35330000Y-44810000D01*
%TO.N,Net-(R4-Pad1)*%
X38650000Y-37790000D02*
X36450000Y-37790000D01*
X36980000Y-41640000D02*
X38670000Y-39950000D01*
X30910000Y-41640000D02*
X36980000Y-41640000D01*
X38670000Y-37810000D02*
X38650000Y-37790000D01*
X38670000Y-39950000D02*
X38670000Y-37810000D01*
%TO.N,Net-(R7-Pad2)*%
X58300000Y-38070000D02*
X55630000Y-38070000D01*
X55630000Y-38070000D02*
X52620000Y-41080000D01*
X52620000Y-41080000D02*
X50410000Y-41080000D01*
X50410000Y-41080000D02*
X50320000Y-40990000D01*
%TO.N,Net-(R10-Pad2)*%
X56827500Y-44737500D02*
X57040000Y-44950000D01*
X53112500Y-44737500D02*
X56827500Y-44737500D01*
%TO.N,Net-(GREEN1-Pad2)*%
X45540000Y-34950000D02*
X45540000Y-31170000D01*
X45540000Y-31170000D02*
X42170000Y-27800000D01*
%TO.N,Net-(RED1-Pad2)*%
X38020000Y-29530000D02*
X38020000Y-21170000D01*
X38500000Y-20690000D02*
X42060000Y-20690000D01*
X39400000Y-30910000D02*
X38020000Y-29530000D01*
X41450000Y-30910000D02*
X39400000Y-30910000D01*
X42330000Y-20960000D02*
X42330000Y-22900000D01*
X42060000Y-20690000D02*
X42330000Y-20960000D01*
X38020000Y-21170000D02*
X38500000Y-20690000D01*
%TO.N,RED*%
X22720000Y-35120000D02*
X22840000Y-35000000D01*
X25870000Y-39660000D02*
X22720000Y-36510000D01*
X27250000Y-39660000D02*
X25870000Y-39660000D01*
X22720000Y-36510000D02*
X22720000Y-35120000D01*
%TO.N,GREEN*%
X41520000Y-37390000D02*
X41390000Y-37260000D01*
X41520000Y-38840000D02*
X41520000Y-37390000D01*
%TD*%
M02*
