%TF.GenerationSoftware,KiCad,Pcbnew,(5.99.0-9773-gf428ce03f2)*%
%TF.CreationDate,2021-05-10T10:20:16-04:00*%
%TF.ProjectId,D5XAMP_v4,44355841-4d50-45f7-9634-2e6b69636164,rev?*%
%TF.SameCoordinates,Original*%
%TF.FileFunction,Legend,Bot*%
%TF.FilePolarity,Positive*%
%FSLAX46Y46*%
G04 Gerber Fmt 4.6, Leading zero omitted, Abs format (unit mm)*
G04 Created by KiCad (PCBNEW (5.99.0-9773-gf428ce03f2)) date 2021-05-10 10:20:16*
%MOMM*%
%LPD*%
G01*
G04 APERTURE LIST*
%ADD10C,0.300000*%
%ADD11C,0.010000*%
G04 APERTURE END LIST*
D10*
%TO.C,G\u002A\u002A\u002A*%
X42760571Y-41132000D02*
X42905714Y-41059428D01*
X43123428Y-41059428D01*
X43341142Y-41132000D01*
X43486285Y-41277142D01*
X43558857Y-41422285D01*
X43631428Y-41712571D01*
X43631428Y-41930285D01*
X43558857Y-42220571D01*
X43486285Y-42365714D01*
X43341142Y-42510857D01*
X43123428Y-42583428D01*
X42978285Y-42583428D01*
X42760571Y-42510857D01*
X42688000Y-42438285D01*
X42688000Y-41930285D01*
X42978285Y-41930285D01*
X41817142Y-41059428D02*
X41817142Y-41422285D01*
X42180000Y-41277142D02*
X41817142Y-41422285D01*
X41454285Y-41277142D01*
X42034857Y-41712571D02*
X41817142Y-41422285D01*
X41599428Y-41712571D01*
X40656000Y-41059428D02*
X40656000Y-41422285D01*
X41018857Y-41277142D02*
X40656000Y-41422285D01*
X40293142Y-41277142D01*
X40873714Y-41712571D02*
X40656000Y-41422285D01*
X40438285Y-41712571D01*
X39494857Y-41059428D02*
X39494857Y-41422285D01*
X39857714Y-41277142D02*
X39494857Y-41422285D01*
X39132000Y-41277142D01*
X39712571Y-41712571D02*
X39494857Y-41422285D01*
X39277142Y-41712571D01*
D11*
X38316526Y-41762847D02*
X39148023Y-41762847D01*
X39148023Y-41762847D02*
X39517862Y-41765434D01*
X39517862Y-41765434D02*
X39796605Y-41775806D01*
X39796605Y-41775806D02*
X39999999Y-41797875D01*
X39999999Y-41797875D02*
X40143793Y-41835554D01*
X40143793Y-41835554D02*
X40243733Y-41892756D01*
X40243733Y-41892756D02*
X40315566Y-41973394D01*
X40315566Y-41973394D02*
X40367566Y-42065892D01*
X40367566Y-42065892D02*
X40419391Y-42199517D01*
X40419391Y-42199517D02*
X40418840Y-42312694D01*
X40418840Y-42312694D02*
X40362645Y-42445416D01*
X40362645Y-42445416D02*
X40332200Y-42498848D01*
X40332200Y-42498848D02*
X40271656Y-42578260D01*
X40271656Y-42578260D02*
X40186593Y-42637037D01*
X40186593Y-42637037D02*
X40061673Y-42678104D01*
X40061673Y-42678104D02*
X39881557Y-42704385D01*
X39881557Y-42704385D02*
X39630909Y-42718804D01*
X39630909Y-42718804D02*
X39294389Y-42724287D01*
X39294389Y-42724287D02*
X39148023Y-42724637D01*
X39148023Y-42724637D02*
X38316526Y-42724637D01*
X38316526Y-42724637D02*
X38316526Y-43380403D01*
X38316526Y-43380403D02*
X39132000Y-43377452D01*
X39132000Y-43377452D02*
X39473226Y-43372338D01*
X39473226Y-43372338D02*
X39778781Y-43360383D01*
X39778781Y-43360383D02*
X40025497Y-43342850D01*
X40025497Y-43342850D02*
X40190207Y-43321004D01*
X40190207Y-43321004D02*
X40198489Y-43319253D01*
X40198489Y-43319253D02*
X40363475Y-43277794D01*
X40363475Y-43277794D02*
X40494835Y-43227067D01*
X40494835Y-43227067D02*
X40629525Y-43149370D01*
X40629525Y-43149370D02*
X40796447Y-43032847D01*
X40796447Y-43032847D02*
X41009447Y-42823431D01*
X41009447Y-42823431D02*
X41141728Y-42573866D01*
X41141728Y-42573866D02*
X41193575Y-42301097D01*
X41193575Y-42301097D02*
X41165271Y-42022065D01*
X41165271Y-42022065D02*
X41057101Y-41753713D01*
X41057101Y-41753713D02*
X40869350Y-41512983D01*
X40869350Y-41512983D02*
X40769495Y-41426250D01*
X40769495Y-41426250D02*
X40632280Y-41328198D01*
X40632280Y-41328198D02*
X40495454Y-41254178D01*
X40495454Y-41254178D02*
X40340716Y-41200475D01*
X40340716Y-41200475D02*
X40149762Y-41163377D01*
X40149762Y-41163377D02*
X39904289Y-41139168D01*
X39904289Y-41139168D02*
X39585994Y-41124136D01*
X39585994Y-41124136D02*
X39238947Y-41115695D01*
X39238947Y-41115695D02*
X38316526Y-41098429D01*
X38316526Y-41098429D02*
X38316526Y-41762847D01*
G36*
X39238947Y-41115695D02*
G01*
X39585994Y-41124136D01*
X39904289Y-41139168D01*
X40149762Y-41163377D01*
X40340716Y-41200475D01*
X40495454Y-41254178D01*
X40632280Y-41328198D01*
X40769495Y-41426250D01*
X40869350Y-41512983D01*
X41057101Y-41753713D01*
X41165271Y-42022065D01*
X41193575Y-42301097D01*
X41141728Y-42573866D01*
X41009447Y-42823431D01*
X40796447Y-43032847D01*
X40629525Y-43149370D01*
X40494835Y-43227067D01*
X40363475Y-43277794D01*
X40198489Y-43319253D01*
X40190207Y-43321004D01*
X40025497Y-43342850D01*
X39778781Y-43360383D01*
X39473226Y-43372338D01*
X39132000Y-43377452D01*
X38316526Y-43380403D01*
X38316526Y-42724637D01*
X39148023Y-42724637D01*
X39294389Y-42724287D01*
X39630909Y-42718804D01*
X39881557Y-42704385D01*
X40061673Y-42678104D01*
X40186593Y-42637037D01*
X40271656Y-42578260D01*
X40332200Y-42498848D01*
X40362645Y-42445416D01*
X40418840Y-42312694D01*
X40419391Y-42199517D01*
X40367566Y-42065892D01*
X40315566Y-41973394D01*
X40243733Y-41892756D01*
X40143793Y-41835554D01*
X39999999Y-41797875D01*
X39796605Y-41775806D01*
X39517862Y-41765434D01*
X39148023Y-41762847D01*
X38316526Y-41762847D01*
X38316526Y-41098429D01*
X39238947Y-41115695D01*
G37*
X39238947Y-41115695D02*
X39585994Y-41124136D01*
X39904289Y-41139168D01*
X40149762Y-41163377D01*
X40340716Y-41200475D01*
X40495454Y-41254178D01*
X40632280Y-41328198D01*
X40769495Y-41426250D01*
X40869350Y-41512983D01*
X41057101Y-41753713D01*
X41165271Y-42022065D01*
X41193575Y-42301097D01*
X41141728Y-42573866D01*
X41009447Y-42823431D01*
X40796447Y-43032847D01*
X40629525Y-43149370D01*
X40494835Y-43227067D01*
X40363475Y-43277794D01*
X40198489Y-43319253D01*
X40190207Y-43321004D01*
X40025497Y-43342850D01*
X39778781Y-43360383D01*
X39473226Y-43372338D01*
X39132000Y-43377452D01*
X38316526Y-43380403D01*
X38316526Y-42724637D01*
X39148023Y-42724637D01*
X39294389Y-42724287D01*
X39630909Y-42718804D01*
X39881557Y-42704385D01*
X40061673Y-42678104D01*
X40186593Y-42637037D01*
X40271656Y-42578260D01*
X40332200Y-42498848D01*
X40362645Y-42445416D01*
X40418840Y-42312694D01*
X40419391Y-42199517D01*
X40367566Y-42065892D01*
X40315566Y-41973394D01*
X40243733Y-41892756D01*
X40143793Y-41835554D01*
X39999999Y-41797875D01*
X39796605Y-41775806D01*
X39517862Y-41765434D01*
X39148023Y-41762847D01*
X38316526Y-41762847D01*
X38316526Y-41098429D01*
X39238947Y-41115695D01*
X44082401Y-41074293D02*
X43886379Y-41125308D01*
X43886379Y-41125308D02*
X43808844Y-41176904D01*
X43808844Y-41176904D02*
X43676633Y-41285342D01*
X43676633Y-41285342D02*
X43502290Y-41439458D01*
X43502290Y-41439458D02*
X43298361Y-41628087D01*
X43298361Y-41628087D02*
X43077389Y-41840067D01*
X43077389Y-41840067D02*
X43020087Y-41896255D01*
X43020087Y-41896255D02*
X42300315Y-42605257D01*
X42300315Y-42605257D02*
X42273578Y-41867098D01*
X42273578Y-41867098D02*
X42246842Y-41128940D01*
X42246842Y-41128940D02*
X41855580Y-41116036D01*
X41855580Y-41116036D02*
X41464319Y-41103132D01*
X41464319Y-41103132D02*
X41481264Y-42131562D01*
X41481264Y-42131562D02*
X41498210Y-43159993D01*
X41498210Y-43159993D02*
X41637104Y-43273463D01*
X41637104Y-43273463D02*
X41822954Y-43369512D01*
X41822954Y-43369512D02*
X42052549Y-43409781D01*
X42052549Y-43409781D02*
X42281664Y-43388222D01*
X42281664Y-43388222D02*
X42341078Y-43369774D01*
X42341078Y-43369774D02*
X42404816Y-43336955D01*
X42404816Y-43336955D02*
X42493624Y-43274329D01*
X42493624Y-43274329D02*
X42614007Y-43176082D01*
X42614007Y-43176082D02*
X42772469Y-43036399D01*
X42772469Y-43036399D02*
X42975516Y-42849465D01*
X42975516Y-42849465D02*
X43229653Y-42609466D01*
X43229653Y-42609466D02*
X43541383Y-42310587D01*
X43541383Y-42310587D02*
X43732636Y-42125875D01*
X43732636Y-42125875D02*
X43877393Y-41992157D01*
X43877393Y-41992157D02*
X43998915Y-41891636D01*
X43998915Y-41891636D02*
X44080045Y-41837919D01*
X44080045Y-41837919D02*
X44101455Y-41833360D01*
X44101455Y-41833360D02*
X44115668Y-41882182D01*
X44115668Y-41882182D02*
X44127948Y-42003874D01*
X44127948Y-42003874D02*
X44137486Y-42183877D01*
X44137486Y-42183877D02*
X44143471Y-42407631D01*
X44143471Y-42407631D02*
X44145157Y-42617922D01*
X44145157Y-42617922D02*
X44145157Y-43380403D01*
X44145157Y-43380403D02*
X44893789Y-43380403D01*
X44893789Y-43380403D02*
X44893789Y-42421459D01*
X44893789Y-42421459D02*
X44891466Y-42133994D01*
X44891466Y-42133994D02*
X44884970Y-41870502D01*
X44884970Y-41870502D02*
X44875007Y-41645500D01*
X44875007Y-41645500D02*
X44862283Y-41473508D01*
X44862283Y-41473508D02*
X44847506Y-41369046D01*
X44847506Y-41369046D02*
X44841648Y-41350394D01*
X44841648Y-41350394D02*
X44727391Y-41218158D01*
X44727391Y-41218158D02*
X44542798Y-41123358D01*
X44542798Y-41123358D02*
X44317818Y-41073051D01*
X44317818Y-41073051D02*
X44082401Y-41074293D01*
G36*
X44542798Y-41123358D02*
G01*
X44727391Y-41218158D01*
X44841648Y-41350394D01*
X44847506Y-41369046D01*
X44862283Y-41473508D01*
X44875007Y-41645500D01*
X44884970Y-41870502D01*
X44891466Y-42133994D01*
X44893789Y-42421459D01*
X44893789Y-43380403D01*
X44145157Y-43380403D01*
X44145157Y-42617922D01*
X44143471Y-42407631D01*
X44137486Y-42183877D01*
X44127948Y-42003874D01*
X44115668Y-41882182D01*
X44101455Y-41833360D01*
X44080045Y-41837919D01*
X43998915Y-41891636D01*
X43877393Y-41992157D01*
X43732636Y-42125875D01*
X43541383Y-42310587D01*
X43229653Y-42609466D01*
X42975516Y-42849465D01*
X42772469Y-43036399D01*
X42614007Y-43176082D01*
X42493624Y-43274329D01*
X42404816Y-43336955D01*
X42341078Y-43369774D01*
X42281664Y-43388222D01*
X42052549Y-43409781D01*
X41822954Y-43369512D01*
X41637104Y-43273463D01*
X41498210Y-43159993D01*
X41481264Y-42131562D01*
X41464319Y-41103132D01*
X41855580Y-41116036D01*
X42246842Y-41128940D01*
X42273578Y-41867098D01*
X42300315Y-42605257D01*
X43020087Y-41896255D01*
X43077389Y-41840067D01*
X43298361Y-41628087D01*
X43502290Y-41439458D01*
X43676633Y-41285342D01*
X43808844Y-41176904D01*
X43886379Y-41125308D01*
X44082401Y-41074293D01*
X44317818Y-41073051D01*
X44542798Y-41123358D01*
G37*
X44542798Y-41123358D02*
X44727391Y-41218158D01*
X44841648Y-41350394D01*
X44847506Y-41369046D01*
X44862283Y-41473508D01*
X44875007Y-41645500D01*
X44884970Y-41870502D01*
X44891466Y-42133994D01*
X44893789Y-42421459D01*
X44893789Y-43380403D01*
X44145157Y-43380403D01*
X44145157Y-42617922D01*
X44143471Y-42407631D01*
X44137486Y-42183877D01*
X44127948Y-42003874D01*
X44115668Y-41882182D01*
X44101455Y-41833360D01*
X44080045Y-41837919D01*
X43998915Y-41891636D01*
X43877393Y-41992157D01*
X43732636Y-42125875D01*
X43541383Y-42310587D01*
X43229653Y-42609466D01*
X42975516Y-42849465D01*
X42772469Y-43036399D01*
X42614007Y-43176082D01*
X42493624Y-43274329D01*
X42404816Y-43336955D01*
X42341078Y-43369774D01*
X42281664Y-43388222D01*
X42052549Y-43409781D01*
X41822954Y-43369512D01*
X41637104Y-43273463D01*
X41498210Y-43159993D01*
X41481264Y-42131562D01*
X41464319Y-41103132D01*
X41855580Y-41116036D01*
X42246842Y-41128940D01*
X42273578Y-41867098D01*
X42300315Y-42605257D01*
X43020087Y-41896255D01*
X43077389Y-41840067D01*
X43298361Y-41628087D01*
X43502290Y-41439458D01*
X43676633Y-41285342D01*
X43808844Y-41176904D01*
X43886379Y-41125308D01*
X44082401Y-41074293D01*
X44317818Y-41073051D01*
X44542798Y-41123358D01*
X33494611Y-41074293D02*
X33298589Y-41125308D01*
X33298589Y-41125308D02*
X33221054Y-41176904D01*
X33221054Y-41176904D02*
X33088843Y-41285342D01*
X33088843Y-41285342D02*
X32914501Y-41439458D01*
X32914501Y-41439458D02*
X32710572Y-41628087D01*
X32710572Y-41628087D02*
X32489600Y-41840067D01*
X32489600Y-41840067D02*
X32432298Y-41896255D01*
X32432298Y-41896255D02*
X31712526Y-42605257D01*
X31712526Y-42605257D02*
X31685789Y-41867098D01*
X31685789Y-41867098D02*
X31659052Y-41128940D01*
X31659052Y-41128940D02*
X31267791Y-41116036D01*
X31267791Y-41116036D02*
X30876529Y-41103132D01*
X30876529Y-41103132D02*
X30893475Y-42131562D01*
X30893475Y-42131562D02*
X30910421Y-43159993D01*
X30910421Y-43159993D02*
X31049314Y-43273463D01*
X31049314Y-43273463D02*
X31241344Y-43373379D01*
X31241344Y-43373379D02*
X31473363Y-43410846D01*
X31473363Y-43410846D02*
X31704909Y-43381026D01*
X31704909Y-43381026D02*
X31766000Y-43359182D01*
X31766000Y-43359182D02*
X31847174Y-43306681D01*
X31847174Y-43306681D02*
X31984246Y-43197750D01*
X31984246Y-43197750D02*
X32164733Y-43043185D01*
X32164733Y-43043185D02*
X32376156Y-42853787D01*
X32376156Y-42853787D02*
X32606032Y-42640352D01*
X32606032Y-42640352D02*
X32699096Y-42551872D01*
X32699096Y-42551872D02*
X32924340Y-42338930D01*
X32924340Y-42338930D02*
X33127557Y-42151909D01*
X33127557Y-42151909D02*
X33298322Y-41999989D01*
X33298322Y-41999989D02*
X33426212Y-41892347D01*
X33426212Y-41892347D02*
X33500801Y-41838163D01*
X33500801Y-41838163D02*
X33514570Y-41833817D01*
X33514570Y-41833817D02*
X33528488Y-41882484D01*
X33528488Y-41882484D02*
X33540514Y-42004034D01*
X33540514Y-42004034D02*
X33549854Y-42183917D01*
X33549854Y-42183917D02*
X33555715Y-42407585D01*
X33555715Y-42407585D02*
X33557368Y-42617922D01*
X33557368Y-42617922D02*
X33557368Y-43380403D01*
X33557368Y-43380403D02*
X34306000Y-43380403D01*
X34306000Y-43380403D02*
X34306000Y-42421459D01*
X34306000Y-42421459D02*
X34303677Y-42133994D01*
X34303677Y-42133994D02*
X34297181Y-41870502D01*
X34297181Y-41870502D02*
X34287217Y-41645500D01*
X34287217Y-41645500D02*
X34274493Y-41473508D01*
X34274493Y-41473508D02*
X34259716Y-41369046D01*
X34259716Y-41369046D02*
X34253859Y-41350394D01*
X34253859Y-41350394D02*
X34139601Y-41218158D01*
X34139601Y-41218158D02*
X33955009Y-41123358D01*
X33955009Y-41123358D02*
X33730029Y-41073051D01*
X33730029Y-41073051D02*
X33494611Y-41074293D01*
G36*
X33955009Y-41123358D02*
G01*
X34139601Y-41218158D01*
X34253859Y-41350394D01*
X34259716Y-41369046D01*
X34274493Y-41473508D01*
X34287217Y-41645500D01*
X34297181Y-41870502D01*
X34303677Y-42133994D01*
X34306000Y-42421459D01*
X34306000Y-43380403D01*
X33557368Y-43380403D01*
X33557368Y-42617922D01*
X33555715Y-42407585D01*
X33549854Y-42183917D01*
X33540514Y-42004034D01*
X33528488Y-41882484D01*
X33514570Y-41833817D01*
X33500801Y-41838163D01*
X33426212Y-41892347D01*
X33298322Y-41999989D01*
X33127557Y-42151909D01*
X32924340Y-42338930D01*
X32699096Y-42551872D01*
X32606032Y-42640352D01*
X32376156Y-42853787D01*
X32164733Y-43043185D01*
X31984246Y-43197750D01*
X31847174Y-43306681D01*
X31766000Y-43359182D01*
X31704909Y-43381026D01*
X31473363Y-43410846D01*
X31241344Y-43373379D01*
X31049314Y-43273463D01*
X30910421Y-43159993D01*
X30893475Y-42131562D01*
X30876529Y-41103132D01*
X31267791Y-41116036D01*
X31659052Y-41128940D01*
X31685789Y-41867098D01*
X31712526Y-42605257D01*
X32432298Y-41896255D01*
X32489600Y-41840067D01*
X32710572Y-41628087D01*
X32914501Y-41439458D01*
X33088843Y-41285342D01*
X33221054Y-41176904D01*
X33298589Y-41125308D01*
X33494611Y-41074293D01*
X33730029Y-41073051D01*
X33955009Y-41123358D01*
G37*
X33955009Y-41123358D02*
X34139601Y-41218158D01*
X34253859Y-41350394D01*
X34259716Y-41369046D01*
X34274493Y-41473508D01*
X34287217Y-41645500D01*
X34297181Y-41870502D01*
X34303677Y-42133994D01*
X34306000Y-42421459D01*
X34306000Y-43380403D01*
X33557368Y-43380403D01*
X33557368Y-42617922D01*
X33555715Y-42407585D01*
X33549854Y-42183917D01*
X33540514Y-42004034D01*
X33528488Y-41882484D01*
X33514570Y-41833817D01*
X33500801Y-41838163D01*
X33426212Y-41892347D01*
X33298322Y-41999989D01*
X33127557Y-42151909D01*
X32924340Y-42338930D01*
X32699096Y-42551872D01*
X32606032Y-42640352D01*
X32376156Y-42853787D01*
X32164733Y-43043185D01*
X31984246Y-43197750D01*
X31847174Y-43306681D01*
X31766000Y-43359182D01*
X31704909Y-43381026D01*
X31473363Y-43410846D01*
X31241344Y-43373379D01*
X31049314Y-43273463D01*
X30910421Y-43159993D01*
X30893475Y-42131562D01*
X30876529Y-41103132D01*
X31267791Y-41116036D01*
X31659052Y-41128940D01*
X31685789Y-41867098D01*
X31712526Y-42605257D01*
X32432298Y-41896255D01*
X32489600Y-41840067D01*
X32710572Y-41628087D01*
X32914501Y-41439458D01*
X33088843Y-41285342D01*
X33221054Y-41176904D01*
X33298589Y-41125308D01*
X33494611Y-41074293D01*
X33730029Y-41073051D01*
X33955009Y-41123358D01*
X36048458Y-41102693D02*
X35798245Y-41222515D01*
X35798245Y-41222515D02*
X35708664Y-41292432D01*
X35708664Y-41292432D02*
X35660022Y-41354614D01*
X35660022Y-41354614D02*
X35575686Y-41482681D01*
X35575686Y-41482681D02*
X35463722Y-41662739D01*
X35463722Y-41662739D02*
X35332195Y-41880891D01*
X35332195Y-41880891D02*
X35189170Y-42123243D01*
X35189170Y-42123243D02*
X35042712Y-42375897D01*
X35042712Y-42375897D02*
X34900887Y-42624958D01*
X34900887Y-42624958D02*
X34771759Y-42856532D01*
X34771759Y-42856532D02*
X34663394Y-43056721D01*
X34663394Y-43056721D02*
X34583857Y-43211631D01*
X34583857Y-43211631D02*
X34544789Y-43297712D01*
X34544789Y-43297712D02*
X34537175Y-43338618D01*
X34537175Y-43338618D02*
X34566586Y-43363255D01*
X34566586Y-43363255D02*
X34652707Y-43375697D01*
X34652707Y-43375697D02*
X34815225Y-43380015D01*
X34815225Y-43380015D02*
X34944513Y-43380403D01*
X34944513Y-43380403D02*
X35376339Y-43380403D01*
X35376339Y-43380403D02*
X35547507Y-43030661D01*
X35547507Y-43030661D02*
X37135812Y-43030661D01*
X37135812Y-43030661D02*
X37199896Y-43205532D01*
X37199896Y-43205532D02*
X37263981Y-43380403D01*
X37263981Y-43380403D02*
X37710043Y-43380403D01*
X37710043Y-43380403D02*
X37913336Y-43377033D01*
X37913336Y-43377033D02*
X38068086Y-43368052D01*
X38068086Y-43368052D02*
X38149512Y-43355152D01*
X38149512Y-43355152D02*
X38156105Y-43349934D01*
X38156105Y-43349934D02*
X38134842Y-43300415D01*
X38134842Y-43300415D02*
X38075959Y-43184887D01*
X38075959Y-43184887D02*
X37986816Y-43016666D01*
X37986816Y-43016666D02*
X37874772Y-42809069D01*
X37874772Y-42809069D02*
X37747185Y-42575412D01*
X37747185Y-42575412D02*
X37708965Y-42506048D01*
X37708965Y-42506048D02*
X36817702Y-42506048D01*
X36817702Y-42506048D02*
X36337219Y-42506048D01*
X36337219Y-42506048D02*
X36125974Y-42502676D01*
X36125974Y-42502676D02*
X35962865Y-42493645D01*
X35962865Y-42493645D02*
X35871541Y-42480579D01*
X35871541Y-42480579D02*
X35860156Y-42473260D01*
X35860156Y-42473260D02*
X35886057Y-42400381D01*
X35886057Y-42400381D02*
X35946685Y-42278444D01*
X35946685Y-42278444D02*
X36029312Y-42128973D01*
X36029312Y-42128973D02*
X36121210Y-41973488D01*
X36121210Y-41973488D02*
X36209653Y-41833513D01*
X36209653Y-41833513D02*
X36281911Y-41730570D01*
X36281911Y-41730570D02*
X36325257Y-41686181D01*
X36325257Y-41686181D02*
X36325688Y-41686053D01*
X36325688Y-41686053D02*
X36367428Y-41696254D01*
X36367428Y-41696254D02*
X36421475Y-41753233D01*
X36421475Y-41753233D02*
X36493516Y-41865907D01*
X36493516Y-41865907D02*
X36589244Y-42043190D01*
X36589244Y-42043190D02*
X36714349Y-42294001D01*
X36714349Y-42294001D02*
X36716488Y-42298389D01*
X36716488Y-42298389D02*
X36817702Y-42506048D01*
X36817702Y-42506048D02*
X37708965Y-42506048D01*
X37708965Y-42506048D02*
X37611415Y-42329012D01*
X37611415Y-42329012D02*
X37474821Y-42083187D01*
X37474821Y-42083187D02*
X37344763Y-41851253D01*
X37344763Y-41851253D02*
X37228598Y-41646526D01*
X37228598Y-41646526D02*
X37133688Y-41482325D01*
X37133688Y-41482325D02*
X37067389Y-41371964D01*
X37067389Y-41371964D02*
X37042104Y-41334080D01*
X37042104Y-41334080D02*
X36902112Y-41220112D01*
X36902112Y-41220112D02*
X36695733Y-41127720D01*
X36695733Y-41127720D02*
X36463269Y-41072389D01*
X36463269Y-41072389D02*
X36337474Y-41063363D01*
X36337474Y-41063363D02*
X36048458Y-41102693D01*
G36*
X37874772Y-42809069D02*
G01*
X37986816Y-43016666D01*
X38075959Y-43184887D01*
X38134842Y-43300415D01*
X38156105Y-43349934D01*
X38149512Y-43355152D01*
X38068086Y-43368052D01*
X37913336Y-43377033D01*
X37710043Y-43380403D01*
X37263981Y-43380403D01*
X37199896Y-43205532D01*
X37135812Y-43030661D01*
X35547507Y-43030661D01*
X35376339Y-43380403D01*
X34944513Y-43380403D01*
X34815225Y-43380015D01*
X34652707Y-43375697D01*
X34566586Y-43363255D01*
X34537175Y-43338618D01*
X34544789Y-43297712D01*
X34583857Y-43211631D01*
X34663394Y-43056721D01*
X34771759Y-42856532D01*
X34900887Y-42624958D01*
X34987270Y-42473260D01*
X35860156Y-42473260D01*
X35871541Y-42480579D01*
X35962865Y-42493645D01*
X36125974Y-42502676D01*
X36337219Y-42506048D01*
X36817702Y-42506048D01*
X36716488Y-42298389D01*
X36714349Y-42294001D01*
X36589244Y-42043190D01*
X36493516Y-41865907D01*
X36421475Y-41753233D01*
X36367428Y-41696254D01*
X36325688Y-41686053D01*
X36325257Y-41686181D01*
X36281911Y-41730570D01*
X36209653Y-41833513D01*
X36121210Y-41973488D01*
X36029312Y-42128973D01*
X35946685Y-42278444D01*
X35886057Y-42400381D01*
X35860156Y-42473260D01*
X34987270Y-42473260D01*
X35042712Y-42375897D01*
X35189170Y-42123243D01*
X35332195Y-41880891D01*
X35463722Y-41662739D01*
X35575686Y-41482681D01*
X35660022Y-41354614D01*
X35708664Y-41292432D01*
X35798245Y-41222515D01*
X36048458Y-41102693D01*
X36337474Y-41063363D01*
X36463269Y-41072389D01*
X36695733Y-41127720D01*
X36902112Y-41220112D01*
X37042104Y-41334080D01*
X37067389Y-41371964D01*
X37133688Y-41482325D01*
X37228598Y-41646526D01*
X37344763Y-41851253D01*
X37474821Y-42083187D01*
X37611415Y-42329012D01*
X37708965Y-42506048D01*
X37747185Y-42575412D01*
X37874772Y-42809069D01*
G37*
X37874772Y-42809069D02*
X37986816Y-43016666D01*
X38075959Y-43184887D01*
X38134842Y-43300415D01*
X38156105Y-43349934D01*
X38149512Y-43355152D01*
X38068086Y-43368052D01*
X37913336Y-43377033D01*
X37710043Y-43380403D01*
X37263981Y-43380403D01*
X37199896Y-43205532D01*
X37135812Y-43030661D01*
X35547507Y-43030661D01*
X35376339Y-43380403D01*
X34944513Y-43380403D01*
X34815225Y-43380015D01*
X34652707Y-43375697D01*
X34566586Y-43363255D01*
X34537175Y-43338618D01*
X34544789Y-43297712D01*
X34583857Y-43211631D01*
X34663394Y-43056721D01*
X34771759Y-42856532D01*
X34900887Y-42624958D01*
X34987270Y-42473260D01*
X35860156Y-42473260D01*
X35871541Y-42480579D01*
X35962865Y-42493645D01*
X36125974Y-42502676D01*
X36337219Y-42506048D01*
X36817702Y-42506048D01*
X36716488Y-42298389D01*
X36714349Y-42294001D01*
X36589244Y-42043190D01*
X36493516Y-41865907D01*
X36421475Y-41753233D01*
X36367428Y-41696254D01*
X36325688Y-41686053D01*
X36325257Y-41686181D01*
X36281911Y-41730570D01*
X36209653Y-41833513D01*
X36121210Y-41973488D01*
X36029312Y-42128973D01*
X35946685Y-42278444D01*
X35886057Y-42400381D01*
X35860156Y-42473260D01*
X34987270Y-42473260D01*
X35042712Y-42375897D01*
X35189170Y-42123243D01*
X35332195Y-41880891D01*
X35463722Y-41662739D01*
X35575686Y-41482681D01*
X35660022Y-41354614D01*
X35708664Y-41292432D01*
X35798245Y-41222515D01*
X36048458Y-41102693D01*
X36337474Y-41063363D01*
X36463269Y-41072389D01*
X36695733Y-41127720D01*
X36902112Y-41220112D01*
X37042104Y-41334080D01*
X37067389Y-41371964D01*
X37133688Y-41482325D01*
X37228598Y-41646526D01*
X37344763Y-41851253D01*
X37474821Y-42083187D01*
X37611415Y-42329012D01*
X37708965Y-42506048D01*
X37747185Y-42575412D01*
X37874772Y-42809069D01*
X49969994Y-42845924D02*
X49904972Y-42920527D01*
X49904972Y-42920527D02*
X49867926Y-42995451D01*
X49867926Y-42995451D02*
X49866842Y-43005928D01*
X49866842Y-43005928D02*
X49907426Y-43028511D01*
X49907426Y-43028511D02*
X49989143Y-43024267D01*
X49989143Y-43024267D02*
X50045087Y-43001516D01*
X50045087Y-43001516D02*
X50077291Y-42937927D01*
X50077291Y-42937927D02*
X50074259Y-42860458D01*
X50074259Y-42860458D02*
X50039751Y-42813782D01*
X50039751Y-42813782D02*
X50029144Y-42812072D01*
X50029144Y-42812072D02*
X49969994Y-42845924D01*
G36*
X50039751Y-42813782D02*
G01*
X50074259Y-42860458D01*
X50077291Y-42937927D01*
X50045087Y-43001516D01*
X49989143Y-43024267D01*
X49907426Y-43028511D01*
X49866842Y-43005928D01*
X49867926Y-42995451D01*
X49904972Y-42920527D01*
X49969994Y-42845924D01*
X50029144Y-42812072D01*
X50039751Y-42813782D01*
G37*
X50039751Y-42813782D02*
X50074259Y-42860458D01*
X50077291Y-42937927D01*
X50045087Y-43001516D01*
X49989143Y-43024267D01*
X49907426Y-43028511D01*
X49866842Y-43005928D01*
X49867926Y-42995451D01*
X49904972Y-42920527D01*
X49969994Y-42845924D01*
X50029144Y-42812072D01*
X50039751Y-42813782D01*
X30402421Y-45697442D02*
X52433578Y-45697442D01*
X52433578Y-45697442D02*
X52433578Y-43867150D01*
X52433578Y-43867150D02*
X52230255Y-43867150D01*
X52230255Y-43867150D02*
X52122078Y-43821359D01*
X52122078Y-43821359D02*
X50989789Y-43821359D01*
X50989789Y-43821359D02*
X50947551Y-43867921D01*
X50947551Y-43867921D02*
X50837261Y-43944446D01*
X50837261Y-43944446D02*
X50683553Y-44037274D01*
X50683553Y-44037274D02*
X50511063Y-44132745D01*
X50511063Y-44132745D02*
X50344424Y-44217200D01*
X50344424Y-44217200D02*
X50208271Y-44276980D01*
X50208271Y-44276980D02*
X50129308Y-44298475D01*
X50129308Y-44298475D02*
X50045863Y-44318963D01*
X50045863Y-44318963D02*
X50044278Y-44359103D01*
X50044278Y-44359103D02*
X50043724Y-44406337D01*
X50043724Y-44406337D02*
X49986231Y-44403916D01*
X49986231Y-44403916D02*
X49893868Y-44361115D01*
X49893868Y-44361115D02*
X49788705Y-44287204D01*
X49788705Y-44287204D02*
X49720279Y-44222980D01*
X49720279Y-44222980D02*
X49612878Y-44067290D01*
X49612878Y-44067290D02*
X49576289Y-43887808D01*
X49576289Y-43887808D02*
X49575769Y-43867951D01*
X49575769Y-43867951D02*
X49572736Y-43664568D01*
X49572736Y-43664568D02*
X49869261Y-43642709D01*
X49869261Y-43642709D02*
X50077329Y-43612697D01*
X50077329Y-43612697D02*
X50262113Y-43560439D01*
X50262113Y-43560439D02*
X50396791Y-43495990D01*
X50396791Y-43495990D02*
X50454541Y-43429404D01*
X50454541Y-43429404D02*
X50455052Y-43423112D01*
X50455052Y-43423112D02*
X50495782Y-43381636D01*
X50495782Y-43381636D02*
X50508526Y-43380403D01*
X50508526Y-43380403D02*
X50552516Y-43416353D01*
X50552516Y-43416353D02*
X50559240Y-43456909D01*
X50559240Y-43456909D02*
X50515390Y-43530299D01*
X50515390Y-43530299D02*
X50408748Y-43624167D01*
X50408748Y-43624167D02*
X50270596Y-43717407D01*
X50270596Y-43717407D02*
X50132220Y-43788913D01*
X50132220Y-43788913D02*
X50024904Y-43817580D01*
X50024904Y-43817580D02*
X50024636Y-43817580D01*
X50024636Y-43817580D02*
X49924689Y-43838783D01*
X49924689Y-43838783D02*
X49893578Y-43861298D01*
X49893578Y-43861298D02*
X49818969Y-43897093D01*
X49818969Y-43897093D02*
X49743370Y-43906406D01*
X49743370Y-43906406D02*
X49662010Y-43911225D01*
X49662010Y-43911225D02*
X49673351Y-43935576D01*
X49673351Y-43935576D02*
X49730009Y-43971982D01*
X49730009Y-43971982D02*
X49851284Y-44023158D01*
X49851284Y-44023158D02*
X49930536Y-44036169D01*
X49930536Y-44036169D02*
X50014712Y-44057905D01*
X50014712Y-44057905D02*
X50010875Y-44109536D01*
X50010875Y-44109536D02*
X49933684Y-44163820D01*
X49933684Y-44163820D02*
X49881384Y-44195672D01*
X49881384Y-44195672D02*
X49919587Y-44207911D01*
X49919587Y-44207911D02*
X49984500Y-44209710D01*
X49984500Y-44209710D02*
X50110701Y-44185861D01*
X50110701Y-44185861D02*
X50178407Y-44138709D01*
X50178407Y-44138709D02*
X50261568Y-44088514D01*
X50261568Y-44088514D02*
X50321165Y-44095632D01*
X50321165Y-44095632D02*
X50433700Y-44086469D01*
X50433700Y-44086469D02*
X50515392Y-44029697D01*
X50515392Y-44029697D02*
X50581632Y-43950793D01*
X50581632Y-43950793D02*
X50578993Y-43930230D01*
X50578993Y-43930230D02*
X50454772Y-43930230D01*
X50454772Y-43930230D02*
X50408311Y-43959712D01*
X50408311Y-43959712D02*
X50294333Y-43966702D01*
X50294333Y-43966702D02*
X50170956Y-43956808D01*
X50170956Y-43956808D02*
X50104681Y-43939164D01*
X50104681Y-43939164D02*
X50121557Y-43913530D01*
X50121557Y-43913530D02*
X50202983Y-43889936D01*
X50202983Y-43889936D02*
X50306791Y-43876097D01*
X50306791Y-43876097D02*
X50390809Y-43879728D01*
X50390809Y-43879728D02*
X50404038Y-43884399D01*
X50404038Y-43884399D02*
X50454772Y-43930230D01*
X50454772Y-43930230D02*
X50578993Y-43930230D01*
X50578993Y-43930230D02*
X50573093Y-43884271D01*
X50573093Y-43884271D02*
X50544018Y-43843255D01*
X50544018Y-43843255D02*
X50496863Y-43745948D01*
X50496863Y-43745948D02*
X50508707Y-43669539D01*
X50508707Y-43669539D02*
X50566456Y-43642709D01*
X50566456Y-43642709D02*
X50606764Y-43679222D01*
X50606764Y-43679222D02*
X50615473Y-43727093D01*
X50615473Y-43727093D02*
X50630225Y-43782973D01*
X50630225Y-43782973D02*
X50694729Y-43790304D01*
X50694729Y-43790304D02*
X50771869Y-43774806D01*
X50771869Y-43774806D02*
X50917247Y-43756456D01*
X50917247Y-43756456D02*
X50983567Y-43790528D01*
X50983567Y-43790528D02*
X50989789Y-43821359D01*
X50989789Y-43821359D02*
X52122078Y-43821359D01*
X52122078Y-43821359D02*
X51970969Y-43757396D01*
X51970969Y-43757396D02*
X51786797Y-43671518D01*
X51786797Y-43671518D02*
X51614726Y-43578594D01*
X51614726Y-43578594D02*
X51551263Y-43538930D01*
X51551263Y-43538930D02*
X51450497Y-43461864D01*
X51450497Y-43461864D02*
X51424478Y-43404627D01*
X51424478Y-43404627D02*
X51457684Y-43340327D01*
X51457684Y-43340327D02*
X51512875Y-43225142D01*
X51512875Y-43225142D02*
X51520793Y-43181107D01*
X51520793Y-43181107D02*
X51353414Y-43181107D01*
X51353414Y-43181107D02*
X51327079Y-43256375D01*
X51327079Y-43256375D02*
X51263642Y-43292947D01*
X51263642Y-43292947D02*
X51261992Y-43292967D01*
X51261992Y-43292967D02*
X51188254Y-43261025D01*
X51188254Y-43261025D02*
X51175499Y-43247334D01*
X51175499Y-43247334D02*
X51171698Y-43183378D01*
X51171698Y-43183378D02*
X51222044Y-43124130D01*
X51222044Y-43124130D02*
X51292003Y-43100312D01*
X51292003Y-43100312D02*
X51326160Y-43113305D01*
X51326160Y-43113305D02*
X51353414Y-43181107D01*
X51353414Y-43181107D02*
X51520793Y-43181107D01*
X51520793Y-43181107D02*
X51526122Y-43151478D01*
X51526122Y-43151478D02*
X51535043Y-43104429D01*
X51535043Y-43104429D02*
X51569586Y-43106400D01*
X51569586Y-43106400D02*
X51644773Y-43164340D01*
X51644773Y-43164340D02*
X51737452Y-43249249D01*
X51737452Y-43249249D02*
X51885992Y-43403190D01*
X51885992Y-43403190D02*
X52029268Y-43574775D01*
X52029268Y-43574775D02*
X52088721Y-43656565D01*
X52088721Y-43656565D02*
X52230255Y-43867150D01*
X52230255Y-43867150D02*
X52433578Y-43867150D01*
X52433578Y-43867150D02*
X52433578Y-38221711D01*
X52433578Y-38221711D02*
X52219684Y-38221711D01*
X52219684Y-38221711D02*
X52219684Y-43401311D01*
X52219684Y-43401311D02*
X51928110Y-43161339D01*
X51928110Y-43161339D02*
X51779870Y-43035578D01*
X51779870Y-43035578D02*
X51753190Y-43007654D01*
X51753190Y-43007654D02*
X51446959Y-43007654D01*
X51446959Y-43007654D02*
X51445816Y-43007237D01*
X51445816Y-43007237D02*
X51173580Y-43007237D01*
X51173580Y-43007237D02*
X51119078Y-43049229D01*
X51119078Y-43049229D02*
X51014473Y-43072835D01*
X51014473Y-43072835D02*
X50991699Y-43073709D01*
X50991699Y-43073709D02*
X50944560Y-43064288D01*
X50944560Y-43064288D02*
X50953826Y-43052520D01*
X50953826Y-43052520D02*
X50829368Y-43052520D01*
X50829368Y-43052520D02*
X50802631Y-43074378D01*
X50802631Y-43074378D02*
X50781754Y-43057310D01*
X50781754Y-43057310D02*
X50610703Y-43057310D01*
X50610703Y-43057310D02*
X50562000Y-43074378D01*
X50562000Y-43074378D02*
X50514832Y-43109882D01*
X50514832Y-43109882D02*
X50508526Y-43141327D01*
X50508526Y-43141327D02*
X50465264Y-43214273D01*
X50465264Y-43214273D02*
X50428315Y-43233440D01*
X50428315Y-43233440D02*
X50359985Y-43293194D01*
X50359985Y-43293194D02*
X50348105Y-43338782D01*
X50348105Y-43338782D02*
X50338057Y-43396899D01*
X50338057Y-43396899D02*
X50297155Y-43440308D01*
X50297155Y-43440308D02*
X50209264Y-43473624D01*
X50209264Y-43473624D02*
X50058245Y-43501464D01*
X50058245Y-43501464D02*
X49827963Y-43528445D01*
X49827963Y-43528445D02*
X49612842Y-43549118D01*
X49612842Y-43549118D02*
X49558346Y-43518269D01*
X49558346Y-43518269D02*
X49546000Y-43470418D01*
X49546000Y-43470418D02*
X49570564Y-43387354D01*
X49570564Y-43387354D02*
X49625431Y-43352200D01*
X49625431Y-43352200D02*
X49679145Y-43379689D01*
X49679145Y-43379689D02*
X49763507Y-43420550D01*
X49763507Y-43420550D02*
X49880533Y-43410312D01*
X49880533Y-43410312D02*
X49973789Y-43358544D01*
X49973789Y-43358544D02*
X50080994Y-43302848D01*
X50080994Y-43302848D02*
X50147305Y-43292967D01*
X50147305Y-43292967D02*
X50219121Y-43281276D01*
X50219121Y-43281276D02*
X50197627Y-43237209D01*
X50197627Y-43237209D02*
X50195209Y-43234804D01*
X50195209Y-43234804D02*
X50187756Y-43169319D01*
X50187756Y-43169319D02*
X50247437Y-43087738D01*
X50247437Y-43087738D02*
X50345698Y-43013018D01*
X50345698Y-43013018D02*
X50453986Y-42968114D01*
X50453986Y-42968114D02*
X50526556Y-42968402D01*
X50526556Y-42968402D02*
X50600142Y-43011776D01*
X50600142Y-43011776D02*
X50610703Y-43057310D01*
X50610703Y-43057310D02*
X50781754Y-43057310D01*
X50781754Y-43057310D02*
X50775894Y-43052520D01*
X50775894Y-43052520D02*
X50802631Y-43030661D01*
X50802631Y-43030661D02*
X50829368Y-43052520D01*
X50829368Y-43052520D02*
X50953826Y-43052520D01*
X50953826Y-43052520D02*
X50977501Y-43022454D01*
X50977501Y-43022454D02*
X50999936Y-43003629D01*
X50999936Y-43003629D02*
X51092293Y-42960509D01*
X51092293Y-42960509D02*
X51150788Y-42965376D01*
X51150788Y-42965376D02*
X51173580Y-43007237D01*
X51173580Y-43007237D02*
X51445816Y-43007237D01*
X51445816Y-43007237D02*
X51396327Y-42989197D01*
X51396327Y-42989197D02*
X51324000Y-42949470D01*
X51324000Y-42949470D02*
X51214090Y-42881826D01*
X51214090Y-42881826D02*
X51154017Y-42835846D01*
X51154017Y-42835846D02*
X51150210Y-42829416D01*
X51150210Y-42829416D02*
X51184750Y-42825614D01*
X51184750Y-42825614D02*
X51265807Y-42861756D01*
X51265807Y-42861756D02*
X51359532Y-42920093D01*
X51359532Y-42920093D02*
X51421976Y-42971919D01*
X51421976Y-42971919D02*
X51446959Y-43007654D01*
X51446959Y-43007654D02*
X51753190Y-43007654D01*
X51753190Y-43007654D02*
X51692984Y-42944641D01*
X51692984Y-42944641D02*
X51651367Y-42863047D01*
X51651367Y-42863047D02*
X51639504Y-42769794D01*
X51639504Y-42769794D02*
X51486511Y-42769794D01*
X51486511Y-42769794D02*
X51437307Y-42813484D01*
X51437307Y-42813484D02*
X51351206Y-42781412D01*
X51351206Y-42781412D02*
X51319365Y-42754067D01*
X51319365Y-42754067D02*
X51009201Y-42754067D01*
X51009201Y-42754067D02*
X50965897Y-42824157D01*
X50965897Y-42824157D02*
X50954822Y-42838065D01*
X50954822Y-42838065D02*
X50871851Y-42916809D01*
X50871851Y-42916809D02*
X50802316Y-42918319D01*
X50802316Y-42918319D02*
X50773893Y-42884320D01*
X50773893Y-42884320D02*
X50658338Y-42884320D01*
X50658338Y-42884320D02*
X50595509Y-42855476D01*
X50595509Y-42855476D02*
X50535263Y-42812072D01*
X50535263Y-42812072D02*
X50447940Y-42757405D01*
X50447940Y-42757405D02*
X50403143Y-42753604D01*
X50403143Y-42753604D02*
X50401578Y-42760145D01*
X50401578Y-42760145D02*
X50362869Y-42821259D01*
X50362869Y-42821259D02*
X50266776Y-42910078D01*
X50266776Y-42910078D02*
X50143356Y-43003962D01*
X50143356Y-43003962D02*
X50022666Y-43080270D01*
X50022666Y-43080270D02*
X49934760Y-43116362D01*
X49934760Y-43116362D02*
X49927963Y-43116913D01*
X49927963Y-43116913D02*
X49879146Y-43148893D01*
X49879146Y-43148893D02*
X49883679Y-43178346D01*
X49883679Y-43178346D02*
X49882875Y-43256572D01*
X49882875Y-43256572D02*
X49815130Y-43299837D01*
X49815130Y-43299837D02*
X49714403Y-43302163D01*
X49714403Y-43302163D02*
X49614653Y-43257573D01*
X49614653Y-43257573D02*
X49586924Y-43230579D01*
X49586924Y-43230579D02*
X49547295Y-43149012D01*
X49547295Y-43149012D02*
X49566303Y-43093992D01*
X49566303Y-43093992D02*
X49626210Y-43090188D01*
X49626210Y-43090188D02*
X49690401Y-43083708D01*
X49690401Y-43083708D02*
X49707151Y-43018359D01*
X49707151Y-43018359D02*
X49722267Y-42893382D01*
X49722267Y-42893382D02*
X49740332Y-42822352D01*
X49740332Y-42822352D02*
X49750727Y-42752128D01*
X49750727Y-42752128D02*
X49703834Y-42745465D01*
X49703834Y-42745465D02*
X49686128Y-42750523D01*
X49686128Y-42750523D02*
X49611093Y-42805889D01*
X49611093Y-42805889D02*
X49599473Y-42841188D01*
X49599473Y-42841188D02*
X49571954Y-42882682D01*
X49571954Y-42882682D02*
X49545855Y-42877576D01*
X49545855Y-42877576D02*
X49538898Y-42860244D01*
X49538898Y-42860244D02*
X48797368Y-42860244D01*
X48797368Y-42860244D02*
X48758415Y-42939117D01*
X48758415Y-42939117D02*
X48657430Y-42958417D01*
X48657430Y-42958417D02*
X48563866Y-42933050D01*
X48563866Y-42933050D02*
X48452569Y-42918953D01*
X48452569Y-42918953D02*
X48383009Y-42957227D01*
X48383009Y-42957227D02*
X48268978Y-43000415D01*
X48268978Y-43000415D02*
X48139162Y-42957953D01*
X48139162Y-42957953D02*
X48027046Y-42864427D01*
X48027046Y-42864427D02*
X47929768Y-42791298D01*
X47929768Y-42791298D02*
X47809973Y-42776377D01*
X47809973Y-42776377D02*
X47746309Y-42782849D01*
X47746309Y-42782849D02*
X47612810Y-42787559D01*
X47612810Y-42787559D02*
X47573628Y-42760609D01*
X47573628Y-42760609D02*
X47629200Y-42712227D01*
X47629200Y-42712227D02*
X47741263Y-42665274D01*
X47741263Y-42665274D02*
X47902108Y-42630524D01*
X47902108Y-42630524D02*
X47982347Y-42648950D01*
X47982347Y-42648950D02*
X48077025Y-42671412D01*
X48077025Y-42671412D02*
X48220073Y-42669346D01*
X48220073Y-42669346D02*
X48240253Y-42666950D01*
X48240253Y-42666950D02*
X48412924Y-42667111D01*
X48412924Y-42667111D02*
X48584181Y-42703290D01*
X48584181Y-42703290D02*
X48721783Y-42764299D01*
X48721783Y-42764299D02*
X48793488Y-42838953D01*
X48793488Y-42838953D02*
X48797368Y-42860244D01*
X48797368Y-42860244D02*
X49538898Y-42860244D01*
X49538898Y-42860244D02*
X49522384Y-42819103D01*
X49522384Y-42819103D02*
X49548969Y-42763818D01*
X49548969Y-42763818D02*
X49593445Y-42715675D01*
X49593445Y-42715675D02*
X49664107Y-42694512D01*
X49664107Y-42694512D02*
X49790932Y-42695604D01*
X49790932Y-42695604D02*
X49916490Y-42705900D01*
X49916490Y-42705900D02*
X50131847Y-42716248D01*
X50131847Y-42716248D02*
X50247668Y-42698374D01*
X50247668Y-42698374D02*
X50264111Y-42685924D01*
X50264111Y-42685924D02*
X50350746Y-42639438D01*
X50350746Y-42639438D02*
X50465147Y-42657230D01*
X50465147Y-42657230D02*
X50572279Y-42732808D01*
X50572279Y-42732808D02*
X50582586Y-42744957D01*
X50582586Y-42744957D02*
X50654573Y-42846712D01*
X50654573Y-42846712D02*
X50658338Y-42884320D01*
X50658338Y-42884320D02*
X50773893Y-42884320D01*
X50773893Y-42884320D02*
X50735995Y-42838988D01*
X50735995Y-42838988D02*
X50690874Y-42744965D01*
X50690874Y-42744965D02*
X50645137Y-42635583D01*
X50645137Y-42635583D02*
X50618759Y-42568751D01*
X50618759Y-42568751D02*
X50616278Y-42560695D01*
X50616278Y-42560695D02*
X50652766Y-42546609D01*
X50652766Y-42546609D02*
X50747321Y-42572556D01*
X50747321Y-42572556D02*
X50869392Y-42629621D01*
X50869392Y-42629621D02*
X50887169Y-42639720D01*
X50887169Y-42639720D02*
X50986852Y-42704003D01*
X50986852Y-42704003D02*
X51009201Y-42754067D01*
X51009201Y-42754067D02*
X51319365Y-42754067D01*
X51319365Y-42754067D02*
X51311196Y-42747052D01*
X51311196Y-42747052D02*
X51269917Y-42661240D01*
X51269917Y-42661240D02*
X51276234Y-42615899D01*
X51276234Y-42615899D02*
X51341025Y-42555366D01*
X51341025Y-42555366D02*
X51420013Y-42565510D01*
X51420013Y-42565510D02*
X51478424Y-42639277D01*
X51478424Y-42639277D02*
X51483900Y-42658033D01*
X51483900Y-42658033D02*
X51486511Y-42769794D01*
X51486511Y-42769794D02*
X51639504Y-42769794D01*
X51639504Y-42769794D02*
X51638934Y-42765318D01*
X51638934Y-42765318D02*
X51638631Y-42702778D01*
X51638631Y-42702778D02*
X51639693Y-42435340D01*
X51639693Y-42435340D02*
X51636602Y-42308391D01*
X51636602Y-42308391D02*
X51520456Y-42308391D01*
X51520456Y-42308391D02*
X51514574Y-42387953D01*
X51514574Y-42387953D02*
X51476284Y-42430422D01*
X51476284Y-42430422D02*
X51396443Y-42460589D01*
X51396443Y-42460589D02*
X51394557Y-42461175D01*
X51394557Y-42461175D02*
X51270589Y-42497093D01*
X51270589Y-42497093D02*
X51216763Y-42498674D01*
X51216763Y-42498674D02*
X51203913Y-42464032D01*
X51203913Y-42464032D02*
X51203684Y-42448827D01*
X51203684Y-42448827D02*
X51172407Y-42372377D01*
X51172407Y-42372377D02*
X51120350Y-42306745D01*
X51120350Y-42306745D02*
X51071590Y-42262920D01*
X51071590Y-42262920D02*
X51052594Y-42273148D01*
X51052594Y-42273148D02*
X51057999Y-42350098D01*
X51057999Y-42350098D02*
X51069611Y-42426588D01*
X51069611Y-42426588D02*
X51102206Y-42631294D01*
X51102206Y-42631294D02*
X50939050Y-42580945D01*
X50939050Y-42580945D02*
X50827329Y-42537859D01*
X50827329Y-42537859D02*
X50776225Y-42501160D01*
X50776225Y-42501160D02*
X50775894Y-42499044D01*
X50775894Y-42499044D02*
X50814172Y-42449455D01*
X50814172Y-42449455D02*
X50829368Y-42440471D01*
X50829368Y-42440471D02*
X50865788Y-42382233D01*
X50865788Y-42382233D02*
X50882694Y-42276680D01*
X50882694Y-42276680D02*
X50882842Y-42265601D01*
X50882842Y-42265601D02*
X50900510Y-42141833D01*
X50900510Y-42141833D02*
X50957372Y-42094198D01*
X50957372Y-42094198D02*
X51059214Y-42122039D01*
X51059214Y-42122039D02*
X51211820Y-42224699D01*
X51211820Y-42224699D02*
X51215791Y-42227793D01*
X51215791Y-42227793D02*
X51335871Y-42318906D01*
X51335871Y-42318906D02*
X51394476Y-42352630D01*
X51394476Y-42352630D02*
X51405415Y-42333681D01*
X51405415Y-42333681D02*
X51390539Y-42287459D01*
X51390539Y-42287459D02*
X51363787Y-42167876D01*
X51363787Y-42167876D02*
X51354976Y-42024893D01*
X51354976Y-42024893D02*
X51355297Y-42014224D01*
X51355297Y-42014224D02*
X51344279Y-41900104D01*
X51344279Y-41900104D02*
X51308507Y-41852576D01*
X51308507Y-41852576D02*
X51260751Y-41879465D01*
X51260751Y-41879465D02*
X51230421Y-41937718D01*
X51230421Y-41937718D02*
X51178621Y-42008457D01*
X51178621Y-42008457D02*
X51137694Y-42025153D01*
X51137694Y-42025153D02*
X51105730Y-42006517D01*
X51105730Y-42006517D02*
X51114678Y-41995912D01*
X51114678Y-41995912D02*
X51111362Y-41945772D01*
X51111362Y-41945772D02*
X51107152Y-41940664D01*
X51107152Y-41940664D02*
X50936315Y-41940664D01*
X50936315Y-41940664D02*
X50899387Y-41977606D01*
X50899387Y-41977606D02*
X50824236Y-41973746D01*
X50824236Y-41973746D02*
X50764312Y-41933313D01*
X50764312Y-41933313D02*
X50760934Y-41926788D01*
X50760934Y-41926788D02*
X50726940Y-41876327D01*
X50726940Y-41876327D02*
X50706651Y-41893117D01*
X50706651Y-41893117D02*
X50703761Y-41957361D01*
X50703761Y-41957361D02*
X50721966Y-42049258D01*
X50721966Y-42049258D02*
X50732355Y-42079961D01*
X50732355Y-42079961D02*
X50759068Y-42222780D01*
X50759068Y-42222780D02*
X50710970Y-42336520D01*
X50710970Y-42336520D02*
X50577504Y-42433382D01*
X50577504Y-42433382D02*
X50348116Y-42525573D01*
X50348116Y-42525573D02*
X50346437Y-42526134D01*
X50346437Y-42526134D02*
X50143488Y-42583890D01*
X50143488Y-42583890D02*
X50000421Y-42597800D01*
X50000421Y-42597800D02*
X49922403Y-42584334D01*
X49922403Y-42584334D02*
X49771684Y-42562977D01*
X49771684Y-42562977D02*
X49668403Y-42570033D01*
X49668403Y-42570033D02*
X49574335Y-42573925D01*
X49574335Y-42573925D02*
X49546211Y-42521403D01*
X49546211Y-42521403D02*
X49546000Y-42511980D01*
X49546000Y-42511980D02*
X49591394Y-42433980D01*
X49591394Y-42433980D02*
X49652947Y-42405945D01*
X49652947Y-42405945D02*
X49739736Y-42367433D01*
X49739736Y-42367433D02*
X49759894Y-42335270D01*
X49759894Y-42335270D02*
X49715156Y-42296440D01*
X49715156Y-42296440D02*
X49652947Y-42287459D01*
X49652947Y-42287459D02*
X49569083Y-42261844D01*
X49569083Y-42261844D02*
X49560370Y-42230256D01*
X49560370Y-42230256D02*
X49332105Y-42230256D01*
X49332105Y-42230256D02*
X49329548Y-42441141D01*
X49329548Y-42441141D02*
X49320815Y-42574981D01*
X49320815Y-42574981D02*
X49304315Y-42642086D01*
X49304315Y-42642086D02*
X49278456Y-42652767D01*
X49278456Y-42652767D02*
X49267936Y-42645945D01*
X49267936Y-42645945D02*
X49167944Y-42605548D01*
X49167944Y-42605548D02*
X49064736Y-42593483D01*
X49064736Y-42593483D02*
X48938612Y-42609534D01*
X48938612Y-42609534D02*
X48871004Y-42638205D01*
X48871004Y-42638205D02*
X48787445Y-42653211D01*
X48787445Y-42653211D02*
X48660387Y-42629133D01*
X48660387Y-42629133D02*
X48531162Y-42580132D01*
X48531162Y-42580132D02*
X48441101Y-42520369D01*
X48441101Y-42520369D02*
X48423052Y-42484725D01*
X48423052Y-42484725D02*
X48470713Y-42417862D01*
X48470713Y-42417862D02*
X48592556Y-42351491D01*
X48592556Y-42351491D02*
X48687480Y-42320796D01*
X48687480Y-42320796D02*
X47901949Y-42320796D01*
X47901949Y-42320796D02*
X47892113Y-42411364D01*
X47892113Y-42411364D02*
X47823164Y-42508605D01*
X47823164Y-42508605D02*
X47727576Y-42573757D01*
X47727576Y-42573757D02*
X47596636Y-42625151D01*
X47596636Y-42625151D02*
X47524033Y-42625339D01*
X47524033Y-42625339D02*
X47480901Y-42573732D01*
X47480901Y-42573732D02*
X47478479Y-42568675D01*
X47478479Y-42568675D02*
X47474140Y-42476878D01*
X47474140Y-42476878D02*
X47500236Y-42404734D01*
X47500236Y-42404734D02*
X47562055Y-42289753D01*
X47562055Y-42289753D02*
X47613142Y-42189095D01*
X47613142Y-42189095D02*
X47678470Y-42103032D01*
X47678470Y-42103032D02*
X47748254Y-42068871D01*
X47748254Y-42068871D02*
X47820867Y-42107328D01*
X47820867Y-42107328D02*
X47876495Y-42201769D01*
X47876495Y-42201769D02*
X47901949Y-42320796D01*
X47901949Y-42320796D02*
X48687480Y-42320796D01*
X48687480Y-42320796D02*
X48756870Y-42298358D01*
X48756870Y-42298358D02*
X48931947Y-42271210D01*
X48931947Y-42271210D02*
X48956795Y-42270176D01*
X48956795Y-42270176D02*
X49084156Y-42258541D01*
X49084156Y-42258541D02*
X49136333Y-42219618D01*
X49136333Y-42219618D02*
X49144947Y-42156905D01*
X49144947Y-42156905D02*
X49129161Y-42113432D01*
X49129161Y-42113432D02*
X48797368Y-42113432D01*
X48797368Y-42113432D02*
X48751585Y-42174630D01*
X48751585Y-42174630D02*
X48641414Y-42235204D01*
X48641414Y-42235204D02*
X48507627Y-42280046D01*
X48507627Y-42280046D02*
X48390993Y-42294049D01*
X48390993Y-42294049D02*
X48345515Y-42280869D01*
X48345515Y-42280869D02*
X48257539Y-42252874D01*
X48257539Y-42252874D02*
X48150710Y-42243742D01*
X48150710Y-42243742D02*
X48029398Y-42220055D01*
X48029398Y-42220055D02*
X47974299Y-42174701D01*
X47974299Y-42174701D02*
X47969393Y-42130237D01*
X47969393Y-42130237D02*
X48030237Y-42122022D01*
X48030237Y-42122022D02*
X48115631Y-42133043D01*
X48115631Y-42133043D02*
X48227746Y-42148235D01*
X48227746Y-42148235D02*
X48247832Y-42137840D01*
X48247832Y-42137840D02*
X48188417Y-42094647D01*
X48188417Y-42094647D02*
X48185569Y-42092790D01*
X48185569Y-42092790D02*
X48089827Y-42040674D01*
X48089827Y-42040674D02*
X48038516Y-42025153D01*
X48038516Y-42025153D02*
X48002649Y-41988693D01*
X48002649Y-41988693D02*
X47995263Y-41942816D01*
X47995263Y-41942816D02*
X48040023Y-41868877D01*
X48040023Y-41868877D02*
X48147987Y-41830327D01*
X48147987Y-41830327D02*
X48279681Y-41838100D01*
X48279681Y-41838100D02*
X48321235Y-41852527D01*
X48321235Y-41852527D02*
X48448603Y-41888230D01*
X48448603Y-41888230D02*
X48508905Y-41894000D01*
X48508905Y-41894000D02*
X48634731Y-41928209D01*
X48634731Y-41928209D02*
X48744854Y-42009382D01*
X48744854Y-42009382D02*
X48796968Y-42105338D01*
X48796968Y-42105338D02*
X48797368Y-42113432D01*
X48797368Y-42113432D02*
X49129161Y-42113432D01*
X49129161Y-42113432D02*
X49110635Y-42062414D01*
X49110635Y-42062414D02*
X49038000Y-42032317D01*
X49038000Y-42032317D02*
X48920376Y-41991438D01*
X48920376Y-41991438D02*
X48812804Y-41927321D01*
X48812804Y-41927321D02*
X48733465Y-41847170D01*
X48733465Y-41847170D02*
X48737657Y-41774026D01*
X48737657Y-41774026D02*
X48747843Y-41756814D01*
X48747843Y-41756814D02*
X48768901Y-41656813D01*
X48768901Y-41656813D02*
X48209157Y-41656813D01*
X48209157Y-41656813D02*
X48165158Y-41710034D01*
X48165158Y-41710034D02*
X48065224Y-41761785D01*
X48065224Y-41761785D02*
X47957446Y-41790311D01*
X47957446Y-41790311D02*
X47916427Y-41789237D01*
X47916427Y-41789237D02*
X47871874Y-41743156D01*
X47871874Y-41743156D02*
X47831263Y-41644855D01*
X47831263Y-41644855D02*
X47826941Y-41628721D01*
X47826941Y-41628721D02*
X47807719Y-41524234D01*
X47807719Y-41524234D02*
X47809607Y-41464018D01*
X47809607Y-41464018D02*
X47811879Y-41461023D01*
X47811879Y-41461023D02*
X47871918Y-41465290D01*
X47871918Y-41465290D02*
X47978490Y-41505859D01*
X47978490Y-41505859D02*
X48094554Y-41564476D01*
X48094554Y-41564476D02*
X48183067Y-41622885D01*
X48183067Y-41622885D02*
X48209157Y-41656813D01*
X48209157Y-41656813D02*
X48768901Y-41656813D01*
X48768901Y-41656813D02*
X48771515Y-41644403D01*
X48771515Y-41644403D02*
X48714165Y-41541687D01*
X48714165Y-41541687D02*
X48601120Y-41467614D01*
X48601120Y-41467614D02*
X48457704Y-41441136D01*
X48457704Y-41441136D02*
X48352662Y-41461119D01*
X48352662Y-41461119D02*
X48216441Y-41486198D01*
X48216441Y-41486198D02*
X48095606Y-41450391D01*
X48095606Y-41450391D02*
X48035520Y-41418347D01*
X48035520Y-41418347D02*
X48037056Y-41399056D01*
X48037056Y-41399056D02*
X48114733Y-41387615D01*
X48114733Y-41387615D02*
X48283068Y-41379124D01*
X48283068Y-41379124D02*
X48309812Y-41378080D01*
X48309812Y-41378080D02*
X48615980Y-41385880D01*
X48615980Y-41385880D02*
X48829501Y-41434127D01*
X48829501Y-41434127D02*
X48947311Y-41490307D01*
X48947311Y-41490307D02*
X48986890Y-41551338D01*
X48986890Y-41551338D02*
X48978237Y-41624612D01*
X48978237Y-41624612D02*
X48983887Y-41745029D01*
X48983887Y-41745029D02*
X49052534Y-41821707D01*
X49052534Y-41821707D02*
X49161496Y-41837506D01*
X49161496Y-41837506D02*
X49229500Y-41814493D01*
X49229500Y-41814493D02*
X49274746Y-41795703D01*
X49274746Y-41795703D02*
X49304266Y-41803753D01*
X49304266Y-41803753D02*
X49321409Y-41852219D01*
X49321409Y-41852219D02*
X49329526Y-41954674D01*
X49329526Y-41954674D02*
X49331966Y-42124692D01*
X49331966Y-42124692D02*
X49332105Y-42230256D01*
X49332105Y-42230256D02*
X49560370Y-42230256D01*
X49560370Y-42230256D02*
X49546000Y-42178165D01*
X49546000Y-42178165D02*
X49559841Y-42094511D01*
X49559841Y-42094511D02*
X49586105Y-42065319D01*
X49586105Y-42065319D02*
X49664406Y-42059828D01*
X49664406Y-42059828D02*
X49779050Y-42052739D01*
X49779050Y-42052739D02*
X49916495Y-42019637D01*
X49916495Y-42019637D02*
X50002386Y-41964890D01*
X50002386Y-41964890D02*
X50104554Y-41908231D01*
X50104554Y-41908231D02*
X50183757Y-41914840D01*
X50183757Y-41914840D02*
X50272544Y-41963331D01*
X50272544Y-41963331D02*
X50289104Y-42023603D01*
X50289104Y-42023603D02*
X50232014Y-42064711D01*
X50232014Y-42064711D02*
X50190840Y-42068871D01*
X50190840Y-42068871D02*
X50089243Y-42088023D01*
X50089243Y-42088023D02*
X50055443Y-42110679D01*
X50055443Y-42110679D02*
X49986328Y-42133130D01*
X49986328Y-42133130D02*
X49936056Y-42124948D01*
X49936056Y-42124948D02*
X49875994Y-42118333D01*
X49875994Y-42118333D02*
X49885886Y-42169638D01*
X49885886Y-42169638D02*
X49891858Y-42181505D01*
X49891858Y-42181505D02*
X49934731Y-42290327D01*
X49934731Y-42290327D02*
X49960604Y-42385378D01*
X49960604Y-42385378D02*
X49996836Y-42468060D01*
X49996836Y-42468060D02*
X50040933Y-42473353D01*
X50040933Y-42473353D02*
X50074020Y-42408524D01*
X50074020Y-42408524D02*
X50080736Y-42339113D01*
X50080736Y-42339113D02*
X50109504Y-42247971D01*
X50109504Y-42247971D02*
X50177412Y-42173030D01*
X50177412Y-42173030D02*
X50256865Y-42135092D01*
X50256865Y-42135092D02*
X50320269Y-42154958D01*
X50320269Y-42154958D02*
X50322045Y-42157201D01*
X50322045Y-42157201D02*
X50386356Y-42199269D01*
X50386356Y-42199269D02*
X50435375Y-42181276D01*
X50435375Y-42181276D02*
X50432824Y-42128289D01*
X50432824Y-42128289D02*
X50422156Y-42004046D01*
X50422156Y-42004046D02*
X50503182Y-41909088D01*
X50503182Y-41909088D02*
X50595200Y-41874721D01*
X50595200Y-41874721D02*
X50739846Y-41863538D01*
X50739846Y-41863538D02*
X50865076Y-41883218D01*
X50865076Y-41883218D02*
X50932817Y-41926402D01*
X50932817Y-41926402D02*
X50936315Y-41940664D01*
X50936315Y-41940664D02*
X51107152Y-41940664D01*
X51107152Y-41940664D02*
X51064878Y-41889373D01*
X51064878Y-41889373D02*
X51009278Y-41802052D01*
X51009278Y-41802052D02*
X51012814Y-41796921D01*
X51012814Y-41796921D02*
X50369159Y-41796921D01*
X50369159Y-41796921D02*
X50368347Y-41848632D01*
X50368347Y-41848632D02*
X50366620Y-41850282D01*
X50366620Y-41850282D02*
X50313942Y-41834295D01*
X50313942Y-41834295D02*
X50215552Y-41799031D01*
X50215552Y-41799031D02*
X50113634Y-41742292D01*
X50113634Y-41742292D02*
X50114152Y-41680325D01*
X50114152Y-41680325D02*
X50217499Y-41604525D01*
X50217499Y-41604525D02*
X50224584Y-41600645D01*
X50224584Y-41600645D02*
X50299230Y-41567685D01*
X50299230Y-41567685D02*
X50335629Y-41588964D01*
X50335629Y-41588964D02*
X50355768Y-41680082D01*
X50355768Y-41680082D02*
X50357968Y-41695269D01*
X50357968Y-41695269D02*
X50369159Y-41796921D01*
X50369159Y-41796921D02*
X51012814Y-41796921D01*
X51012814Y-41796921D02*
X51051125Y-41741334D01*
X51051125Y-41741334D02*
X51178870Y-41719129D01*
X51178870Y-41719129D02*
X51317119Y-41758235D01*
X51317119Y-41758235D02*
X51419476Y-41876641D01*
X51419476Y-41876641D02*
X51487121Y-42075975D01*
X51487121Y-42075975D02*
X51503072Y-42166949D01*
X51503072Y-42166949D02*
X51520456Y-42308391D01*
X51520456Y-42308391D02*
X51636602Y-42308391D01*
X51636602Y-42308391D02*
X51634784Y-42233760D01*
X51634784Y-42233760D02*
X51620601Y-42076486D01*
X51620601Y-42076486D02*
X51593844Y-41941967D01*
X51593844Y-41941967D02*
X51551210Y-41808653D01*
X51551210Y-41808653D02*
X51489397Y-41654992D01*
X51489397Y-41654992D02*
X51482303Y-41638370D01*
X51482303Y-41638370D02*
X51390842Y-41638370D01*
X51390842Y-41638370D02*
X51253776Y-41610483D01*
X51253776Y-41610483D02*
X51088556Y-41617212D01*
X51088556Y-41617212D02*
X50996348Y-41661792D01*
X50996348Y-41661792D02*
X50862472Y-41716189D01*
X50862472Y-41716189D02*
X50691206Y-41746222D01*
X50691206Y-41746222D02*
X50665518Y-41747550D01*
X50665518Y-41747550D02*
X50525775Y-41743986D01*
X50525775Y-41743986D02*
X50464872Y-41715643D01*
X50464872Y-41715643D02*
X50455052Y-41676397D01*
X50455052Y-41676397D02*
X50493671Y-41583819D01*
X50493671Y-41583819D02*
X50535263Y-41544258D01*
X50535263Y-41544258D02*
X50594592Y-41462638D01*
X50594592Y-41462638D02*
X50608338Y-41397726D01*
X50608338Y-41397726D02*
X50495044Y-41397726D01*
X50495044Y-41397726D02*
X50413221Y-41452506D01*
X50413221Y-41452506D02*
X50251878Y-41462711D01*
X50251878Y-41462711D02*
X50159725Y-41452312D01*
X50159725Y-41452312D02*
X49904889Y-41439977D01*
X49904889Y-41439977D02*
X49772748Y-41467346D01*
X49772748Y-41467346D02*
X49626210Y-41519103D01*
X49626210Y-41519103D02*
X49825230Y-41534246D01*
X49825230Y-41534246D02*
X49951637Y-41548508D01*
X49951637Y-41548508D02*
X49991394Y-41574486D01*
X49991394Y-41574486D02*
X49964719Y-41627247D01*
X49964719Y-41627247D02*
X49959419Y-41634259D01*
X49959419Y-41634259D02*
X49921787Y-41725752D01*
X49921787Y-41725752D02*
X49957779Y-41801851D01*
X49957779Y-41801851D02*
X49996469Y-41877482D01*
X49996469Y-41877482D02*
X49959198Y-41919642D01*
X49959198Y-41919642D02*
X49833754Y-41936356D01*
X49833754Y-41936356D02*
X49750982Y-41937718D01*
X49750982Y-41937718D02*
X49546000Y-41937718D01*
X49546000Y-41937718D02*
X49546000Y-41630321D01*
X49546000Y-41630321D02*
X49556256Y-41441461D01*
X49556256Y-41441461D02*
X49593987Y-41328892D01*
X49593987Y-41328892D02*
X49669638Y-41282588D01*
X49669638Y-41282588D02*
X49793654Y-41292521D01*
X49793654Y-41292521D02*
X49874727Y-41314721D01*
X49874727Y-41314721D02*
X49980264Y-41336406D01*
X49980264Y-41336406D02*
X50027123Y-41324508D01*
X50027123Y-41324508D02*
X50027263Y-41322880D01*
X50027263Y-41322880D02*
X49981646Y-41262627D01*
X49981646Y-41262627D02*
X49873062Y-41204930D01*
X49873062Y-41204930D02*
X49743909Y-41167320D01*
X49743909Y-41167320D02*
X49645559Y-41165045D01*
X49645559Y-41165045D02*
X49583726Y-41173351D01*
X49583726Y-41173351D02*
X49553205Y-41152153D01*
X49553205Y-41152153D02*
X49548032Y-41083254D01*
X49548032Y-41083254D02*
X49550279Y-41061940D01*
X49550279Y-41061940D02*
X49332105Y-41061940D01*
X49332105Y-41061940D02*
X49331275Y-41295763D01*
X49331275Y-41295763D02*
X49327323Y-41454370D01*
X49327323Y-41454370D02*
X49318050Y-41549980D01*
X49318050Y-41549980D02*
X49301261Y-41594809D01*
X49301261Y-41594809D02*
X49274758Y-41601075D01*
X49274758Y-41601075D02*
X49238526Y-41582399D01*
X49238526Y-41582399D02*
X49145170Y-41514489D01*
X49145170Y-41514489D02*
X49106062Y-41478681D01*
X49106062Y-41478681D02*
X49087250Y-41403735D01*
X49087250Y-41403735D02*
X49097112Y-41356360D01*
X49097112Y-41356360D02*
X49089203Y-41260093D01*
X49089203Y-41260093D02*
X48770631Y-41260093D01*
X48770631Y-41260093D02*
X48376521Y-41273044D01*
X48376521Y-41273044D02*
X48145048Y-41274948D01*
X48145048Y-41274948D02*
X47995333Y-41260447D01*
X47995333Y-41260447D02*
X47903511Y-41226856D01*
X47903511Y-41226856D02*
X47891047Y-41218396D01*
X47891047Y-41218396D02*
X47765583Y-41157920D01*
X47765583Y-41157920D02*
X47671636Y-41171576D01*
X47671636Y-41171576D02*
X47621349Y-41247506D01*
X47621349Y-41247506D02*
X47626862Y-41373854D01*
X47626862Y-41373854D02*
X47653518Y-41450365D01*
X47653518Y-41450365D02*
X47704840Y-41592041D01*
X47704840Y-41592041D02*
X47725443Y-41702349D01*
X47725443Y-41702349D02*
X47711997Y-41759392D01*
X47711997Y-41759392D02*
X47701047Y-41762847D01*
X47701047Y-41762847D02*
X47658937Y-41730209D01*
X47658937Y-41730209D02*
X47571505Y-41643714D01*
X47571505Y-41643714D02*
X47455871Y-41520486D01*
X47455871Y-41520486D02*
X47427865Y-41489611D01*
X47427865Y-41489611D02*
X47260859Y-41288639D01*
X47260859Y-41288639D02*
X47097952Y-41065208D01*
X47097952Y-41065208D02*
X46954976Y-40843556D01*
X46954976Y-40843556D02*
X46847764Y-40647921D01*
X46847764Y-40647921D02*
X46798116Y-40525529D01*
X46798116Y-40525529D02*
X46780614Y-40442848D01*
X46780614Y-40442848D02*
X46807992Y-40427057D01*
X46807992Y-40427057D02*
X46857225Y-40445660D01*
X46857225Y-40445660D02*
X46944985Y-40499192D01*
X46944985Y-40499192D02*
X47073705Y-40593697D01*
X47073705Y-40593697D02*
X47181378Y-40680448D01*
X47181378Y-40680448D02*
X47305569Y-40786990D01*
X47305569Y-40786990D02*
X47364167Y-40851691D01*
X47364167Y-40851691D02*
X47366315Y-40895255D01*
X47366315Y-40895255D02*
X47321156Y-40938383D01*
X47321156Y-40938383D02*
X47301694Y-40952893D01*
X47301694Y-40952893D02*
X47221730Y-41020551D01*
X47221730Y-41020551D02*
X47193157Y-41059288D01*
X47193157Y-41059288D02*
X47242210Y-41068017D01*
X47242210Y-41068017D02*
X47371881Y-41073082D01*
X47371881Y-41073082D02*
X47555944Y-41074600D01*
X47555944Y-41074600D02*
X47768170Y-41072691D01*
X47768170Y-41072691D02*
X47982331Y-41067472D01*
X47982331Y-41067472D02*
X48172200Y-41059064D01*
X48172200Y-41059064D02*
X48239141Y-41054552D01*
X48239141Y-41054552D02*
X48350170Y-41071650D01*
X48350170Y-41071650D02*
X48499673Y-41124755D01*
X48499673Y-41124755D02*
X48559983Y-41153048D01*
X48559983Y-41153048D02*
X48770631Y-41260093D01*
X48770631Y-41260093D02*
X49089203Y-41260093D01*
X49089203Y-41260093D02*
X49088669Y-41253595D01*
X49088669Y-41253595D02*
X49003290Y-41175353D01*
X49003290Y-41175353D02*
X48895637Y-41150798D01*
X48895637Y-41150798D02*
X48785176Y-41132087D01*
X48785176Y-41132087D02*
X48642600Y-41085659D01*
X48642600Y-41085659D02*
X48502810Y-41026075D01*
X48502810Y-41026075D02*
X48400705Y-40967896D01*
X48400705Y-40967896D02*
X48369578Y-40931321D01*
X48369578Y-40931321D02*
X48415111Y-40900633D01*
X48415111Y-40900633D02*
X48526901Y-40890394D01*
X48526901Y-40890394D02*
X48667732Y-40898942D01*
X48667732Y-40898942D02*
X48800392Y-40924613D01*
X48800392Y-40924613D02*
X48871597Y-40953765D01*
X48871597Y-40953765D02*
X48994624Y-40989515D01*
X48994624Y-40989515D02*
X49102804Y-40959718D01*
X49102804Y-40959718D02*
X49160988Y-40879269D01*
X49160988Y-40879269D02*
X49161560Y-40830887D01*
X49161560Y-40830887D02*
X49102700Y-40753358D01*
X49102700Y-40753358D02*
X48990428Y-40716373D01*
X48990428Y-40716373D02*
X48872056Y-40731089D01*
X48872056Y-40731089D02*
X48833980Y-40753638D01*
X48833980Y-40753638D02*
X48745712Y-40784794D01*
X48745712Y-40784794D02*
X48607541Y-40799119D01*
X48607541Y-40799119D02*
X48465084Y-40795899D01*
X48465084Y-40795899D02*
X48363956Y-40774420D01*
X48363956Y-40774420D02*
X48345824Y-40761284D01*
X48345824Y-40761284D02*
X48336486Y-40679030D01*
X48336486Y-40679030D02*
X48407843Y-40602301D01*
X48407843Y-40602301D02*
X48507132Y-40563722D01*
X48507132Y-40563722D02*
X48605450Y-40528589D01*
X48605450Y-40528589D02*
X48636947Y-40494200D01*
X48636947Y-40494200D02*
X48669507Y-40452989D01*
X48669507Y-40452989D02*
X48743615Y-40464720D01*
X48743615Y-40464720D02*
X48823913Y-40521576D01*
X48823913Y-40521576D02*
X48838432Y-40538750D01*
X48838432Y-40538750D02*
X48948690Y-40611969D01*
X48948690Y-40611969D02*
X49093091Y-40616669D01*
X49093091Y-40616669D02*
X49234315Y-40553833D01*
X49234315Y-40553833D02*
X49273774Y-40528613D01*
X49273774Y-40528613D02*
X49300886Y-40529625D01*
X49300886Y-40529625D02*
X49317963Y-40568884D01*
X49317963Y-40568884D02*
X49327317Y-40658401D01*
X49327317Y-40658401D02*
X49331259Y-40810190D01*
X49331259Y-40810190D02*
X49332102Y-41036263D01*
X49332102Y-41036263D02*
X49332105Y-41061940D01*
X49332105Y-41061940D02*
X49550279Y-41061940D01*
X49550279Y-41061940D02*
X49562243Y-40948456D01*
X49562243Y-40948456D02*
X49565687Y-40921352D01*
X49565687Y-40921352D02*
X49609230Y-40719861D01*
X49609230Y-40719861D02*
X49683908Y-40583319D01*
X49683908Y-40583319D02*
X49720033Y-40546119D01*
X49720033Y-40546119D02*
X49840105Y-40438984D01*
X49840105Y-40438984D02*
X49693052Y-40467841D01*
X49693052Y-40467841D02*
X49589445Y-40478077D01*
X49589445Y-40478077D02*
X49543285Y-40443226D01*
X49543285Y-40443226D02*
X49539291Y-40345853D01*
X49539291Y-40345853D02*
X49544465Y-40298303D01*
X49544465Y-40298303D02*
X49576973Y-40199137D01*
X49576973Y-40199137D02*
X49655628Y-40155804D01*
X49655628Y-40155804D02*
X49799909Y-40162035D01*
X49799909Y-40162035D02*
X49905015Y-40182274D01*
X49905015Y-40182274D02*
X50098486Y-40230908D01*
X50098486Y-40230908D02*
X50280210Y-40286493D01*
X50280210Y-40286493D02*
X50328411Y-40303965D01*
X50328411Y-40303965D02*
X50438708Y-40352076D01*
X50438708Y-40352076D02*
X50464803Y-40391197D01*
X50464803Y-40391197D02*
X50420977Y-40446431D01*
X50420977Y-40446431D02*
X50413542Y-40453574D01*
X50413542Y-40453574D02*
X50345442Y-40509462D01*
X50345442Y-40509462D02*
X50292038Y-40501867D01*
X50292038Y-40501867D02*
X50228383Y-40450176D01*
X50228383Y-40450176D02*
X50137671Y-40385748D01*
X50137671Y-40385748D02*
X50078653Y-40363879D01*
X50078653Y-40363879D02*
X50033935Y-40328137D01*
X50033935Y-40328137D02*
X50027263Y-40293625D01*
X50027263Y-40293625D02*
X49993996Y-40243775D01*
X49993996Y-40243775D02*
X49953568Y-40246491D01*
X49953568Y-40246491D02*
X49854761Y-40240128D01*
X49854761Y-40240128D02*
X49819884Y-40220566D01*
X49819884Y-40220566D02*
X49772933Y-40202578D01*
X49772933Y-40202578D02*
X49759894Y-40260816D01*
X49759894Y-40260816D02*
X49811211Y-40350768D01*
X49811211Y-40350768D02*
X49947052Y-40432513D01*
X49947052Y-40432513D02*
X50071670Y-40501051D01*
X50071670Y-40501051D02*
X50132409Y-40560494D01*
X50132409Y-40560494D02*
X50124434Y-40596250D01*
X50124434Y-40596250D02*
X50042912Y-40593724D01*
X50042912Y-40593724D02*
X49996290Y-40581151D01*
X49996290Y-40581151D02*
X49839157Y-40561769D01*
X49839157Y-40561769D02*
X49769027Y-40579159D01*
X49769027Y-40579159D02*
X49720569Y-40611900D01*
X49720569Y-40611900D02*
X49756345Y-40641525D01*
X49756345Y-40641525D02*
X49830218Y-40666829D01*
X49830218Y-40666829D02*
X49950562Y-40700358D01*
X49950562Y-40700358D02*
X50021772Y-40713621D01*
X50021772Y-40713621D02*
X50062218Y-40751057D01*
X50062218Y-40751057D02*
X50111021Y-40843860D01*
X50111021Y-40843860D02*
X50122342Y-40872251D01*
X50122342Y-40872251D02*
X50181891Y-41030881D01*
X50181891Y-41030881D02*
X49937726Y-41003520D01*
X49937726Y-41003520D02*
X49793331Y-40990396D01*
X49793331Y-40990396D02*
X49735726Y-40997112D01*
X49735726Y-40997112D02*
X49746538Y-41027605D01*
X49746538Y-41027605D02*
X49760012Y-41041620D01*
X49760012Y-41041620D02*
X49863331Y-41093541D01*
X49863331Y-41093541D02*
X49955317Y-41107081D01*
X49955317Y-41107081D02*
X50112395Y-41126708D01*
X50112395Y-41126708D02*
X50280154Y-41175950D01*
X50280154Y-41175950D02*
X50419123Y-41240351D01*
X50419123Y-41240351D02*
X50488523Y-41302393D01*
X50488523Y-41302393D02*
X50495044Y-41397726D01*
X50495044Y-41397726D02*
X50608338Y-41397726D01*
X50608338Y-41397726D02*
X50615473Y-41364034D01*
X50615473Y-41364034D02*
X50632548Y-41274301D01*
X50632548Y-41274301D02*
X50672223Y-41238234D01*
X50672223Y-41238234D02*
X50703877Y-41278623D01*
X50703877Y-41278623D02*
X50699286Y-41396522D01*
X50699286Y-41396522D02*
X50692889Y-41434964D01*
X50692889Y-41434964D02*
X50684954Y-41559208D01*
X50684954Y-41559208D02*
X50707492Y-41627784D01*
X50707492Y-41627784D02*
X50748069Y-41631198D01*
X50748069Y-41631198D02*
X50794254Y-41559958D01*
X50794254Y-41559958D02*
X50807409Y-41522399D01*
X50807409Y-41522399D02*
X50854735Y-41432978D01*
X50854735Y-41432978D02*
X50908018Y-41420872D01*
X50908018Y-41420872D02*
X50950986Y-41489611D01*
X50950986Y-41489611D02*
X50973331Y-41534174D01*
X50973331Y-41534174D02*
X51004159Y-41503043D01*
X51004159Y-41503043D02*
X51023538Y-41466408D01*
X51023538Y-41466408D02*
X51073577Y-41366698D01*
X51073577Y-41366698D02*
X51232209Y-41502534D01*
X51232209Y-41502534D02*
X51390842Y-41638370D01*
X51390842Y-41638370D02*
X51482303Y-41638370D01*
X51482303Y-41638370D02*
X51471765Y-41613680D01*
X51471765Y-41613680D02*
X51389765Y-41431931D01*
X51389765Y-41431931D02*
X51311086Y-41273553D01*
X51311086Y-41273553D02*
X51253699Y-41172657D01*
X51253699Y-41172657D02*
X51052684Y-41172657D01*
X51052684Y-41172657D02*
X50914354Y-41041504D01*
X50914354Y-41041504D02*
X50825486Y-40945021D01*
X50825486Y-40945021D02*
X50778280Y-40869942D01*
X50778280Y-40869942D02*
X50775960Y-40858284D01*
X50775960Y-40858284D02*
X50736908Y-40788470D01*
X50736908Y-40788470D02*
X50722421Y-40779198D01*
X50722421Y-40779198D02*
X50678304Y-40784576D01*
X50678304Y-40784576D02*
X50666840Y-40845862D01*
X50666840Y-40845862D02*
X50683633Y-40936939D01*
X50683633Y-40936939D02*
X50724289Y-41031693D01*
X50724289Y-41031693D02*
X50775894Y-41097009D01*
X50775894Y-41097009D02*
X50854896Y-41176668D01*
X50854896Y-41176668D02*
X50880903Y-41223409D01*
X50880903Y-41223409D02*
X50849465Y-41222715D01*
X50849465Y-41222715D02*
X50806598Y-41197208D01*
X50806598Y-41197208D02*
X50706105Y-41158500D01*
X50706105Y-41158500D02*
X50659546Y-41157289D01*
X50659546Y-41157289D02*
X50562747Y-41144445D01*
X50562747Y-41144445D02*
X50476981Y-41110087D01*
X50476981Y-41110087D02*
X50365225Y-41051072D01*
X50365225Y-41051072D02*
X50476981Y-40882707D01*
X50476981Y-40882707D02*
X50559254Y-40779791D01*
X50559254Y-40779791D02*
X50634028Y-40720034D01*
X50634028Y-40720034D02*
X50655578Y-40713982D01*
X50655578Y-40713982D02*
X50717602Y-40679944D01*
X50717602Y-40679944D02*
X50722421Y-40659968D01*
X50722421Y-40659968D02*
X50743829Y-40631763D01*
X50743829Y-40631763D02*
X50797517Y-40663419D01*
X50797517Y-40663419D02*
X50867674Y-40736699D01*
X50867674Y-40736699D02*
X50938493Y-40833366D01*
X50938493Y-40833366D02*
X50994166Y-40935182D01*
X50994166Y-40935182D02*
X51015248Y-40997786D01*
X51015248Y-40997786D02*
X51052684Y-41172657D01*
X51052684Y-41172657D02*
X51253699Y-41172657D01*
X51253699Y-41172657D02*
X51248036Y-41162702D01*
X51248036Y-41162702D02*
X51227383Y-41133987D01*
X51227383Y-41133987D02*
X51165657Y-41017333D01*
X51165657Y-41017333D02*
X51150210Y-40932828D01*
X51150210Y-40932828D02*
X51111365Y-40807899D01*
X51111365Y-40807899D02*
X51009095Y-40653646D01*
X51009095Y-40653646D02*
X50896378Y-40528940D01*
X50896378Y-40528940D02*
X50762010Y-40528940D01*
X50762010Y-40528940D02*
X50674583Y-40518330D01*
X50674583Y-40518330D02*
X50668947Y-40516891D01*
X50668947Y-40516891D02*
X50581755Y-40516751D01*
X50581755Y-40516751D02*
X50565030Y-40555140D01*
X50565030Y-40555140D02*
X50628842Y-40597232D01*
X50628842Y-40597232D02*
X50638739Y-40615124D01*
X50638739Y-40615124D02*
X50578829Y-40622734D01*
X50578829Y-40622734D02*
X50476640Y-40658238D01*
X50476640Y-40658238D02*
X50399984Y-40766586D01*
X50399984Y-40766586D02*
X50395327Y-40776870D01*
X50395327Y-40776870D02*
X50335150Y-40873040D01*
X50335150Y-40873040D02*
X50279153Y-40902959D01*
X50279153Y-40902959D02*
X50244867Y-40861437D01*
X50244867Y-40861437D02*
X50241157Y-40822508D01*
X50241157Y-40822508D02*
X50282154Y-40748228D01*
X50282154Y-40748228D02*
X50314123Y-40726723D01*
X50314123Y-40726723D02*
X50386304Y-40666120D01*
X50386304Y-40666120D02*
X50466763Y-40563894D01*
X50466763Y-40563894D02*
X50476382Y-40548946D01*
X50476382Y-40548946D02*
X50544464Y-40457161D01*
X50544464Y-40457161D02*
X50605546Y-40432648D01*
X50605546Y-40432648D02*
X50670784Y-40452119D01*
X50670784Y-40452119D02*
X50760859Y-40502811D01*
X50760859Y-40502811D02*
X50762010Y-40528940D01*
X50762010Y-40528940D02*
X50896378Y-40528940D01*
X50896378Y-40528940D02*
X50864797Y-40494000D01*
X50864797Y-40494000D02*
X50699870Y-40352892D01*
X50699870Y-40352892D02*
X50548792Y-40260241D01*
X50548792Y-40260241D02*
X50380118Y-40192326D01*
X50380118Y-40192326D02*
X50169666Y-40123584D01*
X50169666Y-40123584D02*
X49954037Y-40064287D01*
X49954037Y-40064287D02*
X49769831Y-40024710D01*
X49769831Y-40024710D02*
X49672061Y-40014138D01*
X49672061Y-40014138D02*
X49574529Y-40049539D01*
X49574529Y-40049539D02*
X49472762Y-40133932D01*
X49472762Y-40133932D02*
X49400605Y-40234605D01*
X49400605Y-40234605D02*
X49385579Y-40291071D01*
X49385579Y-40291071D02*
X49377775Y-40340392D01*
X49377775Y-40340392D02*
X49341042Y-40332165D01*
X49341042Y-40332165D02*
X49255393Y-40261802D01*
X49255393Y-40261802D02*
X49254448Y-40260969D01*
X49254448Y-40260969D02*
X49116796Y-40168014D01*
X49116796Y-40168014D02*
X48992885Y-40157138D01*
X48992885Y-40157138D02*
X48860667Y-40228403D01*
X48860667Y-40228403D02*
X48820163Y-40262194D01*
X48820163Y-40262194D02*
X48719584Y-40336169D01*
X48719584Y-40336169D02*
X48651120Y-40343631D01*
X48651120Y-40343631D02*
X48624864Y-40327770D01*
X48624864Y-40327770D02*
X48523411Y-40283583D01*
X48523411Y-40283583D02*
X48414495Y-40283726D01*
X48414495Y-40283726D02*
X48347085Y-40327618D01*
X48347085Y-40327618D02*
X48345630Y-40331091D01*
X48345630Y-40331091D02*
X48319219Y-40412993D01*
X48319219Y-40412993D02*
X48292815Y-40505962D01*
X48292815Y-40505962D02*
X48253628Y-40604226D01*
X48253628Y-40604226D02*
X48217554Y-40623564D01*
X48217554Y-40623564D02*
X48193844Y-40572339D01*
X48193844Y-40572339D02*
X48191749Y-40458915D01*
X48191749Y-40458915D02*
X48196113Y-40418527D01*
X48196113Y-40418527D02*
X48223406Y-40210867D01*
X48223406Y-40210867D02*
X48091636Y-40309911D01*
X48091636Y-40309911D02*
X47959866Y-40408954D01*
X47959866Y-40408954D02*
X47857249Y-40315769D01*
X47857249Y-40315769D02*
X47696277Y-40202578D01*
X47696277Y-40202578D02*
X47485204Y-40097062D01*
X47485204Y-40097062D02*
X47262849Y-40015275D01*
X47262849Y-40015275D02*
X47068033Y-39973275D01*
X47068033Y-39973275D02*
X47023261Y-39970830D01*
X47023261Y-39970830D02*
X46883654Y-39983951D01*
X46883654Y-39983951D02*
X46772169Y-40036776D01*
X46772169Y-40036776D02*
X46660504Y-40134361D01*
X46660504Y-40134361D02*
X46553854Y-40254021D01*
X46553854Y-40254021D02*
X46478294Y-40364947D01*
X46478294Y-40364947D02*
X46462441Y-40400628D01*
X46462441Y-40400628D02*
X46461668Y-40551993D01*
X46461668Y-40551993D02*
X46530745Y-40747717D01*
X46530745Y-40747717D02*
X46660265Y-40973451D01*
X46660265Y-40973451D02*
X46840822Y-41214846D01*
X46840822Y-41214846D02*
X47063011Y-41457553D01*
X47063011Y-41457553D02*
X47292111Y-41666343D01*
X47292111Y-41666343D02*
X47452780Y-41803049D01*
X47452780Y-41803049D02*
X47548282Y-41895573D01*
X47548282Y-41895573D02*
X47590495Y-41960378D01*
X47590495Y-41960378D02*
X47591291Y-42013927D01*
X47591291Y-42013927D02*
X47572620Y-42055235D01*
X47572620Y-42055235D02*
X47513950Y-42124923D01*
X47513950Y-42124923D02*
X47465124Y-42136771D01*
X47465124Y-42136771D02*
X47378117Y-42129241D01*
X47378117Y-42129241D02*
X47331667Y-42138983D01*
X47331667Y-42138983D02*
X47268267Y-42198044D01*
X47268267Y-42198044D02*
X47247498Y-42292602D01*
X47247498Y-42292602D02*
X47274989Y-42376681D01*
X47274989Y-42376681D02*
X47300105Y-42396754D01*
X47300105Y-42396754D02*
X47343212Y-42452627D01*
X47343212Y-42452627D02*
X47350818Y-42530160D01*
X47350818Y-42530160D02*
X47322925Y-42586472D01*
X47322925Y-42586472D02*
X47300105Y-42593483D01*
X47300105Y-42593483D02*
X47262236Y-42631405D01*
X47262236Y-42631405D02*
X47246631Y-42721733D01*
X47246631Y-42721733D02*
X47263907Y-42816390D01*
X47263907Y-42816390D02*
X47336559Y-42856051D01*
X47336559Y-42856051D02*
X47393684Y-42863815D01*
X47393684Y-42863815D02*
X47502026Y-42890945D01*
X47502026Y-42890945D02*
X47525127Y-42951788D01*
X47525127Y-42951788D02*
X47524036Y-42957671D01*
X47524036Y-42957671D02*
X47538911Y-43055017D01*
X47538911Y-43055017D02*
X47582292Y-43132542D01*
X47582292Y-43132542D02*
X47656749Y-43263144D01*
X47656749Y-43263144D02*
X47696744Y-43406151D01*
X47696744Y-43406151D02*
X47695912Y-43528377D01*
X47695912Y-43528377D02*
X47668632Y-43582834D01*
X47668632Y-43582834D02*
X47632494Y-43673123D01*
X47632494Y-43673123D02*
X47690101Y-43759934D01*
X47690101Y-43759934D02*
X47804658Y-43816509D01*
X47804658Y-43816509D02*
X47929673Y-43900526D01*
X47929673Y-43900526D02*
X47982908Y-44001653D01*
X47982908Y-44001653D02*
X48039298Y-44109500D01*
X48039298Y-44109500D02*
X48134539Y-44154647D01*
X48134539Y-44154647D02*
X48165311Y-44158757D01*
X48165311Y-44158757D02*
X48292532Y-44143101D01*
X48292532Y-44143101D02*
X48336933Y-44098569D01*
X48336933Y-44098569D02*
X48334234Y-44002208D01*
X48334234Y-44002208D02*
X48254028Y-43928063D01*
X48254028Y-43928063D02*
X48151018Y-43905015D01*
X48151018Y-43905015D02*
X48046564Y-43867826D01*
X48046564Y-43867826D02*
X47981153Y-43781886D01*
X47981153Y-43781886D02*
X47981239Y-43694826D01*
X47981239Y-43694826D02*
X47968932Y-43620209D01*
X47968932Y-43620209D02*
X47924706Y-43563673D01*
X47924706Y-43563673D02*
X47847750Y-43461430D01*
X47847750Y-43461430D02*
X47812799Y-43380403D01*
X47812799Y-43380403D02*
X47809558Y-43300100D01*
X47809558Y-43300100D02*
X47867230Y-43234121D01*
X47867230Y-43234121D02*
X47972676Y-43172790D01*
X47972676Y-43172790D02*
X48112476Y-43111810D01*
X48112476Y-43111810D02*
X48211730Y-43103176D01*
X48211730Y-43103176D02*
X48270947Y-43121735D01*
X48270947Y-43121735D02*
X48347701Y-43180955D01*
X48347701Y-43180955D02*
X48346226Y-43275413D01*
X48346226Y-43275413D02*
X48343991Y-43282930D01*
X48343991Y-43282930D02*
X48287480Y-43388046D01*
X48287480Y-43388046D02*
X48226534Y-43446169D01*
X48226534Y-43446169D02*
X48165114Y-43526846D01*
X48165114Y-43526846D02*
X48185729Y-43621553D01*
X48185729Y-43621553D02*
X48279425Y-43698369D01*
X48279425Y-43698369D02*
X48299558Y-43706494D01*
X48299558Y-43706494D02*
X48422511Y-43789003D01*
X48422511Y-43789003D02*
X48498547Y-43911006D01*
X48498547Y-43911006D02*
X48504066Y-44033781D01*
X48504066Y-44033781D02*
X48502181Y-44038956D01*
X48502181Y-44038956D02*
X48515761Y-44129795D01*
X48515761Y-44129795D02*
X48597822Y-44221496D01*
X48597822Y-44221496D02*
X48716182Y-44285393D01*
X48716182Y-44285393D02*
X48793548Y-44298475D01*
X48793548Y-44298475D02*
X48934154Y-44259577D01*
X48934154Y-44259577D02*
X49034477Y-44161542D01*
X49034477Y-44161542D02*
X49064736Y-44055913D01*
X49064736Y-44055913D02*
X49017924Y-43949383D01*
X49017924Y-43949383D02*
X48904130Y-43866487D01*
X48904130Y-43866487D02*
X48763322Y-43830870D01*
X48763322Y-43830870D02*
X48696296Y-43837914D01*
X48696296Y-43837914D02*
X48589341Y-43832826D01*
X48589341Y-43832826D02*
X48533256Y-43778837D01*
X48533256Y-43778837D02*
X48488080Y-43699678D01*
X48488080Y-43699678D02*
X48476526Y-43666609D01*
X48476526Y-43666609D02*
X48518418Y-43653808D01*
X48518418Y-43653808D02*
X48618424Y-43669209D01*
X48618424Y-43669209D02*
X48738037Y-43703528D01*
X48738037Y-43703528D02*
X48838751Y-43747480D01*
X48838751Y-43747480D02*
X48855052Y-43757875D01*
X48855052Y-43757875D02*
X48974367Y-43813010D01*
X48974367Y-43813010D02*
X49076553Y-43786236D01*
X49076553Y-43786236D02*
X49121814Y-43748453D01*
X49121814Y-43748453D02*
X49164488Y-43673031D01*
X49164488Y-43673031D02*
X49128361Y-43596034D01*
X49128361Y-43596034D02*
X49091649Y-43505216D01*
X49091649Y-43505216D02*
X49068869Y-43366410D01*
X49068869Y-43366410D02*
X49065154Y-43282631D01*
X49065154Y-43282631D02*
X49068891Y-43203132D01*
X49068891Y-43203132D02*
X48959003Y-43203132D01*
X48959003Y-43203132D02*
X48951058Y-43340352D01*
X48951058Y-43340352D02*
X48930357Y-43464058D01*
X48930357Y-43464058D02*
X48899066Y-43541077D01*
X48899066Y-43541077D02*
X48893621Y-43546530D01*
X48893621Y-43546530D02*
X48766114Y-43595788D01*
X48766114Y-43595788D02*
X48612879Y-43565834D01*
X48612879Y-43565834D02*
X48531833Y-43521561D01*
X48531833Y-43521561D02*
X48448013Y-43437863D01*
X48448013Y-43437863D02*
X48449250Y-43332383D01*
X48449250Y-43332383D02*
X48451496Y-43324831D01*
X48451496Y-43324831D02*
X48500318Y-43238226D01*
X48500318Y-43238226D02*
X48558930Y-43205532D01*
X48558930Y-43205532D02*
X48631453Y-43169331D01*
X48631453Y-43169331D02*
X48661851Y-43122816D01*
X48661851Y-43122816D02*
X48725602Y-43053677D01*
X48725602Y-43053677D02*
X48825865Y-43010959D01*
X48825865Y-43010959D02*
X48914977Y-43012926D01*
X48914977Y-43012926D02*
X48927956Y-43020843D01*
X48927956Y-43020843D02*
X48952024Y-43085571D01*
X48952024Y-43085571D02*
X48959003Y-43203132D01*
X48959003Y-43203132D02*
X49068891Y-43203132D01*
X49068891Y-43203132D02*
X49071698Y-43143443D01*
X49071698Y-43143443D02*
X49099325Y-43064227D01*
X49099325Y-43064227D02*
X49160997Y-43017770D01*
X49160997Y-43017770D02*
X49198838Y-43001986D01*
X49198838Y-43001986D02*
X49332105Y-42951452D01*
X49332105Y-42951452D02*
X49332105Y-43429687D01*
X49332105Y-43429687D02*
X49334861Y-43651755D01*
X49334861Y-43651755D02*
X49346147Y-43810167D01*
X49346147Y-43810167D02*
X49370491Y-43928638D01*
X49370491Y-43928638D02*
X49412419Y-44030886D01*
X49412419Y-44030886D02*
X49464017Y-44120744D01*
X49464017Y-44120744D02*
X49624400Y-44328687D01*
X49624400Y-44328687D02*
X49803322Y-44456930D01*
X49803322Y-44456930D02*
X50012900Y-44513054D01*
X50012900Y-44513054D02*
X50097579Y-44517064D01*
X50097579Y-44517064D02*
X50235258Y-44507421D01*
X50235258Y-44507421D02*
X50346653Y-44467567D01*
X50346653Y-44467567D02*
X50469540Y-44381116D01*
X50469540Y-44381116D02*
X50531526Y-44328822D01*
X50531526Y-44328822D02*
X50691536Y-44199286D01*
X50691536Y-44199286D02*
X50860056Y-44076163D01*
X50860056Y-44076163D02*
X50942244Y-44022249D01*
X50942244Y-44022249D02*
X51135330Y-43903916D01*
X51135330Y-43903916D02*
X51491735Y-44040270D01*
X51491735Y-44040270D02*
X51750368Y-44126182D01*
X51750368Y-44126182D02*
X51947540Y-44160283D01*
X51947540Y-44160283D02*
X52033911Y-44158892D01*
X52033911Y-44158892D02*
X52219684Y-44141161D01*
X52219684Y-44141161D02*
X52219684Y-45566289D01*
X52219684Y-45566289D02*
X30562842Y-45566289D01*
X30562842Y-45566289D02*
X30562842Y-38221711D01*
X30562842Y-38221711D02*
X52219684Y-38221711D01*
X52219684Y-38221711D02*
X52433578Y-38221711D01*
X52433578Y-38221711D02*
X52433578Y-38090558D01*
X52433578Y-38090558D02*
X30402421Y-38090558D01*
X30402421Y-38090558D02*
X30402421Y-45697442D01*
G36*
X30402421Y-45697442D02*
G01*
X30402421Y-38221711D01*
X30562842Y-38221711D01*
X30562842Y-45566289D01*
X52219684Y-45566289D01*
X52219684Y-44141161D01*
X52033911Y-44158892D01*
X51947540Y-44160283D01*
X51750368Y-44126182D01*
X51491735Y-44040270D01*
X51135330Y-43903916D01*
X50942244Y-44022249D01*
X50860056Y-44076163D01*
X50691536Y-44199286D01*
X50531526Y-44328822D01*
X50469540Y-44381116D01*
X50346653Y-44467567D01*
X50235258Y-44507421D01*
X50097579Y-44517064D01*
X50012900Y-44513054D01*
X49803322Y-44456930D01*
X49624400Y-44328687D01*
X49464017Y-44120744D01*
X49412419Y-44030886D01*
X49370491Y-43928638D01*
X49346147Y-43810167D01*
X49335774Y-43664568D01*
X49572736Y-43664568D01*
X49575769Y-43867951D01*
X49576289Y-43887808D01*
X49612878Y-44067290D01*
X49720279Y-44222980D01*
X49788705Y-44287204D01*
X49893868Y-44361115D01*
X49986231Y-44403916D01*
X50043724Y-44406337D01*
X50044278Y-44359103D01*
X50045863Y-44318963D01*
X50129308Y-44298475D01*
X50208271Y-44276980D01*
X50344424Y-44217200D01*
X50511063Y-44132745D01*
X50683553Y-44037274D01*
X50837261Y-43944446D01*
X50947551Y-43867921D01*
X50989789Y-43821359D01*
X50983567Y-43790528D01*
X50917247Y-43756456D01*
X50771869Y-43774806D01*
X50694729Y-43790304D01*
X50630225Y-43782973D01*
X50615473Y-43727093D01*
X50606764Y-43679222D01*
X50566456Y-43642709D01*
X50508707Y-43669539D01*
X50496863Y-43745948D01*
X50544018Y-43843255D01*
X50573093Y-43884271D01*
X50578993Y-43930230D01*
X50581632Y-43950793D01*
X50515392Y-44029697D01*
X50433700Y-44086469D01*
X50321165Y-44095632D01*
X50261568Y-44088514D01*
X50178407Y-44138709D01*
X50110701Y-44185861D01*
X49984500Y-44209710D01*
X49919587Y-44207911D01*
X49881384Y-44195672D01*
X49933684Y-44163820D01*
X50010875Y-44109536D01*
X50014712Y-44057905D01*
X49930536Y-44036169D01*
X49851284Y-44023158D01*
X49730009Y-43971982D01*
X49678935Y-43939164D01*
X50104681Y-43939164D01*
X50170956Y-43956808D01*
X50294333Y-43966702D01*
X50408311Y-43959712D01*
X50454772Y-43930230D01*
X50404038Y-43884399D01*
X50390809Y-43879728D01*
X50306791Y-43876097D01*
X50202983Y-43889936D01*
X50121557Y-43913530D01*
X50104681Y-43939164D01*
X49678935Y-43939164D01*
X49673351Y-43935576D01*
X49662010Y-43911225D01*
X49743370Y-43906406D01*
X49818969Y-43897093D01*
X49893578Y-43861298D01*
X49924689Y-43838783D01*
X50024636Y-43817580D01*
X50024904Y-43817580D01*
X50132220Y-43788913D01*
X50270596Y-43717407D01*
X50408748Y-43624167D01*
X50515390Y-43530299D01*
X50559240Y-43456909D01*
X50552516Y-43416353D01*
X50538168Y-43404627D01*
X51424478Y-43404627D01*
X51450497Y-43461864D01*
X51551263Y-43538930D01*
X51614726Y-43578594D01*
X51786797Y-43671518D01*
X51970969Y-43757396D01*
X52122078Y-43821359D01*
X52230255Y-43867150D01*
X52088721Y-43656565D01*
X52029268Y-43574775D01*
X51885992Y-43403190D01*
X51737452Y-43249249D01*
X51644773Y-43164340D01*
X51569586Y-43106400D01*
X51535043Y-43104429D01*
X51526122Y-43151478D01*
X51520793Y-43181107D01*
X51512875Y-43225142D01*
X51457684Y-43340327D01*
X51424478Y-43404627D01*
X50538168Y-43404627D01*
X50508526Y-43380403D01*
X50495782Y-43381636D01*
X50455052Y-43423112D01*
X50454541Y-43429404D01*
X50396791Y-43495990D01*
X50262113Y-43560439D01*
X50077329Y-43612697D01*
X49869261Y-43642709D01*
X49572736Y-43664568D01*
X49335774Y-43664568D01*
X49334861Y-43651755D01*
X49332610Y-43470418D01*
X49546000Y-43470418D01*
X49558346Y-43518269D01*
X49612842Y-43549118D01*
X49827963Y-43528445D01*
X50058245Y-43501464D01*
X50209264Y-43473624D01*
X50297155Y-43440308D01*
X50338057Y-43396899D01*
X50348105Y-43338782D01*
X50359985Y-43293194D01*
X50428315Y-43233440D01*
X50465264Y-43214273D01*
X50483587Y-43183378D01*
X51171698Y-43183378D01*
X51175499Y-43247334D01*
X51188254Y-43261025D01*
X51261992Y-43292967D01*
X51263642Y-43292947D01*
X51327079Y-43256375D01*
X51353414Y-43181107D01*
X51326160Y-43113305D01*
X51292003Y-43100312D01*
X51222044Y-43124130D01*
X51171698Y-43183378D01*
X50483587Y-43183378D01*
X50508526Y-43141327D01*
X50514832Y-43109882D01*
X50562000Y-43074378D01*
X50610703Y-43057310D01*
X50609592Y-43052520D01*
X50775894Y-43052520D01*
X50781754Y-43057310D01*
X50802631Y-43074378D01*
X50814973Y-43064288D01*
X50944560Y-43064288D01*
X50991699Y-43073709D01*
X51014473Y-43072835D01*
X51119078Y-43049229D01*
X51173580Y-43007237D01*
X51150788Y-42965376D01*
X51092293Y-42960509D01*
X50999936Y-43003629D01*
X50977501Y-43022454D01*
X50953826Y-43052520D01*
X50944560Y-43064288D01*
X50814973Y-43064288D01*
X50829368Y-43052520D01*
X50802631Y-43030661D01*
X50775894Y-43052520D01*
X50609592Y-43052520D01*
X50600142Y-43011776D01*
X50526556Y-42968402D01*
X50453986Y-42968114D01*
X50345698Y-43013018D01*
X50247437Y-43087738D01*
X50187756Y-43169319D01*
X50195209Y-43234804D01*
X50197627Y-43237209D01*
X50219121Y-43281276D01*
X50147305Y-43292967D01*
X50080994Y-43302848D01*
X49973789Y-43358544D01*
X49880533Y-43410312D01*
X49763507Y-43420550D01*
X49679145Y-43379689D01*
X49625431Y-43352200D01*
X49570564Y-43387354D01*
X49546000Y-43470418D01*
X49332610Y-43470418D01*
X49332105Y-43429687D01*
X49332105Y-42951452D01*
X49198838Y-43001986D01*
X49160997Y-43017770D01*
X49099325Y-43064227D01*
X49071698Y-43143443D01*
X49068891Y-43203132D01*
X49065154Y-43282631D01*
X49068869Y-43366410D01*
X49091649Y-43505216D01*
X49128361Y-43596034D01*
X49164488Y-43673031D01*
X49121814Y-43748453D01*
X49076553Y-43786236D01*
X48974367Y-43813010D01*
X48855052Y-43757875D01*
X48838751Y-43747480D01*
X48738037Y-43703528D01*
X48618424Y-43669209D01*
X48518418Y-43653808D01*
X48476526Y-43666609D01*
X48488080Y-43699678D01*
X48533256Y-43778837D01*
X48589341Y-43832826D01*
X48696296Y-43837914D01*
X48763322Y-43830870D01*
X48904130Y-43866487D01*
X49017924Y-43949383D01*
X49064736Y-44055913D01*
X49034477Y-44161542D01*
X48934154Y-44259577D01*
X48793548Y-44298475D01*
X48716182Y-44285393D01*
X48597822Y-44221496D01*
X48515761Y-44129795D01*
X48502181Y-44038956D01*
X48504066Y-44033781D01*
X48498547Y-43911006D01*
X48422511Y-43789003D01*
X48299558Y-43706494D01*
X48279425Y-43698369D01*
X48185729Y-43621553D01*
X48165114Y-43526846D01*
X48226534Y-43446169D01*
X48235243Y-43437863D01*
X48448013Y-43437863D01*
X48531833Y-43521561D01*
X48612879Y-43565834D01*
X48766114Y-43595788D01*
X48893621Y-43546530D01*
X48899066Y-43541077D01*
X48930357Y-43464058D01*
X48951058Y-43340352D01*
X48959003Y-43203132D01*
X48952024Y-43085571D01*
X48927956Y-43020843D01*
X48914977Y-43012926D01*
X48825865Y-43010959D01*
X48725602Y-43053677D01*
X48661851Y-43122816D01*
X48631453Y-43169331D01*
X48558930Y-43205532D01*
X48500318Y-43238226D01*
X48451496Y-43324831D01*
X48449250Y-43332383D01*
X48448013Y-43437863D01*
X48235243Y-43437863D01*
X48287480Y-43388046D01*
X48343991Y-43282930D01*
X48346226Y-43275413D01*
X48347701Y-43180955D01*
X48270947Y-43121735D01*
X48211730Y-43103176D01*
X48112476Y-43111810D01*
X47972676Y-43172790D01*
X47867230Y-43234121D01*
X47809558Y-43300100D01*
X47812799Y-43380403D01*
X47847750Y-43461430D01*
X47924706Y-43563673D01*
X47968932Y-43620209D01*
X47981239Y-43694826D01*
X47981153Y-43781886D01*
X48046564Y-43867826D01*
X48151018Y-43905015D01*
X48254028Y-43928063D01*
X48334234Y-44002208D01*
X48336933Y-44098569D01*
X48292532Y-44143101D01*
X48165311Y-44158757D01*
X48134539Y-44154647D01*
X48039298Y-44109500D01*
X47982908Y-44001653D01*
X47929673Y-43900526D01*
X47804658Y-43816509D01*
X47690101Y-43759934D01*
X47632494Y-43673123D01*
X47668632Y-43582834D01*
X47695912Y-43528377D01*
X47696744Y-43406151D01*
X47656749Y-43263144D01*
X47582292Y-43132542D01*
X47538911Y-43055017D01*
X47524036Y-42957671D01*
X47525127Y-42951788D01*
X47502026Y-42890945D01*
X47393684Y-42863815D01*
X47336559Y-42856051D01*
X47263907Y-42816390D01*
X47253726Y-42760609D01*
X47573628Y-42760609D01*
X47612810Y-42787559D01*
X47746309Y-42782849D01*
X47809973Y-42776377D01*
X47929768Y-42791298D01*
X48027046Y-42864427D01*
X48139162Y-42957953D01*
X48268978Y-43000415D01*
X48383009Y-42957227D01*
X48452569Y-42918953D01*
X48563866Y-42933050D01*
X48657430Y-42958417D01*
X48758415Y-42939117D01*
X48797368Y-42860244D01*
X48793488Y-42838953D01*
X48774422Y-42819103D01*
X49522384Y-42819103D01*
X49538898Y-42860244D01*
X49545855Y-42877576D01*
X49571954Y-42882682D01*
X49599473Y-42841188D01*
X49611093Y-42805889D01*
X49686128Y-42750523D01*
X49703834Y-42745465D01*
X49750727Y-42752128D01*
X49740332Y-42822352D01*
X49722267Y-42893382D01*
X49707151Y-43018359D01*
X49690401Y-43083708D01*
X49626210Y-43090188D01*
X49566303Y-43093992D01*
X49547295Y-43149012D01*
X49586924Y-43230579D01*
X49614653Y-43257573D01*
X49714403Y-43302163D01*
X49815130Y-43299837D01*
X49882875Y-43256572D01*
X49883679Y-43178346D01*
X49879146Y-43148893D01*
X49927963Y-43116913D01*
X49934760Y-43116362D01*
X50022666Y-43080270D01*
X50143356Y-43003962D01*
X50266776Y-42910078D01*
X50362869Y-42821259D01*
X50401578Y-42760145D01*
X50403143Y-42753604D01*
X50447940Y-42757405D01*
X50535263Y-42812072D01*
X50595509Y-42855476D01*
X50658338Y-42884320D01*
X50654573Y-42846712D01*
X50582586Y-42744957D01*
X50572279Y-42732808D01*
X50465147Y-42657230D01*
X50350746Y-42639438D01*
X50264111Y-42685924D01*
X50247668Y-42698374D01*
X50131847Y-42716248D01*
X49916490Y-42705900D01*
X49790932Y-42695604D01*
X49664107Y-42694512D01*
X49593445Y-42715675D01*
X49548969Y-42763818D01*
X49522384Y-42819103D01*
X48774422Y-42819103D01*
X48721783Y-42764299D01*
X48584181Y-42703290D01*
X48412924Y-42667111D01*
X48240253Y-42666950D01*
X48220073Y-42669346D01*
X48077025Y-42671412D01*
X47982347Y-42648950D01*
X47902108Y-42630524D01*
X47741263Y-42665274D01*
X47629200Y-42712227D01*
X47573628Y-42760609D01*
X47253726Y-42760609D01*
X47246631Y-42721733D01*
X47262236Y-42631405D01*
X47300105Y-42593483D01*
X47322925Y-42586472D01*
X47350818Y-42530160D01*
X47345591Y-42476878D01*
X47474140Y-42476878D01*
X47478479Y-42568675D01*
X47480901Y-42573732D01*
X47524033Y-42625339D01*
X47596636Y-42625151D01*
X47727576Y-42573757D01*
X47823164Y-42508605D01*
X47892113Y-42411364D01*
X47901949Y-42320796D01*
X47876495Y-42201769D01*
X47834361Y-42130237D01*
X47969393Y-42130237D01*
X47974299Y-42174701D01*
X48029398Y-42220055D01*
X48150710Y-42243742D01*
X48257539Y-42252874D01*
X48345515Y-42280869D01*
X48390993Y-42294049D01*
X48507627Y-42280046D01*
X48641414Y-42235204D01*
X48751585Y-42174630D01*
X48797368Y-42113432D01*
X48796968Y-42105338D01*
X48744854Y-42009382D01*
X48634731Y-41928209D01*
X48508905Y-41894000D01*
X48448603Y-41888230D01*
X48321235Y-41852527D01*
X48279681Y-41838100D01*
X48147987Y-41830327D01*
X48040023Y-41868877D01*
X47995263Y-41942816D01*
X48002649Y-41988693D01*
X48038516Y-42025153D01*
X48089827Y-42040674D01*
X48185569Y-42092790D01*
X48188417Y-42094647D01*
X48247832Y-42137840D01*
X48227746Y-42148235D01*
X48115631Y-42133043D01*
X48030237Y-42122022D01*
X47969393Y-42130237D01*
X47834361Y-42130237D01*
X47820867Y-42107328D01*
X47748254Y-42068871D01*
X47678470Y-42103032D01*
X47613142Y-42189095D01*
X47562055Y-42289753D01*
X47500236Y-42404734D01*
X47474140Y-42476878D01*
X47345591Y-42476878D01*
X47343212Y-42452627D01*
X47300105Y-42396754D01*
X47274989Y-42376681D01*
X47247498Y-42292602D01*
X47268267Y-42198044D01*
X47331667Y-42138983D01*
X47378117Y-42129241D01*
X47465124Y-42136771D01*
X47513950Y-42124923D01*
X47572620Y-42055235D01*
X47591291Y-42013927D01*
X47590495Y-41960378D01*
X47548282Y-41895573D01*
X47452780Y-41803049D01*
X47292111Y-41666343D01*
X47063011Y-41457553D01*
X46840822Y-41214846D01*
X46660265Y-40973451D01*
X46530745Y-40747717D01*
X46461668Y-40551993D01*
X46462225Y-40442848D01*
X46780614Y-40442848D01*
X46798116Y-40525529D01*
X46847764Y-40647921D01*
X46954976Y-40843556D01*
X47097952Y-41065208D01*
X47260859Y-41288639D01*
X47427865Y-41489611D01*
X47455871Y-41520486D01*
X47571505Y-41643714D01*
X47658937Y-41730209D01*
X47701047Y-41762847D01*
X47711997Y-41759392D01*
X47725443Y-41702349D01*
X47704840Y-41592041D01*
X47680277Y-41524234D01*
X47807719Y-41524234D01*
X47826941Y-41628721D01*
X47831263Y-41644855D01*
X47871874Y-41743156D01*
X47916427Y-41789237D01*
X47957446Y-41790311D01*
X48065224Y-41761785D01*
X48165158Y-41710034D01*
X48209157Y-41656813D01*
X48183067Y-41622885D01*
X48094554Y-41564476D01*
X47978490Y-41505859D01*
X47871918Y-41465290D01*
X47811879Y-41461023D01*
X47809607Y-41464018D01*
X47807719Y-41524234D01*
X47680277Y-41524234D01*
X47653518Y-41450365D01*
X47642363Y-41418347D01*
X48035520Y-41418347D01*
X48095606Y-41450391D01*
X48216441Y-41486198D01*
X48352662Y-41461119D01*
X48457704Y-41441136D01*
X48601120Y-41467614D01*
X48714165Y-41541687D01*
X48771515Y-41644403D01*
X48768901Y-41656813D01*
X48747843Y-41756814D01*
X48737657Y-41774026D01*
X48733465Y-41847170D01*
X48812804Y-41927321D01*
X48920376Y-41991438D01*
X49038000Y-42032317D01*
X49110635Y-42062414D01*
X49129161Y-42113432D01*
X49144947Y-42156905D01*
X49136333Y-42219618D01*
X49084156Y-42258541D01*
X48956795Y-42270176D01*
X48931947Y-42271210D01*
X48756870Y-42298358D01*
X48687480Y-42320796D01*
X48592556Y-42351491D01*
X48470713Y-42417862D01*
X48423052Y-42484725D01*
X48441101Y-42520369D01*
X48531162Y-42580132D01*
X48660387Y-42629133D01*
X48787445Y-42653211D01*
X48871004Y-42638205D01*
X48938612Y-42609534D01*
X49064736Y-42593483D01*
X49167944Y-42605548D01*
X49267936Y-42645945D01*
X49278456Y-42652767D01*
X49304315Y-42642086D01*
X49320815Y-42574981D01*
X49324926Y-42511980D01*
X49546000Y-42511980D01*
X49546211Y-42521403D01*
X49574335Y-42573925D01*
X49668403Y-42570033D01*
X49771684Y-42562977D01*
X49922403Y-42584334D01*
X50000421Y-42597800D01*
X50143488Y-42583890D01*
X50224993Y-42560695D01*
X50616278Y-42560695D01*
X50618759Y-42568751D01*
X50645137Y-42635583D01*
X50690874Y-42744965D01*
X50735995Y-42838988D01*
X50773893Y-42884320D01*
X50802316Y-42918319D01*
X50871851Y-42916809D01*
X50954822Y-42838065D01*
X50961709Y-42829416D01*
X51150210Y-42829416D01*
X51154017Y-42835846D01*
X51214090Y-42881826D01*
X51324000Y-42949470D01*
X51396327Y-42989197D01*
X51445816Y-43007237D01*
X51446959Y-43007654D01*
X51421976Y-42971919D01*
X51359532Y-42920093D01*
X51265807Y-42861756D01*
X51184750Y-42825614D01*
X51150210Y-42829416D01*
X50961709Y-42829416D01*
X50965897Y-42824157D01*
X51009201Y-42754067D01*
X50986852Y-42704003D01*
X50920540Y-42661240D01*
X51269917Y-42661240D01*
X51311196Y-42747052D01*
X51319365Y-42754067D01*
X51351206Y-42781412D01*
X51437307Y-42813484D01*
X51486511Y-42769794D01*
X51483900Y-42658033D01*
X51478424Y-42639277D01*
X51420013Y-42565510D01*
X51341025Y-42555366D01*
X51276234Y-42615899D01*
X51269917Y-42661240D01*
X50920540Y-42661240D01*
X50887169Y-42639720D01*
X50869392Y-42629621D01*
X50747321Y-42572556D01*
X50652766Y-42546609D01*
X50616278Y-42560695D01*
X50224993Y-42560695D01*
X50346437Y-42526134D01*
X50348116Y-42525573D01*
X50414125Y-42499044D01*
X50775894Y-42499044D01*
X50776225Y-42501160D01*
X50827329Y-42537859D01*
X50939050Y-42580945D01*
X51102206Y-42631294D01*
X51069611Y-42426588D01*
X51057999Y-42350098D01*
X51052594Y-42273148D01*
X51071590Y-42262920D01*
X51120350Y-42306745D01*
X51172407Y-42372377D01*
X51203684Y-42448827D01*
X51203913Y-42464032D01*
X51216763Y-42498674D01*
X51270589Y-42497093D01*
X51394557Y-42461175D01*
X51396443Y-42460589D01*
X51476284Y-42430422D01*
X51514574Y-42387953D01*
X51520456Y-42308391D01*
X51503072Y-42166949D01*
X51487121Y-42075975D01*
X51419476Y-41876641D01*
X51317119Y-41758235D01*
X51178870Y-41719129D01*
X51051125Y-41741334D01*
X51012814Y-41796921D01*
X51009278Y-41802052D01*
X51064878Y-41889373D01*
X51107152Y-41940664D01*
X51111362Y-41945772D01*
X51114678Y-41995912D01*
X51105730Y-42006517D01*
X51137694Y-42025153D01*
X51178621Y-42008457D01*
X51230421Y-41937718D01*
X51260751Y-41879465D01*
X51308507Y-41852576D01*
X51344279Y-41900104D01*
X51355297Y-42014224D01*
X51354976Y-42024893D01*
X51363787Y-42167876D01*
X51390539Y-42287459D01*
X51405415Y-42333681D01*
X51394476Y-42352630D01*
X51335871Y-42318906D01*
X51215791Y-42227793D01*
X51211820Y-42224699D01*
X51059214Y-42122039D01*
X50957372Y-42094198D01*
X50900510Y-42141833D01*
X50882842Y-42265601D01*
X50882694Y-42276680D01*
X50865788Y-42382233D01*
X50829368Y-42440471D01*
X50814172Y-42449455D01*
X50775894Y-42499044D01*
X50414125Y-42499044D01*
X50577504Y-42433382D01*
X50710970Y-42336520D01*
X50759068Y-42222780D01*
X50732355Y-42079961D01*
X50721966Y-42049258D01*
X50703761Y-41957361D01*
X50706651Y-41893117D01*
X50726940Y-41876327D01*
X50760934Y-41926788D01*
X50764312Y-41933313D01*
X50824236Y-41973746D01*
X50899387Y-41977606D01*
X50936315Y-41940664D01*
X50932817Y-41926402D01*
X50865076Y-41883218D01*
X50739846Y-41863538D01*
X50595200Y-41874721D01*
X50503182Y-41909088D01*
X50422156Y-42004046D01*
X50432824Y-42128289D01*
X50435375Y-42181276D01*
X50386356Y-42199269D01*
X50322045Y-42157201D01*
X50320269Y-42154958D01*
X50256865Y-42135092D01*
X50177412Y-42173030D01*
X50109504Y-42247971D01*
X50080736Y-42339113D01*
X50074020Y-42408524D01*
X50040933Y-42473353D01*
X49996836Y-42468060D01*
X49960604Y-42385378D01*
X49934731Y-42290327D01*
X49891858Y-42181505D01*
X49885886Y-42169638D01*
X49875994Y-42118333D01*
X49936056Y-42124948D01*
X49986328Y-42133130D01*
X50055443Y-42110679D01*
X50089243Y-42088023D01*
X50190840Y-42068871D01*
X50232014Y-42064711D01*
X50289104Y-42023603D01*
X50272544Y-41963331D01*
X50183757Y-41914840D01*
X50104554Y-41908231D01*
X50002386Y-41964890D01*
X49916495Y-42019637D01*
X49779050Y-42052739D01*
X49664406Y-42059828D01*
X49586105Y-42065319D01*
X49559841Y-42094511D01*
X49546000Y-42178165D01*
X49560370Y-42230256D01*
X49569083Y-42261844D01*
X49652947Y-42287459D01*
X49715156Y-42296440D01*
X49759894Y-42335270D01*
X49739736Y-42367433D01*
X49652947Y-42405945D01*
X49591394Y-42433980D01*
X49546000Y-42511980D01*
X49324926Y-42511980D01*
X49329548Y-42441141D01*
X49332105Y-42230256D01*
X49331966Y-42124692D01*
X49329526Y-41954674D01*
X49321409Y-41852219D01*
X49304266Y-41803753D01*
X49274746Y-41795703D01*
X49229500Y-41814493D01*
X49161496Y-41837506D01*
X49052534Y-41821707D01*
X48983887Y-41745029D01*
X48978237Y-41624612D01*
X48986890Y-41551338D01*
X48947311Y-41490307D01*
X48829501Y-41434127D01*
X48615980Y-41385880D01*
X48309812Y-41378080D01*
X48283068Y-41379124D01*
X48114733Y-41387615D01*
X48037056Y-41399056D01*
X48035520Y-41418347D01*
X47642363Y-41418347D01*
X47626862Y-41373854D01*
X47621349Y-41247506D01*
X47671636Y-41171576D01*
X47765583Y-41157920D01*
X47891047Y-41218396D01*
X47903511Y-41226856D01*
X47995333Y-41260447D01*
X48145048Y-41274948D01*
X48376521Y-41273044D01*
X48770631Y-41260093D01*
X48559983Y-41153048D01*
X48499673Y-41124755D01*
X48350170Y-41071650D01*
X48239141Y-41054552D01*
X48172200Y-41059064D01*
X47982331Y-41067472D01*
X47768170Y-41072691D01*
X47555944Y-41074600D01*
X47371881Y-41073082D01*
X47242210Y-41068017D01*
X47193157Y-41059288D01*
X47221730Y-41020551D01*
X47301694Y-40952893D01*
X47321156Y-40938383D01*
X47366315Y-40895255D01*
X47364167Y-40851691D01*
X47305569Y-40786990D01*
X47181378Y-40680448D01*
X47179618Y-40679030D01*
X48336486Y-40679030D01*
X48345824Y-40761284D01*
X48363956Y-40774420D01*
X48465084Y-40795899D01*
X48607541Y-40799119D01*
X48745712Y-40784794D01*
X48833980Y-40753638D01*
X48872056Y-40731089D01*
X48990428Y-40716373D01*
X49102700Y-40753358D01*
X49161560Y-40830887D01*
X49160988Y-40879269D01*
X49102804Y-40959718D01*
X48994624Y-40989515D01*
X48871597Y-40953765D01*
X48800392Y-40924613D01*
X48667732Y-40898942D01*
X48526901Y-40890394D01*
X48415111Y-40900633D01*
X48369578Y-40931321D01*
X48400705Y-40967896D01*
X48502810Y-41026075D01*
X48642600Y-41085659D01*
X48785176Y-41132087D01*
X48895637Y-41150798D01*
X49003290Y-41175353D01*
X49088669Y-41253595D01*
X49089203Y-41260093D01*
X49097112Y-41356360D01*
X49087250Y-41403735D01*
X49106062Y-41478681D01*
X49145170Y-41514489D01*
X49238526Y-41582399D01*
X49274758Y-41601075D01*
X49301261Y-41594809D01*
X49318050Y-41549980D01*
X49327323Y-41454370D01*
X49331275Y-41295763D01*
X49332105Y-41061940D01*
X49332102Y-41036263D01*
X49331259Y-40810190D01*
X49327317Y-40658401D01*
X49317963Y-40568884D01*
X49300886Y-40529625D01*
X49273774Y-40528613D01*
X49234315Y-40553833D01*
X49093091Y-40616669D01*
X48948690Y-40611969D01*
X48838432Y-40538750D01*
X48823913Y-40521576D01*
X48743615Y-40464720D01*
X48669507Y-40452989D01*
X48636947Y-40494200D01*
X48605450Y-40528589D01*
X48507132Y-40563722D01*
X48407843Y-40602301D01*
X48336486Y-40679030D01*
X47179618Y-40679030D01*
X47073705Y-40593697D01*
X46944985Y-40499192D01*
X46857225Y-40445660D01*
X46807992Y-40427057D01*
X46780614Y-40442848D01*
X46462225Y-40442848D01*
X46462441Y-40400628D01*
X46478294Y-40364947D01*
X46553854Y-40254021D01*
X46660504Y-40134361D01*
X46772169Y-40036776D01*
X46883654Y-39983951D01*
X47023261Y-39970830D01*
X47068033Y-39973275D01*
X47262849Y-40015275D01*
X47485204Y-40097062D01*
X47696277Y-40202578D01*
X47857249Y-40315769D01*
X47959866Y-40408954D01*
X48091636Y-40309911D01*
X48223406Y-40210867D01*
X48196113Y-40418527D01*
X48191749Y-40458915D01*
X48193844Y-40572339D01*
X48217554Y-40623564D01*
X48253628Y-40604226D01*
X48292815Y-40505962D01*
X48319219Y-40412993D01*
X48340870Y-40345853D01*
X49539291Y-40345853D01*
X49543285Y-40443226D01*
X49589445Y-40478077D01*
X49693052Y-40467841D01*
X49840105Y-40438984D01*
X49720033Y-40546119D01*
X49683908Y-40583319D01*
X49609230Y-40719861D01*
X49565687Y-40921352D01*
X49562243Y-40948456D01*
X49550279Y-41061940D01*
X49548032Y-41083254D01*
X49553205Y-41152153D01*
X49583726Y-41173351D01*
X49645559Y-41165045D01*
X49743909Y-41167320D01*
X49873062Y-41204930D01*
X49981646Y-41262627D01*
X50027263Y-41322880D01*
X50027123Y-41324508D01*
X49980264Y-41336406D01*
X49874727Y-41314721D01*
X49793654Y-41292521D01*
X49669638Y-41282588D01*
X49593987Y-41328892D01*
X49556256Y-41441461D01*
X49546000Y-41630321D01*
X49546000Y-41937718D01*
X49750982Y-41937718D01*
X49833754Y-41936356D01*
X49959198Y-41919642D01*
X49996469Y-41877482D01*
X49957779Y-41801851D01*
X49929610Y-41742292D01*
X50113634Y-41742292D01*
X50215552Y-41799031D01*
X50313942Y-41834295D01*
X50366620Y-41850282D01*
X50368347Y-41848632D01*
X50369159Y-41796921D01*
X50357968Y-41695269D01*
X50355768Y-41680082D01*
X50354954Y-41676397D01*
X50455052Y-41676397D01*
X50464872Y-41715643D01*
X50525775Y-41743986D01*
X50665518Y-41747550D01*
X50691206Y-41746222D01*
X50862472Y-41716189D01*
X50996348Y-41661792D01*
X51088556Y-41617212D01*
X51253776Y-41610483D01*
X51390842Y-41638370D01*
X51232209Y-41502534D01*
X51073577Y-41366698D01*
X51023538Y-41466408D01*
X51004159Y-41503043D01*
X50973331Y-41534174D01*
X50950986Y-41489611D01*
X50908018Y-41420872D01*
X50854735Y-41432978D01*
X50807409Y-41522399D01*
X50794254Y-41559958D01*
X50748069Y-41631198D01*
X50707492Y-41627784D01*
X50684954Y-41559208D01*
X50692889Y-41434964D01*
X50699286Y-41396522D01*
X50703877Y-41278623D01*
X50672223Y-41238234D01*
X50632548Y-41274301D01*
X50615473Y-41364034D01*
X50608338Y-41397726D01*
X50594592Y-41462638D01*
X50535263Y-41544258D01*
X50493671Y-41583819D01*
X50455052Y-41676397D01*
X50354954Y-41676397D01*
X50335629Y-41588964D01*
X50299230Y-41567685D01*
X50224584Y-41600645D01*
X50217499Y-41604525D01*
X50114152Y-41680325D01*
X50113634Y-41742292D01*
X49929610Y-41742292D01*
X49921787Y-41725752D01*
X49959419Y-41634259D01*
X49964719Y-41627247D01*
X49991394Y-41574486D01*
X49951637Y-41548508D01*
X49825230Y-41534246D01*
X49626210Y-41519103D01*
X49772748Y-41467346D01*
X49904889Y-41439977D01*
X50159725Y-41452312D01*
X50251878Y-41462711D01*
X50413221Y-41452506D01*
X50495044Y-41397726D01*
X50488523Y-41302393D01*
X50419123Y-41240351D01*
X50280154Y-41175950D01*
X50112395Y-41126708D01*
X49955317Y-41107081D01*
X49863331Y-41093541D01*
X49778821Y-41051072D01*
X50365225Y-41051072D01*
X50476981Y-41110087D01*
X50562747Y-41144445D01*
X50659546Y-41157289D01*
X50706105Y-41158500D01*
X50806598Y-41197208D01*
X50849465Y-41222715D01*
X50880903Y-41223409D01*
X50854896Y-41176668D01*
X50775894Y-41097009D01*
X50724289Y-41031693D01*
X50683633Y-40936939D01*
X50666840Y-40845862D01*
X50678304Y-40784576D01*
X50722421Y-40779198D01*
X50736908Y-40788470D01*
X50775960Y-40858284D01*
X50778280Y-40869942D01*
X50825486Y-40945021D01*
X50914354Y-41041504D01*
X51052684Y-41172657D01*
X51015248Y-40997786D01*
X50994166Y-40935182D01*
X50938493Y-40833366D01*
X50867674Y-40736699D01*
X50797517Y-40663419D01*
X50743829Y-40631763D01*
X50722421Y-40659968D01*
X50717602Y-40679944D01*
X50655578Y-40713982D01*
X50634028Y-40720034D01*
X50559254Y-40779791D01*
X50476981Y-40882707D01*
X50365225Y-41051072D01*
X49778821Y-41051072D01*
X49760012Y-41041620D01*
X49746538Y-41027605D01*
X49735726Y-40997112D01*
X49793331Y-40990396D01*
X49937726Y-41003520D01*
X50181891Y-41030881D01*
X50122342Y-40872251D01*
X50111021Y-40843860D01*
X50099792Y-40822508D01*
X50241157Y-40822508D01*
X50244867Y-40861437D01*
X50279153Y-40902959D01*
X50335150Y-40873040D01*
X50395327Y-40776870D01*
X50399984Y-40766586D01*
X50476640Y-40658238D01*
X50578829Y-40622734D01*
X50638739Y-40615124D01*
X50628842Y-40597232D01*
X50565030Y-40555140D01*
X50581755Y-40516751D01*
X50668947Y-40516891D01*
X50674583Y-40518330D01*
X50762010Y-40528940D01*
X50760859Y-40502811D01*
X50670784Y-40452119D01*
X50605546Y-40432648D01*
X50544464Y-40457161D01*
X50476382Y-40548946D01*
X50466763Y-40563894D01*
X50386304Y-40666120D01*
X50314123Y-40726723D01*
X50282154Y-40748228D01*
X50241157Y-40822508D01*
X50099792Y-40822508D01*
X50062218Y-40751057D01*
X50021772Y-40713621D01*
X49950562Y-40700358D01*
X49830218Y-40666829D01*
X49756345Y-40641525D01*
X49720569Y-40611900D01*
X49769027Y-40579159D01*
X49839157Y-40561769D01*
X49996290Y-40581151D01*
X50042912Y-40593724D01*
X50124434Y-40596250D01*
X50132409Y-40560494D01*
X50071670Y-40501051D01*
X49947052Y-40432513D01*
X49811211Y-40350768D01*
X49759894Y-40260816D01*
X49772933Y-40202578D01*
X49819884Y-40220566D01*
X49854761Y-40240128D01*
X49953568Y-40246491D01*
X49993996Y-40243775D01*
X50027263Y-40293625D01*
X50033935Y-40328137D01*
X50078653Y-40363879D01*
X50137671Y-40385748D01*
X50228383Y-40450176D01*
X50292038Y-40501867D01*
X50345442Y-40509462D01*
X50413542Y-40453574D01*
X50420977Y-40446431D01*
X50464803Y-40391197D01*
X50438708Y-40352076D01*
X50328411Y-40303965D01*
X50280210Y-40286493D01*
X50098486Y-40230908D01*
X49905015Y-40182274D01*
X49799909Y-40162035D01*
X49655628Y-40155804D01*
X49576973Y-40199137D01*
X49544465Y-40298303D01*
X49539291Y-40345853D01*
X48340870Y-40345853D01*
X48345630Y-40331091D01*
X48347085Y-40327618D01*
X48414495Y-40283726D01*
X48523411Y-40283583D01*
X48624864Y-40327770D01*
X48651120Y-40343631D01*
X48719584Y-40336169D01*
X48820163Y-40262194D01*
X48860667Y-40228403D01*
X48992885Y-40157138D01*
X49116796Y-40168014D01*
X49254448Y-40260969D01*
X49255393Y-40261802D01*
X49341042Y-40332165D01*
X49377775Y-40340392D01*
X49385579Y-40291071D01*
X49400605Y-40234605D01*
X49472762Y-40133932D01*
X49574529Y-40049539D01*
X49672061Y-40014138D01*
X49769831Y-40024710D01*
X49954037Y-40064287D01*
X50169666Y-40123584D01*
X50380118Y-40192326D01*
X50548792Y-40260241D01*
X50699870Y-40352892D01*
X50864797Y-40494000D01*
X50896378Y-40528940D01*
X51009095Y-40653646D01*
X51111365Y-40807899D01*
X51150210Y-40932828D01*
X51165657Y-41017333D01*
X51227383Y-41133987D01*
X51248036Y-41162702D01*
X51253699Y-41172657D01*
X51311086Y-41273553D01*
X51389765Y-41431931D01*
X51471765Y-41613680D01*
X51482303Y-41638370D01*
X51489397Y-41654992D01*
X51551210Y-41808653D01*
X51593844Y-41941967D01*
X51620601Y-42076486D01*
X51634784Y-42233760D01*
X51636602Y-42308391D01*
X51639693Y-42435340D01*
X51638631Y-42702778D01*
X51638934Y-42765318D01*
X51639504Y-42769794D01*
X51651367Y-42863047D01*
X51692984Y-42944641D01*
X51753190Y-43007654D01*
X51779870Y-43035578D01*
X51928110Y-43161339D01*
X52219684Y-43401311D01*
X52219684Y-38221711D01*
X30562842Y-38221711D01*
X30402421Y-38221711D01*
X30402421Y-38090558D01*
X52433578Y-38090558D01*
X52433578Y-45697442D01*
X30402421Y-45697442D01*
G37*
X30402421Y-45697442D02*
X30402421Y-38221711D01*
X30562842Y-38221711D01*
X30562842Y-45566289D01*
X52219684Y-45566289D01*
X52219684Y-44141161D01*
X52033911Y-44158892D01*
X51947540Y-44160283D01*
X51750368Y-44126182D01*
X51491735Y-44040270D01*
X51135330Y-43903916D01*
X50942244Y-44022249D01*
X50860056Y-44076163D01*
X50691536Y-44199286D01*
X50531526Y-44328822D01*
X50469540Y-44381116D01*
X50346653Y-44467567D01*
X50235258Y-44507421D01*
X50097579Y-44517064D01*
X50012900Y-44513054D01*
X49803322Y-44456930D01*
X49624400Y-44328687D01*
X49464017Y-44120744D01*
X49412419Y-44030886D01*
X49370491Y-43928638D01*
X49346147Y-43810167D01*
X49335774Y-43664568D01*
X49572736Y-43664568D01*
X49575769Y-43867951D01*
X49576289Y-43887808D01*
X49612878Y-44067290D01*
X49720279Y-44222980D01*
X49788705Y-44287204D01*
X49893868Y-44361115D01*
X49986231Y-44403916D01*
X50043724Y-44406337D01*
X50044278Y-44359103D01*
X50045863Y-44318963D01*
X50129308Y-44298475D01*
X50208271Y-44276980D01*
X50344424Y-44217200D01*
X50511063Y-44132745D01*
X50683553Y-44037274D01*
X50837261Y-43944446D01*
X50947551Y-43867921D01*
X50989789Y-43821359D01*
X50983567Y-43790528D01*
X50917247Y-43756456D01*
X50771869Y-43774806D01*
X50694729Y-43790304D01*
X50630225Y-43782973D01*
X50615473Y-43727093D01*
X50606764Y-43679222D01*
X50566456Y-43642709D01*
X50508707Y-43669539D01*
X50496863Y-43745948D01*
X50544018Y-43843255D01*
X50573093Y-43884271D01*
X50578993Y-43930230D01*
X50581632Y-43950793D01*
X50515392Y-44029697D01*
X50433700Y-44086469D01*
X50321165Y-44095632D01*
X50261568Y-44088514D01*
X50178407Y-44138709D01*
X50110701Y-44185861D01*
X49984500Y-44209710D01*
X49919587Y-44207911D01*
X49881384Y-44195672D01*
X49933684Y-44163820D01*
X50010875Y-44109536D01*
X50014712Y-44057905D01*
X49930536Y-44036169D01*
X49851284Y-44023158D01*
X49730009Y-43971982D01*
X49678935Y-43939164D01*
X50104681Y-43939164D01*
X50170956Y-43956808D01*
X50294333Y-43966702D01*
X50408311Y-43959712D01*
X50454772Y-43930230D01*
X50404038Y-43884399D01*
X50390809Y-43879728D01*
X50306791Y-43876097D01*
X50202983Y-43889936D01*
X50121557Y-43913530D01*
X50104681Y-43939164D01*
X49678935Y-43939164D01*
X49673351Y-43935576D01*
X49662010Y-43911225D01*
X49743370Y-43906406D01*
X49818969Y-43897093D01*
X49893578Y-43861298D01*
X49924689Y-43838783D01*
X50024636Y-43817580D01*
X50024904Y-43817580D01*
X50132220Y-43788913D01*
X50270596Y-43717407D01*
X50408748Y-43624167D01*
X50515390Y-43530299D01*
X50559240Y-43456909D01*
X50552516Y-43416353D01*
X50538168Y-43404627D01*
X51424478Y-43404627D01*
X51450497Y-43461864D01*
X51551263Y-43538930D01*
X51614726Y-43578594D01*
X51786797Y-43671518D01*
X51970969Y-43757396D01*
X52122078Y-43821359D01*
X52230255Y-43867150D01*
X52088721Y-43656565D01*
X52029268Y-43574775D01*
X51885992Y-43403190D01*
X51737452Y-43249249D01*
X51644773Y-43164340D01*
X51569586Y-43106400D01*
X51535043Y-43104429D01*
X51526122Y-43151478D01*
X51520793Y-43181107D01*
X51512875Y-43225142D01*
X51457684Y-43340327D01*
X51424478Y-43404627D01*
X50538168Y-43404627D01*
X50508526Y-43380403D01*
X50495782Y-43381636D01*
X50455052Y-43423112D01*
X50454541Y-43429404D01*
X50396791Y-43495990D01*
X50262113Y-43560439D01*
X50077329Y-43612697D01*
X49869261Y-43642709D01*
X49572736Y-43664568D01*
X49335774Y-43664568D01*
X49334861Y-43651755D01*
X49332610Y-43470418D01*
X49546000Y-43470418D01*
X49558346Y-43518269D01*
X49612842Y-43549118D01*
X49827963Y-43528445D01*
X50058245Y-43501464D01*
X50209264Y-43473624D01*
X50297155Y-43440308D01*
X50338057Y-43396899D01*
X50348105Y-43338782D01*
X50359985Y-43293194D01*
X50428315Y-43233440D01*
X50465264Y-43214273D01*
X50483587Y-43183378D01*
X51171698Y-43183378D01*
X51175499Y-43247334D01*
X51188254Y-43261025D01*
X51261992Y-43292967D01*
X51263642Y-43292947D01*
X51327079Y-43256375D01*
X51353414Y-43181107D01*
X51326160Y-43113305D01*
X51292003Y-43100312D01*
X51222044Y-43124130D01*
X51171698Y-43183378D01*
X50483587Y-43183378D01*
X50508526Y-43141327D01*
X50514832Y-43109882D01*
X50562000Y-43074378D01*
X50610703Y-43057310D01*
X50609592Y-43052520D01*
X50775894Y-43052520D01*
X50781754Y-43057310D01*
X50802631Y-43074378D01*
X50814973Y-43064288D01*
X50944560Y-43064288D01*
X50991699Y-43073709D01*
X51014473Y-43072835D01*
X51119078Y-43049229D01*
X51173580Y-43007237D01*
X51150788Y-42965376D01*
X51092293Y-42960509D01*
X50999936Y-43003629D01*
X50977501Y-43022454D01*
X50953826Y-43052520D01*
X50944560Y-43064288D01*
X50814973Y-43064288D01*
X50829368Y-43052520D01*
X50802631Y-43030661D01*
X50775894Y-43052520D01*
X50609592Y-43052520D01*
X50600142Y-43011776D01*
X50526556Y-42968402D01*
X50453986Y-42968114D01*
X50345698Y-43013018D01*
X50247437Y-43087738D01*
X50187756Y-43169319D01*
X50195209Y-43234804D01*
X50197627Y-43237209D01*
X50219121Y-43281276D01*
X50147305Y-43292967D01*
X50080994Y-43302848D01*
X49973789Y-43358544D01*
X49880533Y-43410312D01*
X49763507Y-43420550D01*
X49679145Y-43379689D01*
X49625431Y-43352200D01*
X49570564Y-43387354D01*
X49546000Y-43470418D01*
X49332610Y-43470418D01*
X49332105Y-43429687D01*
X49332105Y-42951452D01*
X49198838Y-43001986D01*
X49160997Y-43017770D01*
X49099325Y-43064227D01*
X49071698Y-43143443D01*
X49068891Y-43203132D01*
X49065154Y-43282631D01*
X49068869Y-43366410D01*
X49091649Y-43505216D01*
X49128361Y-43596034D01*
X49164488Y-43673031D01*
X49121814Y-43748453D01*
X49076553Y-43786236D01*
X48974367Y-43813010D01*
X48855052Y-43757875D01*
X48838751Y-43747480D01*
X48738037Y-43703528D01*
X48618424Y-43669209D01*
X48518418Y-43653808D01*
X48476526Y-43666609D01*
X48488080Y-43699678D01*
X48533256Y-43778837D01*
X48589341Y-43832826D01*
X48696296Y-43837914D01*
X48763322Y-43830870D01*
X48904130Y-43866487D01*
X49017924Y-43949383D01*
X49064736Y-44055913D01*
X49034477Y-44161542D01*
X48934154Y-44259577D01*
X48793548Y-44298475D01*
X48716182Y-44285393D01*
X48597822Y-44221496D01*
X48515761Y-44129795D01*
X48502181Y-44038956D01*
X48504066Y-44033781D01*
X48498547Y-43911006D01*
X48422511Y-43789003D01*
X48299558Y-43706494D01*
X48279425Y-43698369D01*
X48185729Y-43621553D01*
X48165114Y-43526846D01*
X48226534Y-43446169D01*
X48235243Y-43437863D01*
X48448013Y-43437863D01*
X48531833Y-43521561D01*
X48612879Y-43565834D01*
X48766114Y-43595788D01*
X48893621Y-43546530D01*
X48899066Y-43541077D01*
X48930357Y-43464058D01*
X48951058Y-43340352D01*
X48959003Y-43203132D01*
X48952024Y-43085571D01*
X48927956Y-43020843D01*
X48914977Y-43012926D01*
X48825865Y-43010959D01*
X48725602Y-43053677D01*
X48661851Y-43122816D01*
X48631453Y-43169331D01*
X48558930Y-43205532D01*
X48500318Y-43238226D01*
X48451496Y-43324831D01*
X48449250Y-43332383D01*
X48448013Y-43437863D01*
X48235243Y-43437863D01*
X48287480Y-43388046D01*
X48343991Y-43282930D01*
X48346226Y-43275413D01*
X48347701Y-43180955D01*
X48270947Y-43121735D01*
X48211730Y-43103176D01*
X48112476Y-43111810D01*
X47972676Y-43172790D01*
X47867230Y-43234121D01*
X47809558Y-43300100D01*
X47812799Y-43380403D01*
X47847750Y-43461430D01*
X47924706Y-43563673D01*
X47968932Y-43620209D01*
X47981239Y-43694826D01*
X47981153Y-43781886D01*
X48046564Y-43867826D01*
X48151018Y-43905015D01*
X48254028Y-43928063D01*
X48334234Y-44002208D01*
X48336933Y-44098569D01*
X48292532Y-44143101D01*
X48165311Y-44158757D01*
X48134539Y-44154647D01*
X48039298Y-44109500D01*
X47982908Y-44001653D01*
X47929673Y-43900526D01*
X47804658Y-43816509D01*
X47690101Y-43759934D01*
X47632494Y-43673123D01*
X47668632Y-43582834D01*
X47695912Y-43528377D01*
X47696744Y-43406151D01*
X47656749Y-43263144D01*
X47582292Y-43132542D01*
X47538911Y-43055017D01*
X47524036Y-42957671D01*
X47525127Y-42951788D01*
X47502026Y-42890945D01*
X47393684Y-42863815D01*
X47336559Y-42856051D01*
X47263907Y-42816390D01*
X47253726Y-42760609D01*
X47573628Y-42760609D01*
X47612810Y-42787559D01*
X47746309Y-42782849D01*
X47809973Y-42776377D01*
X47929768Y-42791298D01*
X48027046Y-42864427D01*
X48139162Y-42957953D01*
X48268978Y-43000415D01*
X48383009Y-42957227D01*
X48452569Y-42918953D01*
X48563866Y-42933050D01*
X48657430Y-42958417D01*
X48758415Y-42939117D01*
X48797368Y-42860244D01*
X48793488Y-42838953D01*
X48774422Y-42819103D01*
X49522384Y-42819103D01*
X49538898Y-42860244D01*
X49545855Y-42877576D01*
X49571954Y-42882682D01*
X49599473Y-42841188D01*
X49611093Y-42805889D01*
X49686128Y-42750523D01*
X49703834Y-42745465D01*
X49750727Y-42752128D01*
X49740332Y-42822352D01*
X49722267Y-42893382D01*
X49707151Y-43018359D01*
X49690401Y-43083708D01*
X49626210Y-43090188D01*
X49566303Y-43093992D01*
X49547295Y-43149012D01*
X49586924Y-43230579D01*
X49614653Y-43257573D01*
X49714403Y-43302163D01*
X49815130Y-43299837D01*
X49882875Y-43256572D01*
X49883679Y-43178346D01*
X49879146Y-43148893D01*
X49927963Y-43116913D01*
X49934760Y-43116362D01*
X50022666Y-43080270D01*
X50143356Y-43003962D01*
X50266776Y-42910078D01*
X50362869Y-42821259D01*
X50401578Y-42760145D01*
X50403143Y-42753604D01*
X50447940Y-42757405D01*
X50535263Y-42812072D01*
X50595509Y-42855476D01*
X50658338Y-42884320D01*
X50654573Y-42846712D01*
X50582586Y-42744957D01*
X50572279Y-42732808D01*
X50465147Y-42657230D01*
X50350746Y-42639438D01*
X50264111Y-42685924D01*
X50247668Y-42698374D01*
X50131847Y-42716248D01*
X49916490Y-42705900D01*
X49790932Y-42695604D01*
X49664107Y-42694512D01*
X49593445Y-42715675D01*
X49548969Y-42763818D01*
X49522384Y-42819103D01*
X48774422Y-42819103D01*
X48721783Y-42764299D01*
X48584181Y-42703290D01*
X48412924Y-42667111D01*
X48240253Y-42666950D01*
X48220073Y-42669346D01*
X48077025Y-42671412D01*
X47982347Y-42648950D01*
X47902108Y-42630524D01*
X47741263Y-42665274D01*
X47629200Y-42712227D01*
X47573628Y-42760609D01*
X47253726Y-42760609D01*
X47246631Y-42721733D01*
X47262236Y-42631405D01*
X47300105Y-42593483D01*
X47322925Y-42586472D01*
X47350818Y-42530160D01*
X47345591Y-42476878D01*
X47474140Y-42476878D01*
X47478479Y-42568675D01*
X47480901Y-42573732D01*
X47524033Y-42625339D01*
X47596636Y-42625151D01*
X47727576Y-42573757D01*
X47823164Y-42508605D01*
X47892113Y-42411364D01*
X47901949Y-42320796D01*
X47876495Y-42201769D01*
X47834361Y-42130237D01*
X47969393Y-42130237D01*
X47974299Y-42174701D01*
X48029398Y-42220055D01*
X48150710Y-42243742D01*
X48257539Y-42252874D01*
X48345515Y-42280869D01*
X48390993Y-42294049D01*
X48507627Y-42280046D01*
X48641414Y-42235204D01*
X48751585Y-42174630D01*
X48797368Y-42113432D01*
X48796968Y-42105338D01*
X48744854Y-42009382D01*
X48634731Y-41928209D01*
X48508905Y-41894000D01*
X48448603Y-41888230D01*
X48321235Y-41852527D01*
X48279681Y-41838100D01*
X48147987Y-41830327D01*
X48040023Y-41868877D01*
X47995263Y-41942816D01*
X48002649Y-41988693D01*
X48038516Y-42025153D01*
X48089827Y-42040674D01*
X48185569Y-42092790D01*
X48188417Y-42094647D01*
X48247832Y-42137840D01*
X48227746Y-42148235D01*
X48115631Y-42133043D01*
X48030237Y-42122022D01*
X47969393Y-42130237D01*
X47834361Y-42130237D01*
X47820867Y-42107328D01*
X47748254Y-42068871D01*
X47678470Y-42103032D01*
X47613142Y-42189095D01*
X47562055Y-42289753D01*
X47500236Y-42404734D01*
X47474140Y-42476878D01*
X47345591Y-42476878D01*
X47343212Y-42452627D01*
X47300105Y-42396754D01*
X47274989Y-42376681D01*
X47247498Y-42292602D01*
X47268267Y-42198044D01*
X47331667Y-42138983D01*
X47378117Y-42129241D01*
X47465124Y-42136771D01*
X47513950Y-42124923D01*
X47572620Y-42055235D01*
X47591291Y-42013927D01*
X47590495Y-41960378D01*
X47548282Y-41895573D01*
X47452780Y-41803049D01*
X47292111Y-41666343D01*
X47063011Y-41457553D01*
X46840822Y-41214846D01*
X46660265Y-40973451D01*
X46530745Y-40747717D01*
X46461668Y-40551993D01*
X46462225Y-40442848D01*
X46780614Y-40442848D01*
X46798116Y-40525529D01*
X46847764Y-40647921D01*
X46954976Y-40843556D01*
X47097952Y-41065208D01*
X47260859Y-41288639D01*
X47427865Y-41489611D01*
X47455871Y-41520486D01*
X47571505Y-41643714D01*
X47658937Y-41730209D01*
X47701047Y-41762847D01*
X47711997Y-41759392D01*
X47725443Y-41702349D01*
X47704840Y-41592041D01*
X47680277Y-41524234D01*
X47807719Y-41524234D01*
X47826941Y-41628721D01*
X47831263Y-41644855D01*
X47871874Y-41743156D01*
X47916427Y-41789237D01*
X47957446Y-41790311D01*
X48065224Y-41761785D01*
X48165158Y-41710034D01*
X48209157Y-41656813D01*
X48183067Y-41622885D01*
X48094554Y-41564476D01*
X47978490Y-41505859D01*
X47871918Y-41465290D01*
X47811879Y-41461023D01*
X47809607Y-41464018D01*
X47807719Y-41524234D01*
X47680277Y-41524234D01*
X47653518Y-41450365D01*
X47642363Y-41418347D01*
X48035520Y-41418347D01*
X48095606Y-41450391D01*
X48216441Y-41486198D01*
X48352662Y-41461119D01*
X48457704Y-41441136D01*
X48601120Y-41467614D01*
X48714165Y-41541687D01*
X48771515Y-41644403D01*
X48768901Y-41656813D01*
X48747843Y-41756814D01*
X48737657Y-41774026D01*
X48733465Y-41847170D01*
X48812804Y-41927321D01*
X48920376Y-41991438D01*
X49038000Y-42032317D01*
X49110635Y-42062414D01*
X49129161Y-42113432D01*
X49144947Y-42156905D01*
X49136333Y-42219618D01*
X49084156Y-42258541D01*
X48956795Y-42270176D01*
X48931947Y-42271210D01*
X48756870Y-42298358D01*
X48687480Y-42320796D01*
X48592556Y-42351491D01*
X48470713Y-42417862D01*
X48423052Y-42484725D01*
X48441101Y-42520369D01*
X48531162Y-42580132D01*
X48660387Y-42629133D01*
X48787445Y-42653211D01*
X48871004Y-42638205D01*
X48938612Y-42609534D01*
X49064736Y-42593483D01*
X49167944Y-42605548D01*
X49267936Y-42645945D01*
X49278456Y-42652767D01*
X49304315Y-42642086D01*
X49320815Y-42574981D01*
X49324926Y-42511980D01*
X49546000Y-42511980D01*
X49546211Y-42521403D01*
X49574335Y-42573925D01*
X49668403Y-42570033D01*
X49771684Y-42562977D01*
X49922403Y-42584334D01*
X50000421Y-42597800D01*
X50143488Y-42583890D01*
X50224993Y-42560695D01*
X50616278Y-42560695D01*
X50618759Y-42568751D01*
X50645137Y-42635583D01*
X50690874Y-42744965D01*
X50735995Y-42838988D01*
X50773893Y-42884320D01*
X50802316Y-42918319D01*
X50871851Y-42916809D01*
X50954822Y-42838065D01*
X50961709Y-42829416D01*
X51150210Y-42829416D01*
X51154017Y-42835846D01*
X51214090Y-42881826D01*
X51324000Y-42949470D01*
X51396327Y-42989197D01*
X51445816Y-43007237D01*
X51446959Y-43007654D01*
X51421976Y-42971919D01*
X51359532Y-42920093D01*
X51265807Y-42861756D01*
X51184750Y-42825614D01*
X51150210Y-42829416D01*
X50961709Y-42829416D01*
X50965897Y-42824157D01*
X51009201Y-42754067D01*
X50986852Y-42704003D01*
X50920540Y-42661240D01*
X51269917Y-42661240D01*
X51311196Y-42747052D01*
X51319365Y-42754067D01*
X51351206Y-42781412D01*
X51437307Y-42813484D01*
X51486511Y-42769794D01*
X51483900Y-42658033D01*
X51478424Y-42639277D01*
X51420013Y-42565510D01*
X51341025Y-42555366D01*
X51276234Y-42615899D01*
X51269917Y-42661240D01*
X50920540Y-42661240D01*
X50887169Y-42639720D01*
X50869392Y-42629621D01*
X50747321Y-42572556D01*
X50652766Y-42546609D01*
X50616278Y-42560695D01*
X50224993Y-42560695D01*
X50346437Y-42526134D01*
X50348116Y-42525573D01*
X50414125Y-42499044D01*
X50775894Y-42499044D01*
X50776225Y-42501160D01*
X50827329Y-42537859D01*
X50939050Y-42580945D01*
X51102206Y-42631294D01*
X51069611Y-42426588D01*
X51057999Y-42350098D01*
X51052594Y-42273148D01*
X51071590Y-42262920D01*
X51120350Y-42306745D01*
X51172407Y-42372377D01*
X51203684Y-42448827D01*
X51203913Y-42464032D01*
X51216763Y-42498674D01*
X51270589Y-42497093D01*
X51394557Y-42461175D01*
X51396443Y-42460589D01*
X51476284Y-42430422D01*
X51514574Y-42387953D01*
X51520456Y-42308391D01*
X51503072Y-42166949D01*
X51487121Y-42075975D01*
X51419476Y-41876641D01*
X51317119Y-41758235D01*
X51178870Y-41719129D01*
X51051125Y-41741334D01*
X51012814Y-41796921D01*
X51009278Y-41802052D01*
X51064878Y-41889373D01*
X51107152Y-41940664D01*
X51111362Y-41945772D01*
X51114678Y-41995912D01*
X51105730Y-42006517D01*
X51137694Y-42025153D01*
X51178621Y-42008457D01*
X51230421Y-41937718D01*
X51260751Y-41879465D01*
X51308507Y-41852576D01*
X51344279Y-41900104D01*
X51355297Y-42014224D01*
X51354976Y-42024893D01*
X51363787Y-42167876D01*
X51390539Y-42287459D01*
X51405415Y-42333681D01*
X51394476Y-42352630D01*
X51335871Y-42318906D01*
X51215791Y-42227793D01*
X51211820Y-42224699D01*
X51059214Y-42122039D01*
X50957372Y-42094198D01*
X50900510Y-42141833D01*
X50882842Y-42265601D01*
X50882694Y-42276680D01*
X50865788Y-42382233D01*
X50829368Y-42440471D01*
X50814172Y-42449455D01*
X50775894Y-42499044D01*
X50414125Y-42499044D01*
X50577504Y-42433382D01*
X50710970Y-42336520D01*
X50759068Y-42222780D01*
X50732355Y-42079961D01*
X50721966Y-42049258D01*
X50703761Y-41957361D01*
X50706651Y-41893117D01*
X50726940Y-41876327D01*
X50760934Y-41926788D01*
X50764312Y-41933313D01*
X50824236Y-41973746D01*
X50899387Y-41977606D01*
X50936315Y-41940664D01*
X50932817Y-41926402D01*
X50865076Y-41883218D01*
X50739846Y-41863538D01*
X50595200Y-41874721D01*
X50503182Y-41909088D01*
X50422156Y-42004046D01*
X50432824Y-42128289D01*
X50435375Y-42181276D01*
X50386356Y-42199269D01*
X50322045Y-42157201D01*
X50320269Y-42154958D01*
X50256865Y-42135092D01*
X50177412Y-42173030D01*
X50109504Y-42247971D01*
X50080736Y-42339113D01*
X50074020Y-42408524D01*
X50040933Y-42473353D01*
X49996836Y-42468060D01*
X49960604Y-42385378D01*
X49934731Y-42290327D01*
X49891858Y-42181505D01*
X49885886Y-42169638D01*
X49875994Y-42118333D01*
X49936056Y-42124948D01*
X49986328Y-42133130D01*
X50055443Y-42110679D01*
X50089243Y-42088023D01*
X50190840Y-42068871D01*
X50232014Y-42064711D01*
X50289104Y-42023603D01*
X50272544Y-41963331D01*
X50183757Y-41914840D01*
X50104554Y-41908231D01*
X50002386Y-41964890D01*
X49916495Y-42019637D01*
X49779050Y-42052739D01*
X49664406Y-42059828D01*
X49586105Y-42065319D01*
X49559841Y-42094511D01*
X49546000Y-42178165D01*
X49560370Y-42230256D01*
X49569083Y-42261844D01*
X49652947Y-42287459D01*
X49715156Y-42296440D01*
X49759894Y-42335270D01*
X49739736Y-42367433D01*
X49652947Y-42405945D01*
X49591394Y-42433980D01*
X49546000Y-42511980D01*
X49324926Y-42511980D01*
X49329548Y-42441141D01*
X49332105Y-42230256D01*
X49331966Y-42124692D01*
X49329526Y-41954674D01*
X49321409Y-41852219D01*
X49304266Y-41803753D01*
X49274746Y-41795703D01*
X49229500Y-41814493D01*
X49161496Y-41837506D01*
X49052534Y-41821707D01*
X48983887Y-41745029D01*
X48978237Y-41624612D01*
X48986890Y-41551338D01*
X48947311Y-41490307D01*
X48829501Y-41434127D01*
X48615980Y-41385880D01*
X48309812Y-41378080D01*
X48283068Y-41379124D01*
X48114733Y-41387615D01*
X48037056Y-41399056D01*
X48035520Y-41418347D01*
X47642363Y-41418347D01*
X47626862Y-41373854D01*
X47621349Y-41247506D01*
X47671636Y-41171576D01*
X47765583Y-41157920D01*
X47891047Y-41218396D01*
X47903511Y-41226856D01*
X47995333Y-41260447D01*
X48145048Y-41274948D01*
X48376521Y-41273044D01*
X48770631Y-41260093D01*
X48559983Y-41153048D01*
X48499673Y-41124755D01*
X48350170Y-41071650D01*
X48239141Y-41054552D01*
X48172200Y-41059064D01*
X47982331Y-41067472D01*
X47768170Y-41072691D01*
X47555944Y-41074600D01*
X47371881Y-41073082D01*
X47242210Y-41068017D01*
X47193157Y-41059288D01*
X47221730Y-41020551D01*
X47301694Y-40952893D01*
X47321156Y-40938383D01*
X47366315Y-40895255D01*
X47364167Y-40851691D01*
X47305569Y-40786990D01*
X47181378Y-40680448D01*
X47179618Y-40679030D01*
X48336486Y-40679030D01*
X48345824Y-40761284D01*
X48363956Y-40774420D01*
X48465084Y-40795899D01*
X48607541Y-40799119D01*
X48745712Y-40784794D01*
X48833980Y-40753638D01*
X48872056Y-40731089D01*
X48990428Y-40716373D01*
X49102700Y-40753358D01*
X49161560Y-40830887D01*
X49160988Y-40879269D01*
X49102804Y-40959718D01*
X48994624Y-40989515D01*
X48871597Y-40953765D01*
X48800392Y-40924613D01*
X48667732Y-40898942D01*
X48526901Y-40890394D01*
X48415111Y-40900633D01*
X48369578Y-40931321D01*
X48400705Y-40967896D01*
X48502810Y-41026075D01*
X48642600Y-41085659D01*
X48785176Y-41132087D01*
X48895637Y-41150798D01*
X49003290Y-41175353D01*
X49088669Y-41253595D01*
X49089203Y-41260093D01*
X49097112Y-41356360D01*
X49087250Y-41403735D01*
X49106062Y-41478681D01*
X49145170Y-41514489D01*
X49238526Y-41582399D01*
X49274758Y-41601075D01*
X49301261Y-41594809D01*
X49318050Y-41549980D01*
X49327323Y-41454370D01*
X49331275Y-41295763D01*
X49332105Y-41061940D01*
X49332102Y-41036263D01*
X49331259Y-40810190D01*
X49327317Y-40658401D01*
X49317963Y-40568884D01*
X49300886Y-40529625D01*
X49273774Y-40528613D01*
X49234315Y-40553833D01*
X49093091Y-40616669D01*
X48948690Y-40611969D01*
X48838432Y-40538750D01*
X48823913Y-40521576D01*
X48743615Y-40464720D01*
X48669507Y-40452989D01*
X48636947Y-40494200D01*
X48605450Y-40528589D01*
X48507132Y-40563722D01*
X48407843Y-40602301D01*
X48336486Y-40679030D01*
X47179618Y-40679030D01*
X47073705Y-40593697D01*
X46944985Y-40499192D01*
X46857225Y-40445660D01*
X46807992Y-40427057D01*
X46780614Y-40442848D01*
X46462225Y-40442848D01*
X46462441Y-40400628D01*
X46478294Y-40364947D01*
X46553854Y-40254021D01*
X46660504Y-40134361D01*
X46772169Y-40036776D01*
X46883654Y-39983951D01*
X47023261Y-39970830D01*
X47068033Y-39973275D01*
X47262849Y-40015275D01*
X47485204Y-40097062D01*
X47696277Y-40202578D01*
X47857249Y-40315769D01*
X47959866Y-40408954D01*
X48091636Y-40309911D01*
X48223406Y-40210867D01*
X48196113Y-40418527D01*
X48191749Y-40458915D01*
X48193844Y-40572339D01*
X48217554Y-40623564D01*
X48253628Y-40604226D01*
X48292815Y-40505962D01*
X48319219Y-40412993D01*
X48340870Y-40345853D01*
X49539291Y-40345853D01*
X49543285Y-40443226D01*
X49589445Y-40478077D01*
X49693052Y-40467841D01*
X49840105Y-40438984D01*
X49720033Y-40546119D01*
X49683908Y-40583319D01*
X49609230Y-40719861D01*
X49565687Y-40921352D01*
X49562243Y-40948456D01*
X49550279Y-41061940D01*
X49548032Y-41083254D01*
X49553205Y-41152153D01*
X49583726Y-41173351D01*
X49645559Y-41165045D01*
X49743909Y-41167320D01*
X49873062Y-41204930D01*
X49981646Y-41262627D01*
X50027263Y-41322880D01*
X50027123Y-41324508D01*
X49980264Y-41336406D01*
X49874727Y-41314721D01*
X49793654Y-41292521D01*
X49669638Y-41282588D01*
X49593987Y-41328892D01*
X49556256Y-41441461D01*
X49546000Y-41630321D01*
X49546000Y-41937718D01*
X49750982Y-41937718D01*
X49833754Y-41936356D01*
X49959198Y-41919642D01*
X49996469Y-41877482D01*
X49957779Y-41801851D01*
X49929610Y-41742292D01*
X50113634Y-41742292D01*
X50215552Y-41799031D01*
X50313942Y-41834295D01*
X50366620Y-41850282D01*
X50368347Y-41848632D01*
X50369159Y-41796921D01*
X50357968Y-41695269D01*
X50355768Y-41680082D01*
X50354954Y-41676397D01*
X50455052Y-41676397D01*
X50464872Y-41715643D01*
X50525775Y-41743986D01*
X50665518Y-41747550D01*
X50691206Y-41746222D01*
X50862472Y-41716189D01*
X50996348Y-41661792D01*
X51088556Y-41617212D01*
X51253776Y-41610483D01*
X51390842Y-41638370D01*
X51232209Y-41502534D01*
X51073577Y-41366698D01*
X51023538Y-41466408D01*
X51004159Y-41503043D01*
X50973331Y-41534174D01*
X50950986Y-41489611D01*
X50908018Y-41420872D01*
X50854735Y-41432978D01*
X50807409Y-41522399D01*
X50794254Y-41559958D01*
X50748069Y-41631198D01*
X50707492Y-41627784D01*
X50684954Y-41559208D01*
X50692889Y-41434964D01*
X50699286Y-41396522D01*
X50703877Y-41278623D01*
X50672223Y-41238234D01*
X50632548Y-41274301D01*
X50615473Y-41364034D01*
X50608338Y-41397726D01*
X50594592Y-41462638D01*
X50535263Y-41544258D01*
X50493671Y-41583819D01*
X50455052Y-41676397D01*
X50354954Y-41676397D01*
X50335629Y-41588964D01*
X50299230Y-41567685D01*
X50224584Y-41600645D01*
X50217499Y-41604525D01*
X50114152Y-41680325D01*
X50113634Y-41742292D01*
X49929610Y-41742292D01*
X49921787Y-41725752D01*
X49959419Y-41634259D01*
X49964719Y-41627247D01*
X49991394Y-41574486D01*
X49951637Y-41548508D01*
X49825230Y-41534246D01*
X49626210Y-41519103D01*
X49772748Y-41467346D01*
X49904889Y-41439977D01*
X50159725Y-41452312D01*
X50251878Y-41462711D01*
X50413221Y-41452506D01*
X50495044Y-41397726D01*
X50488523Y-41302393D01*
X50419123Y-41240351D01*
X50280154Y-41175950D01*
X50112395Y-41126708D01*
X49955317Y-41107081D01*
X49863331Y-41093541D01*
X49778821Y-41051072D01*
X50365225Y-41051072D01*
X50476981Y-41110087D01*
X50562747Y-41144445D01*
X50659546Y-41157289D01*
X50706105Y-41158500D01*
X50806598Y-41197208D01*
X50849465Y-41222715D01*
X50880903Y-41223409D01*
X50854896Y-41176668D01*
X50775894Y-41097009D01*
X50724289Y-41031693D01*
X50683633Y-40936939D01*
X50666840Y-40845862D01*
X50678304Y-40784576D01*
X50722421Y-40779198D01*
X50736908Y-40788470D01*
X50775960Y-40858284D01*
X50778280Y-40869942D01*
X50825486Y-40945021D01*
X50914354Y-41041504D01*
X51052684Y-41172657D01*
X51015248Y-40997786D01*
X50994166Y-40935182D01*
X50938493Y-40833366D01*
X50867674Y-40736699D01*
X50797517Y-40663419D01*
X50743829Y-40631763D01*
X50722421Y-40659968D01*
X50717602Y-40679944D01*
X50655578Y-40713982D01*
X50634028Y-40720034D01*
X50559254Y-40779791D01*
X50476981Y-40882707D01*
X50365225Y-41051072D01*
X49778821Y-41051072D01*
X49760012Y-41041620D01*
X49746538Y-41027605D01*
X49735726Y-40997112D01*
X49793331Y-40990396D01*
X49937726Y-41003520D01*
X50181891Y-41030881D01*
X50122342Y-40872251D01*
X50111021Y-40843860D01*
X50099792Y-40822508D01*
X50241157Y-40822508D01*
X50244867Y-40861437D01*
X50279153Y-40902959D01*
X50335150Y-40873040D01*
X50395327Y-40776870D01*
X50399984Y-40766586D01*
X50476640Y-40658238D01*
X50578829Y-40622734D01*
X50638739Y-40615124D01*
X50628842Y-40597232D01*
X50565030Y-40555140D01*
X50581755Y-40516751D01*
X50668947Y-40516891D01*
X50674583Y-40518330D01*
X50762010Y-40528940D01*
X50760859Y-40502811D01*
X50670784Y-40452119D01*
X50605546Y-40432648D01*
X50544464Y-40457161D01*
X50476382Y-40548946D01*
X50466763Y-40563894D01*
X50386304Y-40666120D01*
X50314123Y-40726723D01*
X50282154Y-40748228D01*
X50241157Y-40822508D01*
X50099792Y-40822508D01*
X50062218Y-40751057D01*
X50021772Y-40713621D01*
X49950562Y-40700358D01*
X49830218Y-40666829D01*
X49756345Y-40641525D01*
X49720569Y-40611900D01*
X49769027Y-40579159D01*
X49839157Y-40561769D01*
X49996290Y-40581151D01*
X50042912Y-40593724D01*
X50124434Y-40596250D01*
X50132409Y-40560494D01*
X50071670Y-40501051D01*
X49947052Y-40432513D01*
X49811211Y-40350768D01*
X49759894Y-40260816D01*
X49772933Y-40202578D01*
X49819884Y-40220566D01*
X49854761Y-40240128D01*
X49953568Y-40246491D01*
X49993996Y-40243775D01*
X50027263Y-40293625D01*
X50033935Y-40328137D01*
X50078653Y-40363879D01*
X50137671Y-40385748D01*
X50228383Y-40450176D01*
X50292038Y-40501867D01*
X50345442Y-40509462D01*
X50413542Y-40453574D01*
X50420977Y-40446431D01*
X50464803Y-40391197D01*
X50438708Y-40352076D01*
X50328411Y-40303965D01*
X50280210Y-40286493D01*
X50098486Y-40230908D01*
X49905015Y-40182274D01*
X49799909Y-40162035D01*
X49655628Y-40155804D01*
X49576973Y-40199137D01*
X49544465Y-40298303D01*
X49539291Y-40345853D01*
X48340870Y-40345853D01*
X48345630Y-40331091D01*
X48347085Y-40327618D01*
X48414495Y-40283726D01*
X48523411Y-40283583D01*
X48624864Y-40327770D01*
X48651120Y-40343631D01*
X48719584Y-40336169D01*
X48820163Y-40262194D01*
X48860667Y-40228403D01*
X48992885Y-40157138D01*
X49116796Y-40168014D01*
X49254448Y-40260969D01*
X49255393Y-40261802D01*
X49341042Y-40332165D01*
X49377775Y-40340392D01*
X49385579Y-40291071D01*
X49400605Y-40234605D01*
X49472762Y-40133932D01*
X49574529Y-40049539D01*
X49672061Y-40014138D01*
X49769831Y-40024710D01*
X49954037Y-40064287D01*
X50169666Y-40123584D01*
X50380118Y-40192326D01*
X50548792Y-40260241D01*
X50699870Y-40352892D01*
X50864797Y-40494000D01*
X50896378Y-40528940D01*
X51009095Y-40653646D01*
X51111365Y-40807899D01*
X51150210Y-40932828D01*
X51165657Y-41017333D01*
X51227383Y-41133987D01*
X51248036Y-41162702D01*
X51253699Y-41172657D01*
X51311086Y-41273553D01*
X51389765Y-41431931D01*
X51471765Y-41613680D01*
X51482303Y-41638370D01*
X51489397Y-41654992D01*
X51551210Y-41808653D01*
X51593844Y-41941967D01*
X51620601Y-42076486D01*
X51634784Y-42233760D01*
X51636602Y-42308391D01*
X51639693Y-42435340D01*
X51638631Y-42702778D01*
X51638934Y-42765318D01*
X51639504Y-42769794D01*
X51651367Y-42863047D01*
X51692984Y-42944641D01*
X51753190Y-43007654D01*
X51779870Y-43035578D01*
X51928110Y-43161339D01*
X52219684Y-43401311D01*
X52219684Y-38221711D01*
X30562842Y-38221711D01*
X30402421Y-38221711D01*
X30402421Y-38090558D01*
X52433578Y-38090558D01*
X52433578Y-45697442D01*
X30402421Y-45697442D01*
%TD*%
M02*
