%TF.GenerationSoftware,KiCad,Pcbnew,(5.99.0-9773-gf428ce03f2)*%
%TF.CreationDate,2021-05-10T10:20:16-04:00*%
%TF.ProjectId,D5XAMP_v4,44355841-4d50-45f7-9634-2e6b69636164,rev?*%
%TF.SameCoordinates,Original*%
%TF.FileFunction,Legend,Top*%
%TF.FilePolarity,Positive*%
%FSLAX46Y46*%
G04 Gerber Fmt 4.6, Leading zero omitted, Abs format (unit mm)*
G04 Created by KiCad (PCBNEW (5.99.0-9773-gf428ce03f2)) date 2021-05-10 10:20:16*
%MOMM*%
%LPD*%
G01*
G04 APERTURE LIST*
%ADD10C,0.125000*%
%ADD11C,0.150000*%
%ADD12C,0.127000*%
%ADD13C,0.015000*%
%ADD14C,0.254000*%
%ADD15C,0.120000*%
%ADD16C,0.203200*%
%ADD17C,0.066040*%
%ADD18C,0.100000*%
%ADD19C,0.200000*%
G04 APERTURE END LIST*
D10*
X60346190Y-53230476D02*
X59846190Y-53230476D01*
X60346190Y-52944761D01*
X59846190Y-52944761D01*
X60346190Y-52492380D02*
X60084285Y-52492380D01*
X60036666Y-52516190D01*
X60012857Y-52563809D01*
X60012857Y-52659047D01*
X60036666Y-52706666D01*
X60322380Y-52492380D02*
X60346190Y-52540000D01*
X60346190Y-52659047D01*
X60322380Y-52706666D01*
X60274761Y-52730476D01*
X60227142Y-52730476D01*
X60179523Y-52706666D01*
X60155714Y-52659047D01*
X60155714Y-52540000D01*
X60131904Y-52492380D01*
X60012857Y-52325714D02*
X60012857Y-52135238D01*
X59846190Y-52254285D02*
X60274761Y-52254285D01*
X60322380Y-52230476D01*
X60346190Y-52182857D01*
X60346190Y-52135238D01*
X60346190Y-51968571D02*
X60012857Y-51968571D01*
X59846190Y-51968571D02*
X59870000Y-51992380D01*
X59893809Y-51968571D01*
X59870000Y-51944761D01*
X59846190Y-51968571D01*
X59893809Y-51968571D01*
X60346190Y-51659047D02*
X60322380Y-51706666D01*
X60298571Y-51730476D01*
X60250952Y-51754285D01*
X60108095Y-51754285D01*
X60060476Y-51730476D01*
X60036666Y-51706666D01*
X60012857Y-51659047D01*
X60012857Y-51587619D01*
X60036666Y-51540000D01*
X60060476Y-51516190D01*
X60108095Y-51492380D01*
X60250952Y-51492380D01*
X60298571Y-51516190D01*
X60322380Y-51540000D01*
X60346190Y-51587619D01*
X60346190Y-51659047D01*
X60012857Y-51278095D02*
X60346190Y-51278095D01*
X60060476Y-51278095D02*
X60036666Y-51254285D01*
X60012857Y-51206666D01*
X60012857Y-51135238D01*
X60036666Y-51087619D01*
X60084285Y-51063809D01*
X60346190Y-51063809D01*
X60346190Y-50611428D02*
X60084285Y-50611428D01*
X60036666Y-50635238D01*
X60012857Y-50682857D01*
X60012857Y-50778095D01*
X60036666Y-50825714D01*
X60322380Y-50611428D02*
X60346190Y-50659047D01*
X60346190Y-50778095D01*
X60322380Y-50825714D01*
X60274761Y-50849523D01*
X60227142Y-50849523D01*
X60179523Y-50825714D01*
X60155714Y-50778095D01*
X60155714Y-50659047D01*
X60131904Y-50611428D01*
X60346190Y-50301904D02*
X60322380Y-50349523D01*
X60274761Y-50373333D01*
X59846190Y-50373333D01*
X60298571Y-49444761D02*
X60322380Y-49468571D01*
X60346190Y-49540000D01*
X60346190Y-49587619D01*
X60322380Y-49659047D01*
X60274761Y-49706666D01*
X60227142Y-49730476D01*
X60131904Y-49754285D01*
X60060476Y-49754285D01*
X59965238Y-49730476D01*
X59917619Y-49706666D01*
X59870000Y-49659047D01*
X59846190Y-49587619D01*
X59846190Y-49540000D01*
X59870000Y-49468571D01*
X59893809Y-49444761D01*
X60322380Y-49040000D02*
X60346190Y-49087619D01*
X60346190Y-49182857D01*
X60322380Y-49230476D01*
X60274761Y-49254285D01*
X60084285Y-49254285D01*
X60036666Y-49230476D01*
X60012857Y-49182857D01*
X60012857Y-49087619D01*
X60036666Y-49040000D01*
X60084285Y-49016190D01*
X60131904Y-49016190D01*
X60179523Y-49254285D01*
X60012857Y-48801904D02*
X60346190Y-48801904D01*
X60060476Y-48801904D02*
X60036666Y-48778095D01*
X60012857Y-48730476D01*
X60012857Y-48659047D01*
X60036666Y-48611428D01*
X60084285Y-48587619D01*
X60346190Y-48587619D01*
X60012857Y-48420952D02*
X60012857Y-48230476D01*
X59846190Y-48349523D02*
X60274761Y-48349523D01*
X60322380Y-48325714D01*
X60346190Y-48278095D01*
X60346190Y-48230476D01*
X60322380Y-47873333D02*
X60346190Y-47920952D01*
X60346190Y-48016190D01*
X60322380Y-48063809D01*
X60274761Y-48087619D01*
X60084285Y-48087619D01*
X60036666Y-48063809D01*
X60012857Y-48016190D01*
X60012857Y-47920952D01*
X60036666Y-47873333D01*
X60084285Y-47849523D01*
X60131904Y-47849523D01*
X60179523Y-48087619D01*
X60346190Y-47635238D02*
X60012857Y-47635238D01*
X60108095Y-47635238D02*
X60060476Y-47611428D01*
X60036666Y-47587619D01*
X60012857Y-47540000D01*
X60012857Y-47492380D01*
X60012857Y-47016190D02*
X60012857Y-46825714D01*
X60346190Y-46944761D02*
X59917619Y-46944761D01*
X59870000Y-46920952D01*
X59846190Y-46873333D01*
X59846190Y-46825714D01*
X60346190Y-46587619D02*
X60322380Y-46635238D01*
X60298571Y-46659047D01*
X60250952Y-46682857D01*
X60108095Y-46682857D01*
X60060476Y-46659047D01*
X60036666Y-46635238D01*
X60012857Y-46587619D01*
X60012857Y-46516190D01*
X60036666Y-46468571D01*
X60060476Y-46444761D01*
X60108095Y-46420952D01*
X60250952Y-46420952D01*
X60298571Y-46444761D01*
X60322380Y-46468571D01*
X60346190Y-46516190D01*
X60346190Y-46587619D01*
X60346190Y-46206666D02*
X60012857Y-46206666D01*
X60108095Y-46206666D02*
X60060476Y-46182857D01*
X60036666Y-46159047D01*
X60012857Y-46111428D01*
X60012857Y-46063809D01*
X60203333Y-45540000D02*
X60203333Y-45301904D01*
X60346190Y-45587619D02*
X59846190Y-45420952D01*
X60346190Y-45254285D01*
X60346190Y-44873333D02*
X59846190Y-44873333D01*
X60322380Y-44873333D02*
X60346190Y-44920952D01*
X60346190Y-45016190D01*
X60322380Y-45063809D01*
X60298571Y-45087619D01*
X60250952Y-45111428D01*
X60108095Y-45111428D01*
X60060476Y-45087619D01*
X60036666Y-45063809D01*
X60012857Y-45016190D01*
X60012857Y-44920952D01*
X60036666Y-44873333D01*
X60346190Y-44420952D02*
X60084285Y-44420952D01*
X60036666Y-44444761D01*
X60012857Y-44492380D01*
X60012857Y-44587619D01*
X60036666Y-44635238D01*
X60322380Y-44420952D02*
X60346190Y-44468571D01*
X60346190Y-44587619D01*
X60322380Y-44635238D01*
X60274761Y-44659047D01*
X60227142Y-44659047D01*
X60179523Y-44635238D01*
X60155714Y-44587619D01*
X60155714Y-44468571D01*
X60131904Y-44420952D01*
X60012857Y-44182857D02*
X60512857Y-44182857D01*
X60036666Y-44182857D02*
X60012857Y-44135238D01*
X60012857Y-44040000D01*
X60036666Y-43992380D01*
X60060476Y-43968571D01*
X60108095Y-43944761D01*
X60250952Y-43944761D01*
X60298571Y-43968571D01*
X60322380Y-43992380D01*
X60346190Y-44040000D01*
X60346190Y-44135238D01*
X60322380Y-44182857D01*
X60012857Y-43801904D02*
X60012857Y-43611428D01*
X59846190Y-43730476D02*
X60274761Y-43730476D01*
X60322380Y-43706666D01*
X60346190Y-43659047D01*
X60346190Y-43611428D01*
X60346190Y-43444761D02*
X60012857Y-43444761D01*
X59846190Y-43444761D02*
X59870000Y-43468571D01*
X59893809Y-43444761D01*
X59870000Y-43420952D01*
X59846190Y-43444761D01*
X59893809Y-43444761D01*
X60012857Y-43254285D02*
X60346190Y-43135238D01*
X60012857Y-43016190D01*
X60322380Y-42635238D02*
X60346190Y-42682857D01*
X60346190Y-42778095D01*
X60322380Y-42825714D01*
X60274761Y-42849523D01*
X60084285Y-42849523D01*
X60036666Y-42825714D01*
X60012857Y-42778095D01*
X60012857Y-42682857D01*
X60036666Y-42635238D01*
X60084285Y-42611428D01*
X60131904Y-42611428D01*
X60179523Y-42849523D01*
X60346190Y-42016190D02*
X59846190Y-42016190D01*
X60346190Y-41730476D01*
X59846190Y-41730476D01*
X60322380Y-41301904D02*
X60346190Y-41349523D01*
X60346190Y-41444761D01*
X60322380Y-41492380D01*
X60274761Y-41516190D01*
X60084285Y-41516190D01*
X60036666Y-41492380D01*
X60012857Y-41444761D01*
X60012857Y-41349523D01*
X60036666Y-41301904D01*
X60084285Y-41278095D01*
X60131904Y-41278095D01*
X60179523Y-41516190D01*
X60012857Y-40849523D02*
X60346190Y-40849523D01*
X60012857Y-41063809D02*
X60274761Y-41063809D01*
X60322380Y-41040000D01*
X60346190Y-40992380D01*
X60346190Y-40920952D01*
X60322380Y-40873333D01*
X60298571Y-40849523D01*
X60346190Y-40611428D02*
X60012857Y-40611428D01*
X60108095Y-40611428D02*
X60060476Y-40587619D01*
X60036666Y-40563809D01*
X60012857Y-40516190D01*
X60012857Y-40468571D01*
X60346190Y-40230476D02*
X60322380Y-40278095D01*
X60298571Y-40301904D01*
X60250952Y-40325714D01*
X60108095Y-40325714D01*
X60060476Y-40301904D01*
X60036666Y-40278095D01*
X60012857Y-40230476D01*
X60012857Y-40159047D01*
X60036666Y-40111428D01*
X60060476Y-40087619D01*
X60108095Y-40063809D01*
X60250952Y-40063809D01*
X60298571Y-40087619D01*
X60322380Y-40111428D01*
X60346190Y-40159047D01*
X60346190Y-40230476D01*
X60012857Y-39920952D02*
X60012857Y-39730476D01*
X59846190Y-39849523D02*
X60274761Y-39849523D01*
X60322380Y-39825714D01*
X60346190Y-39778095D01*
X60346190Y-39730476D01*
X60322380Y-39373333D02*
X60346190Y-39420952D01*
X60346190Y-39516190D01*
X60322380Y-39563809D01*
X60274761Y-39587619D01*
X60084285Y-39587619D01*
X60036666Y-39563809D01*
X60012857Y-39516190D01*
X60012857Y-39420952D01*
X60036666Y-39373333D01*
X60084285Y-39349523D01*
X60131904Y-39349523D01*
X60179523Y-39587619D01*
X60322380Y-38920952D02*
X60346190Y-38968571D01*
X60346190Y-39063809D01*
X60322380Y-39111428D01*
X60298571Y-39135238D01*
X60250952Y-39159047D01*
X60108095Y-39159047D01*
X60060476Y-39135238D01*
X60036666Y-39111428D01*
X60012857Y-39063809D01*
X60012857Y-38968571D01*
X60036666Y-38920952D01*
X60346190Y-38706666D02*
X59846190Y-38706666D01*
X60346190Y-38492380D02*
X60084285Y-38492380D01*
X60036666Y-38516190D01*
X60012857Y-38563809D01*
X60012857Y-38635238D01*
X60036666Y-38682857D01*
X60060476Y-38706666D01*
X60012857Y-38254285D02*
X60346190Y-38254285D01*
X60060476Y-38254285D02*
X60036666Y-38230476D01*
X60012857Y-38182857D01*
X60012857Y-38111428D01*
X60036666Y-38063809D01*
X60084285Y-38040000D01*
X60346190Y-38040000D01*
X60346190Y-37730476D02*
X60322380Y-37778095D01*
X60298571Y-37801904D01*
X60250952Y-37825714D01*
X60108095Y-37825714D01*
X60060476Y-37801904D01*
X60036666Y-37778095D01*
X60012857Y-37730476D01*
X60012857Y-37659047D01*
X60036666Y-37611428D01*
X60060476Y-37587619D01*
X60108095Y-37563809D01*
X60250952Y-37563809D01*
X60298571Y-37587619D01*
X60322380Y-37611428D01*
X60346190Y-37659047D01*
X60346190Y-37730476D01*
X60346190Y-37278095D02*
X60322380Y-37325714D01*
X60274761Y-37349523D01*
X59846190Y-37349523D01*
X60346190Y-37016190D02*
X60322380Y-37063809D01*
X60298571Y-37087619D01*
X60250952Y-37111428D01*
X60108095Y-37111428D01*
X60060476Y-37087619D01*
X60036666Y-37063809D01*
X60012857Y-37016190D01*
X60012857Y-36944761D01*
X60036666Y-36897142D01*
X60060476Y-36873333D01*
X60108095Y-36849523D01*
X60250952Y-36849523D01*
X60298571Y-36873333D01*
X60322380Y-36897142D01*
X60346190Y-36944761D01*
X60346190Y-37016190D01*
X60012857Y-36420952D02*
X60417619Y-36420952D01*
X60465238Y-36444761D01*
X60489047Y-36468571D01*
X60512857Y-36516190D01*
X60512857Y-36587619D01*
X60489047Y-36635238D01*
X60322380Y-36420952D02*
X60346190Y-36468571D01*
X60346190Y-36563809D01*
X60322380Y-36611428D01*
X60298571Y-36635238D01*
X60250952Y-36659047D01*
X60108095Y-36659047D01*
X60060476Y-36635238D01*
X60036666Y-36611428D01*
X60012857Y-36563809D01*
X60012857Y-36468571D01*
X60036666Y-36420952D01*
X60346190Y-36182857D02*
X60012857Y-36182857D01*
X59846190Y-36182857D02*
X59870000Y-36206666D01*
X59893809Y-36182857D01*
X59870000Y-36159047D01*
X59846190Y-36182857D01*
X59893809Y-36182857D01*
X60322380Y-35754285D02*
X60346190Y-35801904D01*
X60346190Y-35897142D01*
X60322380Y-35944761D01*
X60274761Y-35968571D01*
X60084285Y-35968571D01*
X60036666Y-35944761D01*
X60012857Y-35897142D01*
X60012857Y-35801904D01*
X60036666Y-35754285D01*
X60084285Y-35730476D01*
X60131904Y-35730476D01*
X60179523Y-35968571D01*
X60322380Y-35540000D02*
X60346190Y-35492380D01*
X60346190Y-35397142D01*
X60322380Y-35349523D01*
X60274761Y-35325714D01*
X60250952Y-35325714D01*
X60203333Y-35349523D01*
X60179523Y-35397142D01*
X60179523Y-35468571D01*
X60155714Y-35516190D01*
X60108095Y-35540000D01*
X60084285Y-35540000D01*
X60036666Y-35516190D01*
X60012857Y-35468571D01*
X60012857Y-35397142D01*
X60036666Y-35349523D01*
D11*
%TO.C,R9*%
X52033333Y-46502380D02*
X51700000Y-46026190D01*
X51461904Y-46502380D02*
X51461904Y-45502380D01*
X51842857Y-45502380D01*
X51938095Y-45550000D01*
X51985714Y-45597619D01*
X52033333Y-45692857D01*
X52033333Y-45835714D01*
X51985714Y-45930952D01*
X51938095Y-45978571D01*
X51842857Y-46026190D01*
X51461904Y-46026190D01*
X52509523Y-46502380D02*
X52700000Y-46502380D01*
X52795238Y-46454761D01*
X52842857Y-46407142D01*
X52938095Y-46264285D01*
X52985714Y-46073809D01*
X52985714Y-45692857D01*
X52938095Y-45597619D01*
X52890476Y-45550000D01*
X52795238Y-45502380D01*
X52604761Y-45502380D01*
X52509523Y-45550000D01*
X52461904Y-45597619D01*
X52414285Y-45692857D01*
X52414285Y-45930952D01*
X52461904Y-46026190D01*
X52509523Y-46073809D01*
X52604761Y-46121428D01*
X52795238Y-46121428D01*
X52890476Y-46073809D01*
X52938095Y-46026190D01*
X52985714Y-45930952D01*
%TO.C,R8*%
X56223333Y-42102380D02*
X55890000Y-41626190D01*
X55651904Y-42102380D02*
X55651904Y-41102380D01*
X56032857Y-41102380D01*
X56128095Y-41150000D01*
X56175714Y-41197619D01*
X56223333Y-41292857D01*
X56223333Y-41435714D01*
X56175714Y-41530952D01*
X56128095Y-41578571D01*
X56032857Y-41626190D01*
X55651904Y-41626190D01*
X56794761Y-41530952D02*
X56699523Y-41483333D01*
X56651904Y-41435714D01*
X56604285Y-41340476D01*
X56604285Y-41292857D01*
X56651904Y-41197619D01*
X56699523Y-41150000D01*
X56794761Y-41102380D01*
X56985238Y-41102380D01*
X57080476Y-41150000D01*
X57128095Y-41197619D01*
X57175714Y-41292857D01*
X57175714Y-41340476D01*
X57128095Y-41435714D01*
X57080476Y-41483333D01*
X56985238Y-41530952D01*
X56794761Y-41530952D01*
X56699523Y-41578571D01*
X56651904Y-41626190D01*
X56604285Y-41721428D01*
X56604285Y-41911904D01*
X56651904Y-42007142D01*
X56699523Y-42054761D01*
X56794761Y-42102380D01*
X56985238Y-42102380D01*
X57080476Y-42054761D01*
X57128095Y-42007142D01*
X57175714Y-41911904D01*
X57175714Y-41721428D01*
X57128095Y-41626190D01*
X57080476Y-41578571D01*
X56985238Y-41530952D01*
%TO.C,J2*%
X37462380Y-51673333D02*
X38176666Y-51673333D01*
X38319523Y-51720952D01*
X38414761Y-51816190D01*
X38462380Y-51959047D01*
X38462380Y-52054285D01*
X37557619Y-51244761D02*
X37510000Y-51197142D01*
X37462380Y-51101904D01*
X37462380Y-50863809D01*
X37510000Y-50768571D01*
X37557619Y-50720952D01*
X37652857Y-50673333D01*
X37748095Y-50673333D01*
X37890952Y-50720952D01*
X38462380Y-51292380D01*
X38462380Y-50673333D01*
D12*
%TO.C,GREEN1*%
X38323714Y-25590200D02*
X38265657Y-25561171D01*
X38178571Y-25561171D01*
X38091485Y-25590200D01*
X38033428Y-25648257D01*
X38004400Y-25706314D01*
X37975371Y-25822428D01*
X37975371Y-25909514D01*
X38004400Y-26025628D01*
X38033428Y-26083685D01*
X38091485Y-26141742D01*
X38178571Y-26170771D01*
X38236628Y-26170771D01*
X38323714Y-26141742D01*
X38352742Y-26112714D01*
X38352742Y-25909514D01*
X38236628Y-25909514D01*
X38962342Y-26170771D02*
X38759142Y-25880485D01*
X38614000Y-26170771D02*
X38614000Y-25561171D01*
X38846228Y-25561171D01*
X38904285Y-25590200D01*
X38933314Y-25619228D01*
X38962342Y-25677285D01*
X38962342Y-25764371D01*
X38933314Y-25822428D01*
X38904285Y-25851457D01*
X38846228Y-25880485D01*
X38614000Y-25880485D01*
X39223600Y-25851457D02*
X39426800Y-25851457D01*
X39513885Y-26170771D02*
X39223600Y-26170771D01*
X39223600Y-25561171D01*
X39513885Y-25561171D01*
X39775142Y-25851457D02*
X39978342Y-25851457D01*
X40065428Y-26170771D02*
X39775142Y-26170771D01*
X39775142Y-25561171D01*
X40065428Y-25561171D01*
X40326685Y-26170771D02*
X40326685Y-25561171D01*
X40675028Y-26170771D01*
X40675028Y-25561171D01*
X41284628Y-26170771D02*
X40936285Y-26170771D01*
X41110457Y-26170771D02*
X41110457Y-25561171D01*
X41052400Y-25648257D01*
X40994342Y-25706314D01*
X40936285Y-25735342D01*
X39238114Y-29980771D02*
X38947828Y-29980771D01*
X38947828Y-29371171D01*
X39441314Y-29661457D02*
X39644514Y-29661457D01*
X39731600Y-29980771D02*
X39441314Y-29980771D01*
X39441314Y-29371171D01*
X39731600Y-29371171D01*
X39992857Y-29980771D02*
X39992857Y-29371171D01*
X40138000Y-29371171D01*
X40225085Y-29400200D01*
X40283142Y-29458257D01*
X40312171Y-29516314D01*
X40341200Y-29632428D01*
X40341200Y-29719514D01*
X40312171Y-29835628D01*
X40283142Y-29893685D01*
X40225085Y-29951742D01*
X40138000Y-29980771D01*
X39992857Y-29980771D01*
%TO.C,R12*%
X40986474Y-34805771D02*
X40783274Y-34515485D01*
X40638131Y-34805771D02*
X40638131Y-34196171D01*
X40870360Y-34196171D01*
X40928417Y-34225200D01*
X40957445Y-34254228D01*
X40986474Y-34312285D01*
X40986474Y-34399371D01*
X40957445Y-34457428D01*
X40928417Y-34486457D01*
X40870360Y-34515485D01*
X40638131Y-34515485D01*
X41567045Y-34805771D02*
X41218702Y-34805771D01*
X41392874Y-34805771D02*
X41392874Y-34196171D01*
X41334817Y-34283257D01*
X41276760Y-34341314D01*
X41218702Y-34370342D01*
X41799274Y-34254228D02*
X41828302Y-34225200D01*
X41886360Y-34196171D01*
X42031502Y-34196171D01*
X42089560Y-34225200D01*
X42118588Y-34254228D01*
X42147617Y-34312285D01*
X42147617Y-34370342D01*
X42118588Y-34457428D01*
X41770245Y-34805771D01*
X42147617Y-34805771D01*
X41009085Y-36994228D02*
X41038114Y-36965200D01*
X41096171Y-36936171D01*
X41241314Y-36936171D01*
X41299371Y-36965200D01*
X41328400Y-36994228D01*
X41357428Y-37052285D01*
X41357428Y-37110342D01*
X41328400Y-37197428D01*
X40980057Y-37545771D01*
X41357428Y-37545771D01*
X41618685Y-37545771D02*
X41618685Y-36936171D01*
X41676742Y-37313542D02*
X41850914Y-37545771D01*
X41850914Y-37139371D02*
X41618685Y-37371600D01*
%TO.C,RED1*%
X39107828Y-21270771D02*
X38904628Y-20980485D01*
X38759485Y-21270771D02*
X38759485Y-20661171D01*
X38991714Y-20661171D01*
X39049771Y-20690200D01*
X39078800Y-20719228D01*
X39107828Y-20777285D01*
X39107828Y-20864371D01*
X39078800Y-20922428D01*
X39049771Y-20951457D01*
X38991714Y-20980485D01*
X38759485Y-20980485D01*
X39369085Y-20951457D02*
X39572285Y-20951457D01*
X39659371Y-21270771D02*
X39369085Y-21270771D01*
X39369085Y-20661171D01*
X39659371Y-20661171D01*
X39920628Y-21270771D02*
X39920628Y-20661171D01*
X40065771Y-20661171D01*
X40152857Y-20690200D01*
X40210914Y-20748257D01*
X40239942Y-20806314D01*
X40268971Y-20922428D01*
X40268971Y-21009514D01*
X40239942Y-21125628D01*
X40210914Y-21183685D01*
X40152857Y-21241742D01*
X40065771Y-21270771D01*
X39920628Y-21270771D01*
X40849542Y-21270771D02*
X40501200Y-21270771D01*
X40675371Y-21270771D02*
X40675371Y-20661171D01*
X40617314Y-20748257D01*
X40559257Y-20806314D01*
X40501200Y-20835342D01*
X39398114Y-25080771D02*
X39107828Y-25080771D01*
X39107828Y-24471171D01*
X39601314Y-24761457D02*
X39804514Y-24761457D01*
X39891600Y-25080771D02*
X39601314Y-25080771D01*
X39601314Y-24471171D01*
X39891600Y-24471171D01*
X40152857Y-25080771D02*
X40152857Y-24471171D01*
X40298000Y-24471171D01*
X40385085Y-24500200D01*
X40443142Y-24558257D01*
X40472171Y-24616314D01*
X40501200Y-24732428D01*
X40501200Y-24819514D01*
X40472171Y-24935628D01*
X40443142Y-24993685D01*
X40385085Y-25051742D01*
X40298000Y-25080771D01*
X40152857Y-25080771D01*
D13*
%TO.C,U2*%
X29033871Y-33137893D02*
X29033871Y-33526936D01*
X29056756Y-33572706D01*
X29079641Y-33595591D01*
X29125411Y-33618476D01*
X29216950Y-33618476D01*
X29262720Y-33595591D01*
X29285605Y-33572706D01*
X29308490Y-33526936D01*
X29308490Y-33137893D01*
X29514454Y-33183663D02*
X29537339Y-33160778D01*
X29583109Y-33137893D01*
X29697533Y-33137893D01*
X29743303Y-33160778D01*
X29766188Y-33183663D01*
X29789073Y-33229433D01*
X29789073Y-33275203D01*
X29766188Y-33343857D01*
X29491569Y-33618476D01*
X29789073Y-33618476D01*
D11*
%TO.C,J3*%
X44002380Y-51673333D02*
X44716666Y-51673333D01*
X44859523Y-51720952D01*
X44954761Y-51816190D01*
X45002380Y-51959047D01*
X45002380Y-52054285D01*
X44002380Y-51292380D02*
X44002380Y-50673333D01*
X44383333Y-51006666D01*
X44383333Y-50863809D01*
X44430952Y-50768571D01*
X44478571Y-50720952D01*
X44573809Y-50673333D01*
X44811904Y-50673333D01*
X44907142Y-50720952D01*
X44954761Y-50768571D01*
X45002380Y-50863809D01*
X45002380Y-51149523D01*
X44954761Y-51244761D01*
X44907142Y-51292380D01*
%TO.C,R4*%
X29795833Y-42332380D02*
X29462500Y-41856190D01*
X29224404Y-42332380D02*
X29224404Y-41332380D01*
X29605357Y-41332380D01*
X29700595Y-41380000D01*
X29748214Y-41427619D01*
X29795833Y-41522857D01*
X29795833Y-41665714D01*
X29748214Y-41760952D01*
X29700595Y-41808571D01*
X29605357Y-41856190D01*
X29224404Y-41856190D01*
X30652976Y-41665714D02*
X30652976Y-42332380D01*
X30414880Y-41284761D02*
X30176785Y-41999047D01*
X30795833Y-41999047D01*
%TO.C,R2*%
X25455833Y-46592380D02*
X25122500Y-46116190D01*
X24884404Y-46592380D02*
X24884404Y-45592380D01*
X25265357Y-45592380D01*
X25360595Y-45640000D01*
X25408214Y-45687619D01*
X25455833Y-45782857D01*
X25455833Y-45925714D01*
X25408214Y-46020952D01*
X25360595Y-46068571D01*
X25265357Y-46116190D01*
X24884404Y-46116190D01*
X25836785Y-45687619D02*
X25884404Y-45640000D01*
X25979642Y-45592380D01*
X26217738Y-45592380D01*
X26312976Y-45640000D01*
X26360595Y-45687619D01*
X26408214Y-45782857D01*
X26408214Y-45878095D01*
X26360595Y-46020952D01*
X25789166Y-46592380D01*
X26408214Y-46592380D01*
%TO.C,R3*%
X29785833Y-46602380D02*
X29452500Y-46126190D01*
X29214404Y-46602380D02*
X29214404Y-45602380D01*
X29595357Y-45602380D01*
X29690595Y-45650000D01*
X29738214Y-45697619D01*
X29785833Y-45792857D01*
X29785833Y-45935714D01*
X29738214Y-46030952D01*
X29690595Y-46078571D01*
X29595357Y-46126190D01*
X29214404Y-46126190D01*
X30119166Y-45602380D02*
X30738214Y-45602380D01*
X30404880Y-45983333D01*
X30547738Y-45983333D01*
X30642976Y-46030952D01*
X30690595Y-46078571D01*
X30738214Y-46173809D01*
X30738214Y-46411904D01*
X30690595Y-46507142D01*
X30642976Y-46554761D01*
X30547738Y-46602380D01*
X30262023Y-46602380D01*
X30166785Y-46554761D01*
X30119166Y-46507142D01*
D14*
%TO.C,J5*%
X52046666Y-16958255D02*
X52046666Y-17865398D01*
X51986190Y-18046827D01*
X51865238Y-18167779D01*
X51683809Y-18228255D01*
X51562857Y-18228255D01*
X53256190Y-16958255D02*
X52651428Y-16958255D01*
X52590952Y-17563017D01*
X52651428Y-17502541D01*
X52772380Y-17442065D01*
X53074761Y-17442065D01*
X53195714Y-17502541D01*
X53256190Y-17563017D01*
X53316666Y-17683970D01*
X53316666Y-17986351D01*
X53256190Y-18107303D01*
X53195714Y-18167779D01*
X53074761Y-18228255D01*
X52772380Y-18228255D01*
X52651428Y-18167779D01*
X52590952Y-18107303D01*
D13*
%TO.C,U1*%
X40893095Y-39927380D02*
X40893095Y-40736904D01*
X40940714Y-40832142D01*
X40988333Y-40879761D01*
X41083571Y-40927380D01*
X41274047Y-40927380D01*
X41369285Y-40879761D01*
X41416904Y-40832142D01*
X41464523Y-40736904D01*
X41464523Y-39927380D01*
X42464523Y-40927380D02*
X41893095Y-40927380D01*
X42178809Y-40927380D02*
X42178809Y-39927380D01*
X42083571Y-40070238D01*
X41988333Y-40165476D01*
X41893095Y-40213095D01*
D11*
%TO.C,R7*%
X55583333Y-50652380D02*
X55250000Y-50176190D01*
X55011904Y-50652380D02*
X55011904Y-49652380D01*
X55392857Y-49652380D01*
X55488095Y-49700000D01*
X55535714Y-49747619D01*
X55583333Y-49842857D01*
X55583333Y-49985714D01*
X55535714Y-50080952D01*
X55488095Y-50128571D01*
X55392857Y-50176190D01*
X55011904Y-50176190D01*
X55916666Y-49652380D02*
X56583333Y-49652380D01*
X56154761Y-50652380D01*
D12*
%TO.C,R1*%
X41328400Y-31525771D02*
X41125200Y-31235485D01*
X40980057Y-31525771D02*
X40980057Y-30916171D01*
X41212285Y-30916171D01*
X41270342Y-30945200D01*
X41299371Y-30974228D01*
X41328400Y-31032285D01*
X41328400Y-31119371D01*
X41299371Y-31177428D01*
X41270342Y-31206457D01*
X41212285Y-31235485D01*
X40980057Y-31235485D01*
X41908971Y-31525771D02*
X41560628Y-31525771D01*
X41734800Y-31525771D02*
X41734800Y-30916171D01*
X41676742Y-31003257D01*
X41618685Y-31061314D01*
X41560628Y-31090342D01*
X-10030914Y-14204228D02*
X-10001885Y-14175200D01*
X-9943828Y-14146171D01*
X-9798685Y-14146171D01*
X-9740628Y-14175200D01*
X-9711600Y-14204228D01*
X-9682571Y-14262285D01*
X-9682571Y-14320342D01*
X-9711600Y-14407428D01*
X-10059942Y-14755771D01*
X-9682571Y-14755771D01*
X-9421314Y-14755771D02*
X-9421314Y-14146171D01*
X-9363257Y-14523542D02*
X-9189085Y-14755771D01*
X-9189085Y-14349371D02*
X-9421314Y-14581600D01*
D11*
%TO.C,R11*%
X51557142Y-42102380D02*
X51223809Y-41626190D01*
X50985714Y-42102380D02*
X50985714Y-41102380D01*
X51366666Y-41102380D01*
X51461904Y-41150000D01*
X51509523Y-41197619D01*
X51557142Y-41292857D01*
X51557142Y-41435714D01*
X51509523Y-41530952D01*
X51461904Y-41578571D01*
X51366666Y-41626190D01*
X50985714Y-41626190D01*
X52509523Y-42102380D02*
X51938095Y-42102380D01*
X52223809Y-42102380D02*
X52223809Y-41102380D01*
X52128571Y-41245238D01*
X52033333Y-41340476D01*
X51938095Y-41388095D01*
X53461904Y-42102380D02*
X52890476Y-42102380D01*
X53176190Y-42102380D02*
X53176190Y-41102380D01*
X53080952Y-41245238D01*
X52985714Y-41340476D01*
X52890476Y-41388095D01*
%TO.C,R10*%
X55737142Y-46502380D02*
X55403809Y-46026190D01*
X55165714Y-46502380D02*
X55165714Y-45502380D01*
X55546666Y-45502380D01*
X55641904Y-45550000D01*
X55689523Y-45597619D01*
X55737142Y-45692857D01*
X55737142Y-45835714D01*
X55689523Y-45930952D01*
X55641904Y-45978571D01*
X55546666Y-46026190D01*
X55165714Y-46026190D01*
X56689523Y-46502380D02*
X56118095Y-46502380D01*
X56403809Y-46502380D02*
X56403809Y-45502380D01*
X56308571Y-45645238D01*
X56213333Y-45740476D01*
X56118095Y-45788095D01*
X57308571Y-45502380D02*
X57403809Y-45502380D01*
X57499047Y-45550000D01*
X57546666Y-45597619D01*
X57594285Y-45692857D01*
X57641904Y-45883333D01*
X57641904Y-46121428D01*
X57594285Y-46311904D01*
X57546666Y-46407142D01*
X57499047Y-46454761D01*
X57403809Y-46502380D01*
X57308571Y-46502380D01*
X57213333Y-46454761D01*
X57165714Y-46407142D01*
X57118095Y-46311904D01*
X57070476Y-46121428D01*
X57070476Y-45883333D01*
X57118095Y-45692857D01*
X57165714Y-45597619D01*
X57213333Y-45550000D01*
X57308571Y-45502380D01*
%TO.C,R6*%
X27315833Y-50682380D02*
X26982500Y-50206190D01*
X26744404Y-50682380D02*
X26744404Y-49682380D01*
X27125357Y-49682380D01*
X27220595Y-49730000D01*
X27268214Y-49777619D01*
X27315833Y-49872857D01*
X27315833Y-50015714D01*
X27268214Y-50110952D01*
X27220595Y-50158571D01*
X27125357Y-50206190D01*
X26744404Y-50206190D01*
X28172976Y-49682380D02*
X27982500Y-49682380D01*
X27887261Y-49730000D01*
X27839642Y-49777619D01*
X27744404Y-49920476D01*
X27696785Y-50110952D01*
X27696785Y-50491904D01*
X27744404Y-50587142D01*
X27792023Y-50634761D01*
X27887261Y-50682380D01*
X28077738Y-50682380D01*
X28172976Y-50634761D01*
X28220595Y-50587142D01*
X28268214Y-50491904D01*
X28268214Y-50253809D01*
X28220595Y-50158571D01*
X28172976Y-50110952D01*
X28077738Y-50063333D01*
X27887261Y-50063333D01*
X27792023Y-50110952D01*
X27744404Y-50158571D01*
X27696785Y-50253809D01*
D14*
%TO.C,J4*%
X28676666Y-16998255D02*
X28676666Y-17905398D01*
X28616190Y-18086827D01*
X28495238Y-18207779D01*
X28313809Y-18268255D01*
X28192857Y-18268255D01*
X29825714Y-17421589D02*
X29825714Y-18268255D01*
X29523333Y-16937779D02*
X29220952Y-17844922D01*
X30007142Y-17844922D01*
D11*
%TO.C,C1*%
X38923333Y-48717142D02*
X38875714Y-48764761D01*
X38732857Y-48812380D01*
X38637619Y-48812380D01*
X38494761Y-48764761D01*
X38399523Y-48669523D01*
X38351904Y-48574285D01*
X38304285Y-48383809D01*
X38304285Y-48240952D01*
X38351904Y-48050476D01*
X38399523Y-47955238D01*
X38494761Y-47860000D01*
X38637619Y-47812380D01*
X38732857Y-47812380D01*
X38875714Y-47860000D01*
X38923333Y-47907619D01*
X39875714Y-48812380D02*
X39304285Y-48812380D01*
X39590000Y-48812380D02*
X39590000Y-47812380D01*
X39494761Y-47955238D01*
X39399523Y-48050476D01*
X39304285Y-48098095D01*
%TO.C,J1*%
X30922380Y-51673333D02*
X31636666Y-51673333D01*
X31779523Y-51720952D01*
X31874761Y-51816190D01*
X31922380Y-51959047D01*
X31922380Y-52054285D01*
X31922380Y-50673333D02*
X31922380Y-51244761D01*
X31922380Y-50959047D02*
X30922380Y-50959047D01*
X31065238Y-51054285D01*
X31160476Y-51149523D01*
X31208095Y-51244761D01*
%TO.C,R5*%
X25495833Y-42292380D02*
X25162500Y-41816190D01*
X24924404Y-42292380D02*
X24924404Y-41292380D01*
X25305357Y-41292380D01*
X25400595Y-41340000D01*
X25448214Y-41387619D01*
X25495833Y-41482857D01*
X25495833Y-41625714D01*
X25448214Y-41720952D01*
X25400595Y-41768571D01*
X25305357Y-41816190D01*
X24924404Y-41816190D01*
X26400595Y-41292380D02*
X25924404Y-41292380D01*
X25876785Y-41768571D01*
X25924404Y-41720952D01*
X26019642Y-41673333D01*
X26257738Y-41673333D01*
X26352976Y-41720952D01*
X26400595Y-41768571D01*
X26448214Y-41863809D01*
X26448214Y-42101904D01*
X26400595Y-42197142D01*
X26352976Y-42244761D01*
X26257738Y-42292380D01*
X26019642Y-42292380D01*
X25924404Y-42244761D01*
X25876785Y-42197142D01*
D15*
%TO.C,R9*%
X51945276Y-48002500D02*
X52454724Y-48002500D01*
X51945276Y-46957500D02*
X52454724Y-46957500D01*
%TO.C,R8*%
X56135276Y-43602500D02*
X56644724Y-43602500D01*
X56135276Y-42557500D02*
X56644724Y-42557500D01*
%TO.C,J2*%
X43130000Y-52400000D02*
X43130000Y-50280000D01*
X41070000Y-52400000D02*
X41070000Y-50280000D01*
X41070000Y-50280000D02*
X43130000Y-50280000D01*
X39010000Y-52400000D02*
X39010000Y-51340000D01*
X41070000Y-52400000D02*
X43130000Y-52400000D01*
X40070000Y-52400000D02*
X39010000Y-52400000D01*
D16*
%TO.C,GREEN1*%
X38995000Y-26530000D02*
X40265000Y-26530000D01*
X42805000Y-29070000D02*
X41535000Y-29070000D01*
X41535000Y-29070000D02*
X40900000Y-28435000D01*
X41535000Y-26530000D02*
X42805000Y-26530000D01*
X42805000Y-26530000D02*
X43440000Y-27165000D01*
X38995000Y-26530000D02*
X38360000Y-27165000D01*
X38360000Y-28435000D02*
X38995000Y-29070000D01*
X43440000Y-28435000D02*
X42805000Y-29070000D01*
X43440000Y-27165000D02*
X43440000Y-28435000D01*
X38360000Y-27165000D02*
X38360000Y-28435000D01*
X40900000Y-28435000D02*
X40265000Y-29070000D01*
X40265000Y-26530000D02*
X40900000Y-27165000D01*
X40265000Y-29070000D02*
X38995000Y-29070000D01*
X40900000Y-27165000D02*
X41535000Y-26530000D01*
D17*
%TO.C,R12*%
X41180240Y-36099720D02*
X41576480Y-36099720D01*
X41576480Y-36099720D02*
X41576480Y-35500280D01*
X41180240Y-36099720D02*
X41180240Y-35500280D01*
X41180240Y-35500280D02*
X41576480Y-35500280D01*
D16*
%TO.C,RED1*%
X39155000Y-21630000D02*
X38520000Y-22265000D01*
X40425000Y-24170000D02*
X39155000Y-24170000D01*
X38520000Y-23535000D02*
X39155000Y-24170000D01*
X42965000Y-24170000D02*
X41695000Y-24170000D01*
X41695000Y-24170000D02*
X41060000Y-23535000D01*
X39155000Y-21630000D02*
X40425000Y-21630000D01*
X41060000Y-22265000D02*
X41695000Y-21630000D01*
X42965000Y-21630000D02*
X43600000Y-22265000D01*
X41695000Y-21630000D02*
X42965000Y-21630000D01*
X43600000Y-23535000D02*
X42965000Y-24170000D01*
X41060000Y-23535000D02*
X40425000Y-24170000D01*
X38520000Y-22265000D02*
X38520000Y-23535000D01*
X40425000Y-21630000D02*
X41060000Y-22265000D01*
X43600000Y-22265000D02*
X43600000Y-23535000D01*
D15*
%TO.C,J3*%
X47610000Y-50280000D02*
X49670000Y-50280000D01*
X45550000Y-52400000D02*
X45550000Y-51340000D01*
X47610000Y-52400000D02*
X47610000Y-50280000D01*
X46610000Y-52400000D02*
X45550000Y-52400000D01*
X49670000Y-52400000D02*
X49670000Y-50280000D01*
X47610000Y-52400000D02*
X49670000Y-52400000D01*
%TO.C,R4*%
X29707776Y-43832500D02*
X30217224Y-43832500D01*
X29707776Y-42787500D02*
X30217224Y-42787500D01*
%TO.C,R2*%
X25367776Y-47047500D02*
X25877224Y-47047500D01*
X25367776Y-48092500D02*
X25877224Y-48092500D01*
%TO.C,R3*%
X29697776Y-48102500D02*
X30207224Y-48102500D01*
X29697776Y-47057500D02*
X30207224Y-47057500D01*
D18*
%TO.C,J5*%
X59670000Y-32773732D02*
X45270000Y-32773732D01*
X59670000Y-18673732D02*
X59670000Y-32773732D01*
X45270000Y-32773732D02*
X45270000Y-18673732D01*
X45270000Y-18673732D02*
X59670000Y-18673732D01*
D12*
%TO.C,U1*%
X40032500Y-41585000D02*
X43927500Y-41585000D01*
X40032500Y-46635000D02*
X43927500Y-46635000D01*
D19*
X38040000Y-41805000D02*
G75*
G03*
X38040000Y-41805000I-100000J0D01*
G01*
D15*
%TO.C,R7*%
X55495276Y-51107500D02*
X56004724Y-51107500D01*
X55495276Y-52152500D02*
X56004724Y-52152500D01*
D17*
%TO.C,R1*%
X41231880Y-32220280D02*
X41628120Y-32220280D01*
X41628120Y-32819720D02*
X41628120Y-32220280D01*
X41231880Y-32819720D02*
X41628120Y-32819720D01*
X41231880Y-32819720D02*
X41231880Y-32220280D01*
D15*
%TO.C,R11*%
X51945276Y-42557500D02*
X52454724Y-42557500D01*
X51945276Y-43602500D02*
X52454724Y-43602500D01*
%TO.C,R10*%
X56125276Y-48002500D02*
X56634724Y-48002500D01*
X56125276Y-46957500D02*
X56634724Y-46957500D01*
%TO.C,R6*%
X27227776Y-51137500D02*
X27737224Y-51137500D01*
X27227776Y-52182500D02*
X27737224Y-52182500D01*
D18*
%TO.C,J4*%
X21900000Y-18713732D02*
X36300000Y-18713732D01*
X21900000Y-32813732D02*
X21900000Y-18713732D01*
X36300000Y-18713732D02*
X36300000Y-32813732D01*
X36300000Y-32813732D02*
X21900000Y-32813732D01*
D15*
%TO.C,C1*%
X41653733Y-48770000D02*
X41946267Y-48770000D01*
X41653733Y-47750000D02*
X41946267Y-47750000D01*
%TO.C,J1*%
X34530000Y-52400000D02*
X34530000Y-50280000D01*
X34530000Y-50280000D02*
X36590000Y-50280000D01*
X36590000Y-52400000D02*
X36590000Y-50280000D01*
X32470000Y-52400000D02*
X32470000Y-51340000D01*
X33530000Y-52400000D02*
X32470000Y-52400000D01*
X34530000Y-52400000D02*
X36590000Y-52400000D01*
%TO.C,R5*%
X25877224Y-42767500D02*
X25367776Y-42767500D01*
X25877224Y-43812500D02*
X25367776Y-43812500D01*
%TD*%
M02*
