M48
; DRILL file {KiCad (5.99.0-9773-gf428ce03f2)} date Mon May 10 10:20:09 2021
; FORMAT={-:-/ absolute / inch / decimal}
; #@! TF.CreationDate,2021-05-10T10:20:09-04:00
; #@! TF.GenerationSoftware,Kicad,Pcbnew,(5.99.0-9773-gf428ce03f2)
; #@! TF.FileFunction,Plated,1,2,PTH
FMAT,2
INCH
; #@! TA.AperFunction,ViaDrill
T1C0.0157
; #@! TA.AperFunction,ComponentDrill
T2C0.0315
; #@! TA.AperFunction,ComponentDrill
T3C0.0350
; #@! TA.AperFunction,ComponentDrill
T4C0.0400
; #@! TA.AperFunction,ComponentDrill
T5C0.0433
; #@! TA.AperFunction,ComponentDrill
T6C0.0791
%
G90
G05
T1
; via hole
X0.8535Y-1.4854
X0.8992Y-1.378
X0.9898Y-1.6382
X1.05Y-1.7921
X1.0728Y-1.5614
X1.0807Y-1.6465
X1.1843Y-2.035
X1.1858Y-1.9606
X1.2169Y-1.6394
X1.261Y-1.7642
X1.3425Y-1.826
X1.378Y-1.902
X1.3909Y-1.7642
X1.6295Y-1.4669
X1.6319Y-1.2169
X1.6346Y-1.5291
X1.7929Y-1.376
X1.8382Y-1.6252
X1.8862Y-1.8724
X1.899Y-1.6104
X1.9472Y-1.813
X1.9811Y-1.6138
X2.0717Y-1.6173
X2.091Y-1.7613
X2.0949Y-2.0189
X2.187Y-1.935
X2.2457Y-1.7697
X2.2953Y-1.4988
T2
; pad hole
X1.3201Y-2.0213
X1.3988Y-2.0213
X1.5776Y-2.0213
X1.6563Y-2.0213
X1.835Y-2.0213
X1.9138Y-2.0213
T3
X1.0457Y-1.2466
X1.1457Y-1.2466
X1.9657Y-1.245
X2.0657Y-1.245
T4
X1.5602Y-1.0945
X1.5665Y-0.9016
X1.6602Y-1.0945
X1.6665Y-0.9016
T5
X1.1878Y-1.5681
X1.1882Y-1.4098
X1.1882Y-1.4886
X1.313Y-1.5693
X1.3134Y-1.411
X1.3134Y-1.4898
X1.4346Y-1.5673
X1.435Y-1.4091
X1.435Y-1.4878
T6
X0.9457Y-1.0466
X1.3457Y-1.0466
X1.8657Y-1.045
X2.2657Y-1.045
T0
M30
