%TF.GenerationSoftware,KiCad,Pcbnew,(5.99.0-9773-gf428ce03f2)*%
%TF.CreationDate,2021-05-10T10:20:15-04:00*%
%TF.ProjectId,D5XAMP_v4,44355841-4d50-45f7-9634-2e6b69636164,rev?*%
%TF.SameCoordinates,Original*%
%TF.FileFunction,Copper,L1,Top*%
%TF.FilePolarity,Positive*%
%FSLAX46Y46*%
G04 Gerber Fmt 4.6, Leading zero omitted, Abs format (unit mm)*
G04 Created by KiCad (PCBNEW (5.99.0-9773-gf428ce03f2)) date 2021-05-10 10:20:15*
%MOMM*%
%LPD*%
G01*
G04 APERTURE LIST*
G04 Aperture macros list*
%AMRoundRect*
0 Rectangle with rounded corners*
0 $1 Rounding radius*
0 $2 $3 $4 $5 $6 $7 $8 $9 X,Y pos of 4 corners*
0 Add a 4 corners polygon primitive as box body*
4,1,4,$2,$3,$4,$5,$6,$7,$8,$9,$2,$3,0*
0 Add four circle primitives for the rounded corners*
1,1,$1+$1,$2,$3*
1,1,$1+$1,$4,$5*
1,1,$1+$1,$6,$7*
1,1,$1+$1,$8,$9*
0 Add four rect primitives between the rounded corners*
20,1,$1+$1,$2,$3,$4,$5,0*
20,1,$1+$1,$4,$5,$6,$7,0*
20,1,$1+$1,$6,$7,$8,$9,0*
20,1,$1+$1,$8,$9,$2,$3,0*%
G04 Aperture macros list end*
%TA.AperFunction,SMDPad,CuDef*%
%ADD10RoundRect,0.237500X-0.250000X-0.237500X0.250000X-0.237500X0.250000X0.237500X-0.250000X0.237500X0*%
%TD*%
%TA.AperFunction,ComponentPad*%
%ADD11R,1.350000X1.350000*%
%TD*%
%TA.AperFunction,ComponentPad*%
%ADD12O,1.350000X1.350000*%
%TD*%
%TA.AperFunction,ComponentPad*%
%ADD13C,1.879600*%
%TD*%
%TA.AperFunction,SMDPad,CuDef*%
%ADD14R,1.099820X0.998220*%
%TD*%
%TA.AperFunction,ComponentPad*%
%ADD15C,1.650000*%
%TD*%
%TA.AperFunction,ComponentPad*%
%ADD16R,1.650000X1.650000*%
%TD*%
%TA.AperFunction,ComponentPad*%
%ADD17C,1.446000*%
%TD*%
%TA.AperFunction,ComponentPad*%
%ADD18C,3.015000*%
%TD*%
%TA.AperFunction,SMDPad,CuDef*%
%ADD19R,1.970000X0.600000*%
%TD*%
%TA.AperFunction,SMDPad,CuDef*%
%ADD20RoundRect,0.237500X-0.300000X-0.237500X0.300000X-0.237500X0.300000X0.237500X-0.300000X0.237500X0*%
%TD*%
%TA.AperFunction,SMDPad,CuDef*%
%ADD21RoundRect,0.237500X0.250000X0.237500X-0.250000X0.237500X-0.250000X-0.237500X0.250000X-0.237500X0*%
%TD*%
%TA.AperFunction,ViaPad*%
%ADD22C,0.800000*%
%TD*%
%TA.AperFunction,Conductor*%
%ADD23C,0.250000*%
%TD*%
G04 APERTURE END LIST*
D10*
%TO.P,R9,1*%
%TO.N,Net-(R9-Pad1)*%
X51287500Y-47480000D03*
%TO.P,R9,2*%
%TO.N,Net-(R10-Pad2)*%
X53112500Y-47480000D03*
%TD*%
%TO.P,R8,1*%
%TO.N,GND*%
X55477500Y-43080000D03*
%TO.P,R8,2*%
%TO.N,Input 2*%
X57302500Y-43080000D03*
%TD*%
D11*
%TO.P,J2,1,Pin_1*%
%TO.N,GND*%
X40070000Y-51340000D03*
D12*
%TO.P,J2,2,Pin_2*%
%TO.N,PWR*%
X42070000Y-51340000D03*
%TD*%
D13*
%TO.P,GREEN1,1,K*%
%TO.N,GND*%
X39630000Y-27800000D03*
%TO.P,GREEN1,2,A*%
%TO.N,Net-(GREEN1-Pad2)*%
X42170000Y-27800000D03*
%TD*%
D14*
%TO.P,R12,1*%
%TO.N,GREEN*%
X40530000Y-35800000D03*
%TO.P,R12,2*%
%TO.N,Net-(GREEN1-Pad2)*%
X42226720Y-35800000D03*
%TD*%
D13*
%TO.P,RED1,1,K*%
%TO.N,GND*%
X39790000Y-22900000D03*
%TO.P,RED1,2,A*%
%TO.N,Net-(RED1-Pad2)*%
X42330000Y-22900000D03*
%TD*%
D15*
%TO.P,U2,1,1*%
%TO.N,Net-(R7-Pad2)*%
X33360000Y-35840000D03*
D16*
%TO.P,U2,2,2*%
%TO.N,Net-(R9-Pad1)*%
X30180000Y-35810000D03*
D15*
%TO.P,U2,3,3*%
%TO.N,Net-(R11-Pad1)*%
X36450000Y-35790000D03*
%TO.P,U2,4,4*%
%TO.N,Net-(R6-Pad1)*%
X33360000Y-37840000D03*
%TO.P,U2,5,5*%
%TO.N,Net-(R2-Pad1)*%
X30180000Y-37810000D03*
%TO.P,U2,6,6*%
%TO.N,Net-(R4-Pad1)*%
X36450000Y-37790000D03*
%TO.P,U2,7,4*%
%TO.N,PWR*%
X33350000Y-39860000D03*
%TO.P,U2,8,5*%
%TO.N,RED*%
X30170000Y-39830000D03*
%TO.P,U2,9,6*%
%TO.N,GREEN*%
X36440000Y-39810000D03*
%TD*%
D11*
%TO.P,J3,1,Pin_1*%
%TO.N,GND*%
X46610000Y-51340000D03*
D12*
%TO.P,J3,2,Pin_2*%
%TO.N,Output 2*%
X48610000Y-51340000D03*
%TD*%
D10*
%TO.P,R4,1*%
%TO.N,Net-(R4-Pad1)*%
X29050000Y-43310000D03*
%TO.P,R4,2*%
%TO.N,Net-(R2-Pad2)*%
X30875000Y-43310000D03*
%TD*%
%TO.P,R2,1*%
%TO.N,Net-(R2-Pad1)*%
X24710000Y-47570000D03*
%TO.P,R2,2*%
%TO.N,Net-(R2-Pad2)*%
X26535000Y-47570000D03*
%TD*%
%TO.P,R3,1*%
%TO.N,GND*%
X29040000Y-47580000D03*
%TO.P,R3,2*%
%TO.N,Net-(R2-Pad2)*%
X30865000Y-47580000D03*
%TD*%
D17*
%TO.P,J5,1,In*%
%TO.N,GND*%
X49930000Y-31623732D03*
%TO.P,J5,2,Ext*%
%TO.N,Input 2*%
X52470000Y-31623732D03*
D18*
%TO.P,J5,3*%
%TO.N,N/C*%
X57550000Y-26543732D03*
%TO.P,J5,4*%
X47390000Y-26543732D03*
%TD*%
D19*
%TO.P,U1,1,Output1*%
%TO.N,Net-(R6-Pad1)*%
X39510000Y-42205000D03*
%TO.P,U1,2,-input1*%
%TO.N,Net-(R2-Pad2)*%
X39510000Y-43475000D03*
%TO.P,U1,3,+input1*%
%TO.N,Input 1*%
X39510000Y-44745000D03*
%TO.P,U1,4,VEE*%
%TO.N,GND*%
X39510000Y-46015000D03*
%TO.P,U1,5,+input2*%
%TO.N,Input 2*%
X44450000Y-46015000D03*
%TO.P,U1,6,-input2*%
%TO.N,Net-(R10-Pad2)*%
X44450000Y-44745000D03*
%TO.P,U1,7,Output2*%
%TO.N,Net-(R7-Pad2)*%
X44450000Y-43475000D03*
%TO.P,U1,8,VCC*%
%TO.N,PWR*%
X44450000Y-42205000D03*
%TD*%
D10*
%TO.P,R7,1*%
%TO.N,Output 2*%
X54837500Y-51630000D03*
%TO.P,R7,2*%
%TO.N,Net-(R7-Pad2)*%
X56662500Y-51630000D03*
%TD*%
D14*
%TO.P,R1,1*%
%TO.N,RED*%
X40581640Y-32520000D03*
%TO.P,R1,2*%
%TO.N,Net-(RED1-Pad2)*%
X42278360Y-32520000D03*
%TD*%
D10*
%TO.P,R11,1*%
%TO.N,Net-(R11-Pad1)*%
X51287500Y-43080000D03*
%TO.P,R11,2*%
%TO.N,Net-(R10-Pad2)*%
X53112500Y-43080000D03*
%TD*%
%TO.P,R10,1*%
%TO.N,GND*%
X55467500Y-47480000D03*
%TO.P,R10,2*%
%TO.N,Net-(R10-Pad2)*%
X57292500Y-47480000D03*
%TD*%
%TO.P,R6,1*%
%TO.N,Net-(R6-Pad1)*%
X26570000Y-51660000D03*
%TO.P,R6,2*%
%TO.N,Output 1*%
X28395000Y-51660000D03*
%TD*%
D17*
%TO.P,J4,1,In*%
%TO.N,GND*%
X26560000Y-31663732D03*
%TO.P,J4,2,Ext*%
%TO.N,Input 1*%
X29100000Y-31663732D03*
D18*
%TO.P,J4,3*%
%TO.N,N/C*%
X34180000Y-26583732D03*
%TO.P,J4,4*%
X24020000Y-26583732D03*
%TD*%
D20*
%TO.P,C1,1*%
%TO.N,GND*%
X40937500Y-48260000D03*
%TO.P,C1,2*%
%TO.N,PWR*%
X42662500Y-48260000D03*
%TD*%
D11*
%TO.P,J1,1,Pin_1*%
%TO.N,GND*%
X33530000Y-51340000D03*
D12*
%TO.P,J1,2,Pin_2*%
%TO.N,Output 1*%
X35530000Y-51340000D03*
%TD*%
D21*
%TO.P,R5,1*%
%TO.N,Input 1*%
X26535000Y-43290000D03*
%TO.P,R5,2*%
%TO.N,GND*%
X24710000Y-43290000D03*
%TD*%
D22*
%TO.N,PWR*%
X47910000Y-47560000D03*
X46690000Y-41280000D03*
%TO.N,GND*%
X26670000Y-45520000D03*
X35000000Y-48310000D03*
X55550000Y-49150000D03*
X25140000Y-41610000D03*
X30120000Y-49800000D03*
X21680000Y-37730000D03*
%TO.N,Output 1*%
X30080000Y-51690000D03*
%TO.N,Output 2*%
X53210000Y-51280000D03*
%TO.N,Input 1*%
X27450000Y-41820000D03*
X34100000Y-46380000D03*
%TO.N,Input 2*%
X49460000Y-46050000D03*
%TO.N,Net-(R2-Pad2)*%
X32030000Y-44810000D03*
X35330000Y-44810000D03*
%TO.N,Net-(R4-Pad1)*%
X30910000Y-41640000D03*
%TO.N,Net-(R7-Pad2)*%
X50320000Y-40990000D03*
X58300000Y-38070000D03*
X52620000Y-41080000D03*
X48235000Y-40905000D03*
%TO.N,Net-(R10-Pad2)*%
X53112500Y-44737500D03*
X57040000Y-44950000D03*
%TO.N,Net-(GREEN1-Pad2)*%
X45540000Y-34950000D03*
%TO.N,Net-(RED1-Pad2)*%
X41450000Y-30910000D03*
%TO.N,RED*%
X22840000Y-35000000D03*
X27250000Y-39660000D03*
%TO.N,GREEN*%
X41390000Y-37260000D03*
X41520000Y-38840000D03*
%TD*%
D23*
%TO.N,PWR*%
X42662500Y-48260000D02*
X42662500Y-50747500D01*
X45765000Y-42205000D02*
X46690000Y-41280000D01*
X47210000Y-48260000D02*
X47910000Y-47560000D01*
X44450000Y-42205000D02*
X45765000Y-42205000D01*
X42662500Y-50747500D02*
X42070000Y-51340000D01*
X42662500Y-48260000D02*
X47210000Y-48260000D01*
%TO.N,GND*%
X49930000Y-35230000D02*
X49930000Y-31623732D01*
X39790000Y-27640000D02*
X39630000Y-27800000D01*
X39510000Y-46015000D02*
X38685000Y-46015000D01*
X46610000Y-51340000D02*
X46610000Y-53170000D01*
X39500000Y-50110000D02*
X39500000Y-50770000D01*
X38685000Y-46015000D02*
X36535000Y-48165000D01*
X40070000Y-53250000D02*
X40070000Y-51340000D01*
X21510000Y-34100000D02*
X21510000Y-37560000D01*
X55477500Y-47470000D02*
X55467500Y-47480000D01*
X39500000Y-50770000D02*
X40070000Y-51340000D01*
X40937500Y-48260000D02*
X40937500Y-48672500D01*
X24710000Y-43290000D02*
X24710000Y-43560000D01*
X40310000Y-53490000D02*
X40070000Y-53250000D01*
X24710000Y-42040000D02*
X25140000Y-41610000D01*
X26560000Y-31663732D02*
X23946268Y-31663732D01*
X50240000Y-35540000D02*
X49930000Y-35230000D01*
X36390000Y-48310000D02*
X35000000Y-48310000D01*
X21510000Y-37560000D02*
X21680000Y-37730000D01*
X39630000Y-27800000D02*
X47370000Y-35540000D01*
X39790000Y-22900000D02*
X39790000Y-27640000D01*
X55467500Y-49067500D02*
X55550000Y-49150000D01*
X36630000Y-48260000D02*
X36535000Y-48165000D01*
X36535000Y-48165000D02*
X36390000Y-48310000D01*
X24710000Y-43560000D02*
X26670000Y-45520000D01*
X55477500Y-43080000D02*
X55477500Y-47470000D01*
X29040000Y-47580000D02*
X29040000Y-48720000D01*
X33530000Y-49780000D02*
X35000000Y-48310000D01*
X46610000Y-53170000D02*
X46290000Y-53490000D01*
X23946268Y-31663732D02*
X21510000Y-34100000D01*
X33530000Y-51340000D02*
X33530000Y-49780000D01*
X55477500Y-40777500D02*
X50240000Y-35540000D01*
X47370000Y-35540000D02*
X50240000Y-35540000D01*
X40937500Y-48260000D02*
X36630000Y-48260000D01*
X46290000Y-53490000D02*
X40310000Y-53490000D01*
X55467500Y-47480000D02*
X55467500Y-49067500D01*
X29040000Y-48720000D02*
X30120000Y-49800000D01*
X24710000Y-43290000D02*
X24710000Y-42040000D01*
X40937500Y-48672500D02*
X39500000Y-50110000D01*
X55477500Y-43080000D02*
X55477500Y-40777500D01*
%TO.N,Output 1*%
X30050000Y-51660000D02*
X30080000Y-51690000D01*
X28395000Y-51660000D02*
X30050000Y-51660000D01*
%TO.N,Output 2*%
X53210000Y-51280000D02*
X54487500Y-51280000D01*
X54487500Y-51280000D02*
X54837500Y-51630000D01*
%TO.N,Input 1*%
X26535000Y-43290000D02*
X26535000Y-42735000D01*
X37190000Y-46380000D02*
X34100000Y-46380000D01*
X39510000Y-44745000D02*
X38825000Y-44745000D01*
X26535000Y-42735000D02*
X27450000Y-41820000D01*
X38825000Y-44745000D02*
X37190000Y-46380000D01*
%TO.N,Input 2*%
X57086268Y-36240000D02*
X57280000Y-36240000D01*
X44450000Y-46015000D02*
X49425000Y-46015000D01*
X52470000Y-31623732D02*
X57086268Y-36240000D01*
X57280000Y-36240000D02*
X57302500Y-36262500D01*
X49425000Y-46015000D02*
X49460000Y-46050000D01*
X57302500Y-36262500D02*
X57302500Y-43080000D01*
%TO.N,Net-(R2-Pad2)*%
X30700000Y-45120000D02*
X30740000Y-45160000D01*
X30875000Y-44805000D02*
X30875000Y-43310000D01*
X35330000Y-44810000D02*
X35900000Y-44810000D01*
X30875000Y-45025000D02*
X30875000Y-44805000D01*
X30865000Y-45035000D02*
X30875000Y-45025000D01*
X30740000Y-45160000D02*
X30875000Y-45025000D01*
X30865000Y-47580000D02*
X30865000Y-45035000D01*
X32025000Y-44805000D02*
X32030000Y-44810000D01*
X37235000Y-43475000D02*
X39510000Y-43475000D01*
X26535000Y-47570000D02*
X26560000Y-47570000D01*
X35900000Y-44810000D02*
X37235000Y-43475000D01*
X29010000Y-45120000D02*
X30700000Y-45120000D01*
X26560000Y-47570000D02*
X29010000Y-45120000D01*
X30875000Y-44805000D02*
X32025000Y-44805000D01*
%TO.N,Net-(R2-Pad1)*%
X22820000Y-46320000D02*
X22820000Y-41090000D01*
X22820000Y-41090000D02*
X26100000Y-37810000D01*
X26100000Y-37810000D02*
X30180000Y-37810000D01*
X24710000Y-47570000D02*
X24070000Y-47570000D01*
X24070000Y-47570000D02*
X22820000Y-46320000D01*
%TO.N,Net-(R4-Pad1)*%
X29050000Y-43310000D02*
X29050000Y-42050000D01*
X29050000Y-42050000D02*
X29460000Y-41640000D01*
X29460000Y-41640000D02*
X30910000Y-41640000D01*
%TO.N,Net-(R6-Pad1)*%
X33360000Y-37840000D02*
X32280000Y-37840000D01*
X26570000Y-52510000D02*
X27390000Y-53330000D01*
X33240020Y-42380020D02*
X39334980Y-42380020D01*
X26570000Y-51660000D02*
X26570000Y-52510000D01*
X31710000Y-41090000D02*
X33000020Y-42380020D01*
X31360000Y-50040000D02*
X32800000Y-48600000D01*
X32800000Y-48600000D02*
X32800000Y-42820040D01*
X30090000Y-53330000D02*
X31360000Y-52060000D01*
X32280000Y-37840000D02*
X31710000Y-38410000D01*
X31710000Y-38410000D02*
X31710000Y-41090000D01*
X27390000Y-53330000D02*
X30090000Y-53330000D01*
X32800000Y-42820040D02*
X33240020Y-42380020D01*
X31360000Y-52060000D02*
X31360000Y-50040000D01*
X33000020Y-42380020D02*
X33240020Y-42380020D01*
X39334980Y-42380020D02*
X39510000Y-42205000D01*
%TO.N,Net-(R7-Pad2)*%
X59020000Y-38070000D02*
X58300000Y-38070000D01*
X34860000Y-41310000D02*
X35480000Y-41930000D01*
X47130000Y-39800000D02*
X48235000Y-40905000D01*
X58070000Y-51630000D02*
X59350000Y-50350000D01*
X48340000Y-41010000D02*
X48340000Y-42450000D01*
X59350000Y-38400000D02*
X59020000Y-38070000D01*
X33360000Y-35840000D02*
X34490000Y-35840000D01*
X38790000Y-39800000D02*
X47130000Y-39800000D01*
X48235000Y-40905000D02*
X48340000Y-41010000D01*
X59350000Y-50350000D02*
X59350000Y-38400000D01*
X48320000Y-40990000D02*
X48235000Y-40905000D01*
X35480000Y-41930000D02*
X36660000Y-41930000D01*
X34490000Y-35840000D02*
X34860000Y-36210000D01*
X47315000Y-43475000D02*
X44450000Y-43475000D01*
X56662500Y-51630000D02*
X58070000Y-51630000D01*
X36660000Y-41930000D02*
X38790000Y-39800000D01*
X34860000Y-36210000D02*
X34860000Y-41310000D01*
X50320000Y-40990000D02*
X48320000Y-40990000D01*
X48340000Y-42450000D02*
X47315000Y-43475000D01*
%TO.N,Net-(R10-Pad2)*%
X53112500Y-44962500D02*
X53112500Y-44737500D01*
X52895000Y-44745000D02*
X53112500Y-44962500D01*
X57292500Y-45202500D02*
X57292500Y-47480000D01*
X53112500Y-44737500D02*
X53112500Y-43080000D01*
X53112500Y-47480000D02*
X53112500Y-44962500D01*
X44450000Y-44745000D02*
X52895000Y-44745000D01*
X57040000Y-44950000D02*
X57292500Y-45202500D01*
%TO.N,Net-(R9-Pad1)*%
X22070000Y-52290000D02*
X24060000Y-54280000D01*
X30180000Y-35810000D02*
X25850000Y-35810000D01*
X52260000Y-50080000D02*
X51287500Y-49107500D01*
X22070000Y-39590000D02*
X22070000Y-52290000D01*
X52260000Y-52450000D02*
X52260000Y-50080000D01*
X25850000Y-35810000D02*
X22070000Y-39590000D01*
X50430000Y-54280000D02*
X52260000Y-52450000D01*
X24060000Y-54280000D02*
X50430000Y-54280000D01*
X51287500Y-49107500D02*
X51287500Y-47480000D01*
%TO.N,Net-(R11-Pad1)*%
X50210000Y-38030000D02*
X51287500Y-39107500D01*
X38180000Y-35790000D02*
X40420000Y-38030000D01*
X40420000Y-38030000D02*
X50210000Y-38030000D01*
X51287500Y-39107500D02*
X51287500Y-43080000D01*
X36450000Y-35790000D02*
X38180000Y-35790000D01*
%TO.N,Net-(GREEN1-Pad2)*%
X44690000Y-35800000D02*
X45540000Y-34950000D01*
X42226720Y-35800000D02*
X44690000Y-35800000D01*
%TO.N,Net-(RED1-Pad2)*%
X42278360Y-32520000D02*
X42278360Y-31738360D01*
X42278360Y-31738360D02*
X41450000Y-30910000D01*
%TO.N,RED*%
X24280000Y-34010000D02*
X23830000Y-34010000D01*
X40581640Y-32520000D02*
X38991640Y-34110000D01*
X30170000Y-39830000D02*
X27420000Y-39830000D01*
X38991640Y-34110000D02*
X24380000Y-34110000D01*
X24380000Y-34110000D02*
X24280000Y-34010000D01*
X27420000Y-39830000D02*
X27250000Y-39660000D01*
X23830000Y-34010000D02*
X22840000Y-35000000D01*
%TO.N,GREEN*%
X40530000Y-36400000D02*
X41390000Y-37260000D01*
X37600000Y-38650000D02*
X41330000Y-38650000D01*
X41330000Y-38650000D02*
X41520000Y-38840000D01*
X40530000Y-35800000D02*
X40530000Y-36400000D01*
X36440000Y-39810000D02*
X37600000Y-38650000D01*
%TD*%
M02*
