%TF.GenerationSoftware,KiCad,Pcbnew,(5.99.0-9773-gf428ce03f2)*%
%TF.CreationDate,2021-05-10T10:20:16-04:00*%
%TF.ProjectId,D5XAMP_v4,44355841-4d50-45f7-9634-2e6b69636164,rev?*%
%TF.SameCoordinates,Original*%
%TF.FileFunction,Soldermask,Bot*%
%TF.FilePolarity,Negative*%
%FSLAX46Y46*%
G04 Gerber Fmt 4.6, Leading zero omitted, Abs format (unit mm)*
G04 Created by KiCad (PCBNEW (5.99.0-9773-gf428ce03f2)) date 2021-05-10 10:20:16*
%MOMM*%
%LPD*%
G01*
G04 APERTURE LIST*
%ADD10R,1.350000X1.350000*%
%ADD11O,1.350000X1.350000*%
%ADD12C,2.082800*%
%ADD13C,1.650000*%
%ADD14R,1.650000X1.650000*%
%ADD15C,1.446000*%
%ADD16C,3.015000*%
%ADD17C,0.800000*%
G04 APERTURE END LIST*
D10*
%TO.C,J2*%
X40070000Y-51340000D03*
D11*
X42070000Y-51340000D03*
%TD*%
D12*
%TO.C,GREEN1*%
X39630000Y-27800000D03*
X42170000Y-27800000D03*
%TD*%
%TO.C,RED1*%
X39790000Y-22900000D03*
X42330000Y-22900000D03*
%TD*%
D13*
%TO.C,U2*%
X33360000Y-35840000D03*
D14*
X30180000Y-35810000D03*
D13*
X36450000Y-35790000D03*
X33360000Y-37840000D03*
X30180000Y-37810000D03*
X36450000Y-37790000D03*
X33350000Y-39860000D03*
X30170000Y-39830000D03*
X36440000Y-39810000D03*
%TD*%
D10*
%TO.C,J3*%
X46610000Y-51340000D03*
D11*
X48610000Y-51340000D03*
%TD*%
D15*
%TO.C,J5*%
X49930000Y-31623732D03*
X52470000Y-31623732D03*
D16*
X57550000Y-26543732D03*
X47390000Y-26543732D03*
%TD*%
D15*
%TO.C,J4*%
X26560000Y-31663732D03*
X29100000Y-31663732D03*
D16*
X34180000Y-26583732D03*
X24020000Y-26583732D03*
%TD*%
D10*
%TO.C,J1*%
X33530000Y-51340000D03*
D11*
X35530000Y-51340000D03*
%TD*%
D17*
X47910000Y-47560000D03*
X46690000Y-41280000D03*
X26670000Y-45520000D03*
X35000000Y-48310000D03*
X55550000Y-49150000D03*
X25140000Y-41610000D03*
X30120000Y-49800000D03*
X21680000Y-37730000D03*
X30080000Y-51690000D03*
X53210000Y-51280000D03*
X27450000Y-41820000D03*
X34100000Y-46380000D03*
X49460000Y-46050000D03*
X32030000Y-44810000D03*
X35330000Y-44810000D03*
X30910000Y-41640000D03*
X50320000Y-40990000D03*
X58300000Y-38070000D03*
X52620000Y-41080000D03*
X48235000Y-40905000D03*
X53112500Y-44737500D03*
X57040000Y-44950000D03*
X45540000Y-34950000D03*
X41450000Y-30910000D03*
X22840000Y-35000000D03*
X27250000Y-39660000D03*
X41390000Y-37260000D03*
X41520000Y-38840000D03*
M02*
